<svg id="line-chart-svg" width="752" height="423" xmlns="http://www.w3.org/2000/svg" version="1.1"><style>
        .median-line { stroke-width: 1.5; }
        .area-band { fill-opacity: 0.2; }
        .bubble-group { z-index: 1000; }
        text { font-family: Arial, sans-serif; }
    </style><title>Migration Trends 1986-2025</title><g transform="translate(60,40)"><g class="x-axis" transform="translate(0,325)" fill="none" font-size="10" font-family="sans-serif" text-anchor="middle"><path class="domain" stroke="currentColor" d="M0.5,6V0.5H647.5V6"/><g class="tick" opacity="1" transform="translate(3.7842639593908416,0)"><line stroke="currentColor" y2="6"/><text fill="currentColor" y="9" dy=".15em" dx="-.8em" transform="rotate(-45)" style="text-anchor: end;">1986</text></g><g class="tick" opacity="1" transform="translate(53.048223350253785,0)"><line stroke="currentColor" y2="6"/><text fill="currentColor" y="9" dy=".15em" dx="-.8em" transform="rotate(-45)" style="text-anchor: end;">1989</text></g><g class="tick" opacity="1" transform="translate(102.31218274111673,0)"><line stroke="currentColor" y2="6"/><text fill="currentColor" y="9" dy=".15em" dx="-.8em" transform="rotate(-45)" style="text-anchor: end;">1992</text></g><g class="tick" opacity="1" transform="translate(151.57614213197968,0)"><line stroke="currentColor" y2="6"/><text fill="currentColor" y="9" dy=".15em" dx="-.8em" transform="rotate(-45)" style="text-anchor: end;">1995</text></g><g class="tick" opacity="1" transform="translate(200.84010152284262,0)"><line stroke="currentColor" y2="6"/><text fill="currentColor" y="9" dy=".15em" dx="-.8em" transform="rotate(-45)" style="text-anchor: end;">1998</text></g><g class="tick" opacity="1" transform="translate(250.10406091370555,0)"><line stroke="currentColor" y2="6"/><text fill="currentColor" y="9" dy=".15em" dx="-.8em" transform="rotate(-45)" style="text-anchor: end;">2001</text></g><g class="tick" opacity="1" transform="translate(299.3680203045685,0)"><line stroke="currentColor" y2="6"/><text fill="currentColor" y="9" dy=".15em" dx="-.8em" transform="rotate(-45)" style="text-anchor: end;">2004</text></g><g class="tick" opacity="1" transform="translate(348.6319796954314,0)"><line stroke="currentColor" y2="6"/><text fill="currentColor" y="9" dy=".15em" dx="-.8em" transform="rotate(-45)" style="text-anchor: end;">2007</text></g><g class="tick" opacity="1" transform="translate(397.8959390862944,0)"><line stroke="currentColor" y2="6"/><text fill="currentColor" y="9" dy=".15em" dx="-.8em" transform="rotate(-45)" style="text-anchor: end;">2010</text></g><g class="tick" opacity="1" transform="translate(447.15989847715736,0)"><line stroke="currentColor" y2="6"/><text fill="currentColor" y="9" dy=".15em" dx="-.8em" transform="rotate(-45)" style="text-anchor: end;">2013</text></g><g class="tick" opacity="1" transform="translate(496.42385786802026,0)"><line stroke="currentColor" y2="6"/><text fill="currentColor" y="9" dy=".15em" dx="-.8em" transform="rotate(-45)" style="text-anchor: end;">2016</text></g><g class="tick" opacity="1" transform="translate(545.6878172588832,0)"><line stroke="currentColor" y2="6"/><text fill="currentColor" y="9" dy=".15em" dx="-.8em" transform="rotate(-45)" style="text-anchor: end;">2019</text></g><g class="tick" opacity="1" transform="translate(594.9517766497462,0)"><line stroke="currentColor" y2="6"/><text fill="currentColor" y="9" dy=".15em" dx="-.8em" transform="rotate(-45)" style="text-anchor: end;">2022</text></g><g class="tick" opacity="1" transform="translate(644.2157360406092,0)"><line stroke="currentColor" y2="6"/><text fill="currentColor" y="9" dy=".15em" dx="-.8em" transform="rotate(-45)" style="text-anchor: end;">2025</text></g></g><g class="y-axis" fill="none" font-size="10" font-family="sans-serif" text-anchor="end"><path class="domain" stroke="currentColor" d="M-6,325.5H0.5V0.5H-6"/><g class="tick" opacity="1" transform="translate(0,325.5)"><line stroke="currentColor" x2="-6"/><text fill="currentColor" x="-9" dy="0.32em">0.0</text></g><g class="tick" opacity="1" transform="translate(0,235.22222222222223)"><line stroke="currentColor" x2="-6"/><text fill="currentColor" x="-9" dy="0.32em">500k</text></g><g class="tick" opacity="1" transform="translate(0,144.94444444444443)"><line stroke="currentColor" x2="-6"/><text fill="currentColor" x="-9" dy="0.32em">1.0M</text></g><g class="tick" opacity="1" transform="translate(0,54.66666666666666)"><line stroke="currentColor" x2="-6"/><text fill="currentColor" x="-9" dy="0.32em">1.5M</text></g></g><path fill="rgba(230, 126, 34, 0.2)" stroke="none" class="area-band type-1" d="M3.284,325C8.758,309.021,14.232,293.042,19.706,293.042C25.179,293.042,30.653,302.25,36.127,302.25C41.601,302.25,47.074,234.673,52.548,207.709C58.022,180.746,63.496,172.145,68.97,140.467C74.443,108.79,79.917,17.644,85.391,17.644C90.865,17.644,96.338,250.477,101.812,262.651C107.286,274.824,112.76,280.911,118.234,280.911C123.707,280.911,129.181,265.194,134.655,253.43C140.129,241.665,145.602,222.648,151.076,210.326C156.55,198.003,162.024,179.496,167.497,179.496C172.971,179.496,178.445,262.332,183.919,262.332C189.393,262.332,194.866,233.723,200.34,219.495C205.814,205.267,211.288,176.964,216.761,176.964C222.235,176.964,227.709,309.815,233.183,310.034C238.657,310.253,244.13,310.363,249.604,310.363C255.078,310.363,260.552,183.032,266.025,183.032C271.499,183.032,276.973,282.38,282.447,282.38C287.92,282.38,293.394,238.992,298.868,238.992C304.342,238.992,309.816,267.322,315.289,267.322C320.763,267.322,326.237,267.282,331.711,267.204C337.184,267.126,342.658,258.043,348.132,258.043C353.606,258.043,359.08,310.826,364.553,310.826C370.027,310.826,375.501,301.993,380.975,301.993C386.448,301.993,391.922,324.224,397.396,324.224C402.87,324.224,408.343,321.454,413.817,315.914C419.291,310.375,424.765,275.609,430.239,275.609C435.712,275.609,441.186,283.083,446.66,283.083C452.134,283.083,457.607,266.551,463.081,266.551C468.555,266.551,474.029,267.69,479.503,267.69C484.976,267.69,490.45,210.001,495.924,191.039C501.398,172.076,506.871,153.917,512.345,153.917C517.819,153.917,523.293,226.003,528.766,247.354C534.24,268.706,539.714,272.236,545.188,282.025C550.662,291.813,556.135,299.742,561.609,306.086C567.083,312.43,572.557,320.087,578.03,320.087C583.504,320.087,588.978,134.771,594.452,134.771C599.926,134.771,605.399,222.693,610.873,246.769C616.347,270.844,621.821,270.005,627.294,282.881C632.768,295.758,638.242,309.893,643.716,324.028L643.716,324.028C638.242,308.223,632.768,292.418,627.294,282.881C621.821,273.345,616.347,277.524,610.873,266.81C605.399,256.096,599.926,134.952,594.452,134.952C588.978,134.952,583.504,320.087,578.03,320.087C572.557,320.087,567.083,312.43,561.609,306.086C556.135,299.742,550.662,291.444,545.188,282.025C539.714,272.605,534.24,268.903,528.766,249.569C523.293,230.234,517.819,166.019,512.345,166.019C506.871,166.019,501.398,181.734,495.924,202.323C490.45,222.913,484.976,289.556,479.503,289.556C474.029,289.556,468.555,266.701,463.081,266.701C457.607,266.701,452.134,283.233,446.66,283.233C441.186,283.233,435.712,275.609,430.239,275.609C424.765,275.609,419.291,310.375,413.817,315.914C408.343,321.454,402.87,324.224,397.396,324.224C391.922,324.224,386.448,302.132,380.975,302.132C375.501,302.132,370.027,310.826,364.553,310.826C359.08,310.826,353.606,289.64,348.132,289.64C342.658,289.64,337.184,296.5,331.711,296.5C326.237,296.5,320.763,291.117,315.289,284.374C309.816,277.631,304.342,256.044,298.868,256.044C293.394,256.044,287.92,301.831,282.447,301.831C276.973,301.831,271.499,201.348,266.025,201.348C260.552,201.348,255.078,310.363,249.604,310.363C244.13,310.363,238.657,310.253,233.183,310.034C227.709,309.815,222.235,180.004,216.761,180.004C211.288,180.004,205.814,212.605,200.34,227.951C194.866,243.298,189.393,272.084,183.919,272.084C178.445,272.084,172.971,216.536,167.497,216.536C162.024,216.536,156.55,220.374,151.076,228.051C145.602,235.727,140.129,254.742,134.655,264.038C129.181,273.335,123.707,283.831,118.234,283.831C112.76,283.831,107.286,279.242,101.812,270.065C96.338,260.888,90.865,116.091,85.391,116.091C79.917,116.091,74.443,134.366,68.97,151.291C63.496,168.216,58.022,192.48,52.548,217.64C47.074,242.8,41.601,302.25,36.127,302.25C30.653,302.25,25.179,293.042,19.706,293.042C14.232,293.042,8.758,309.021,3.284,325Z"/><path fill="none" stroke="#E67E22" stroke-width="1.5" class="median-line type-1" d="M3.284,325C8.758,309.021,14.232,293.042,19.706,293.042C25.179,293.042,30.653,302.25,36.127,302.25C41.601,302.25,47.074,238.736,52.548,212.675C58.022,186.613,63.496,166.72,68.97,145.879C74.443,125.039,79.917,87.631,85.391,87.631C90.865,87.631,96.338,255.29,101.812,266.358C107.286,277.426,112.76,282.96,118.234,282.96C123.707,282.96,129.181,269.327,134.655,257.221C140.129,245.115,145.602,221.173,151.076,210.326C156.55,199.478,162.024,192.135,167.497,192.135C172.971,192.135,178.445,262.332,183.919,262.332C189.393,262.332,194.866,241.084,200.34,227.109C205.814,213.134,211.288,178.484,216.761,178.484C222.235,178.484,227.709,309.815,233.183,310.034C238.657,310.253,244.13,310.363,249.604,310.363C255.078,310.363,260.552,192.19,266.025,192.19C271.499,192.19,276.973,292.105,282.447,292.105C287.92,292.105,293.394,247.518,298.868,247.518C304.342,247.518,309.816,271.852,315.289,275.848C320.763,279.843,326.237,281.841,331.711,281.841C337.184,281.841,342.658,273.841,348.132,273.841C353.606,273.841,359.08,310.826,364.553,310.826C370.027,310.826,375.501,302.083,380.975,302.083C386.448,302.083,391.922,324.224,397.396,324.224C402.87,324.224,408.343,321.454,413.817,315.914C419.291,310.375,424.765,275.609,430.239,275.609C435.712,275.609,441.186,283.158,446.66,283.158C452.134,283.158,457.607,266.626,463.081,266.626C468.555,266.626,474.029,278.623,479.503,278.623C484.976,278.623,490.45,216.467,495.924,196.681C501.398,176.895,506.871,159.905,512.345,159.905C517.819,159.905,523.293,228.108,528.766,248.461C534.24,268.815,539.714,272.421,545.188,282.025C550.662,291.629,556.135,299.742,561.609,306.086C567.083,312.43,572.557,320.087,578.03,320.087C583.504,320.087,588.978,134.861,594.452,134.861C599.926,134.861,605.399,239.395,610.873,256.789C616.347,274.184,621.821,271.675,627.294,282.881C632.768,294.088,638.242,309.058,643.716,324.028"/><path fill="rgba(46, 204, 113, 0.2)" stroke="none" class="area-band type-2" d="M3.284,308.586C8.758,308.586,14.232,308.586,19.706,308.586C25.179,308.586,30.653,300.601,36.127,300.601C41.601,300.601,47.074,308.302,52.548,308.302C58.022,308.302,63.496,301.557,68.97,288.069C74.443,274.58,79.917,214.008,85.391,214.008C90.865,214.008,96.338,304.654,101.812,304.654C107.286,304.654,112.76,295.553,118.234,295.553C123.707,295.553,129.181,304.582,134.655,304.582C140.129,304.582,145.602,301.801,151.076,296.24C156.55,290.679,162.024,272.663,167.497,269.934C172.971,267.204,178.445,268.569,183.919,265.84C189.393,263.11,194.866,244.032,200.34,244.032C205.814,244.032,211.288,266.597,216.761,275.782C222.235,284.967,227.709,299.143,233.183,299.143C238.657,299.143,244.13,298.499,249.604,297.211C255.078,295.923,260.552,191.35,266.025,191.35C271.499,191.35,276.973,262.063,282.447,262.362C287.92,262.661,293.394,262.811,298.868,262.811C304.342,262.811,309.816,213.611,315.289,213.611C320.763,213.611,326.237,262.569,331.711,262.569C337.184,262.569,342.658,213.781,348.132,213.781C353.606,213.781,359.08,317.083,364.553,319.999C370.027,322.916,375.501,324.374,380.975,324.374C386.448,324.374,391.922,311.563,397.396,311.563C402.87,311.563,408.343,321.031,413.817,321.031C419.291,321.031,424.765,158.352,430.239,158.352C435.712,158.352,441.186,191.797,446.66,191.797C452.134,191.797,457.607,191.109,463.081,191.109C468.555,191.109,474.029,244.128,479.503,251.871C484.976,259.613,490.45,263.484,495.924,263.484C501.398,263.484,506.871,247.207,512.345,246.352C517.819,245.497,523.293,245.924,528.766,245.069C534.24,244.214,539.714,239.816,545.188,239.816C550.662,239.816,556.135,301.067,561.609,301.067C567.083,301.067,572.557,298.815,578.03,294.311C583.504,289.807,588.978,257.363,594.452,235.137C599.926,212.91,605.399,190.742,610.873,160.949C616.347,131.157,621.821,56.381,627.294,56.381C632.768,56.381,638.242,163.919,643.716,271.457L643.716,319.732C638.242,240.347,632.768,160.962,627.294,160.962C621.821,160.962,616.347,225.033,610.873,229.245C605.399,233.456,599.926,231.351,594.452,235.562C588.978,239.774,583.504,289.807,578.03,294.311C572.557,298.815,567.083,301.067,561.609,301.067C556.135,301.067,550.662,253.005,545.188,249.831C539.714,246.656,534.24,245.069,528.766,245.069C523.293,245.069,517.819,253.604,512.345,257.576C506.871,261.548,501.398,266.208,495.924,268.901C490.45,271.594,484.976,273.736,479.503,273.736C474.029,273.736,468.555,198.943,463.081,196.145C457.607,193.347,452.134,194.746,446.66,191.948C441.186,189.149,435.712,158.352,430.239,158.352C424.765,158.352,419.291,324.292,413.817,324.292C408.343,324.292,402.87,311.563,397.396,311.563C391.922,311.563,386.448,324.513,380.975,324.513C375.501,324.513,370.027,323.009,364.553,319.999C359.08,316.99,353.606,245.379,348.132,245.379C342.658,245.379,337.184,262.638,331.711,262.638C326.237,262.638,320.763,213.611,315.289,213.611C309.816,213.611,304.342,261.213,298.868,262.811C293.394,264.408,287.92,265.207,282.447,265.207C276.973,265.207,271.499,191.35,266.025,191.35C260.552,191.35,255.078,295.923,249.604,297.211C244.13,298.499,238.657,299.143,233.183,299.143C227.709,299.143,222.235,284.878,216.761,277.136C211.288,269.394,205.814,252.69,200.34,252.69C194.866,252.69,189.393,271.521,183.919,275.591C178.445,279.661,172.971,277.626,167.497,281.696C162.024,285.767,156.55,313.641,151.076,314.261C145.602,314.881,140.129,315.191,134.655,315.191C129.181,315.191,123.707,298.473,118.234,298.473C112.76,298.473,107.286,309.7,101.812,310.263C96.338,310.826,90.865,311.108,85.391,311.108C79.917,311.108,74.443,308.167,68.97,308.167C63.496,308.167,58.022,319.381,52.548,319.381C47.074,319.381,41.601,311.68,36.127,311.68C30.653,311.68,25.179,319.665,19.706,319.665C14.232,319.665,8.758,319.665,3.284,319.665Z"/><path fill="none" stroke="#2ECC71" stroke-width="1.5" class="median-line type-2" d="M3.284,316.793C8.758,316.793,14.232,316.793,19.706,316.793C25.179,316.793,30.653,308.808,36.127,308.808C41.601,308.808,47.074,316.508,52.548,316.508C58.022,316.508,63.496,306.316,68.97,300.785C74.443,295.254,79.917,283.322,85.391,283.322C90.865,283.322,96.338,307.458,101.812,307.458C107.286,307.458,112.76,297.602,118.234,297.602C123.707,297.602,129.181,308.373,134.655,308.373C140.129,308.373,145.602,302.794,151.076,296.388C156.55,289.981,162.024,272.663,167.497,269.934C172.971,267.204,178.445,268.569,183.919,265.84C189.393,263.11,194.866,251.746,200.34,251.746C205.814,251.746,211.288,268.56,216.761,276.459C222.235,284.358,227.709,299.143,233.183,299.143C238.657,299.143,244.13,298.499,249.604,297.211C255.078,295.923,260.552,191.35,266.025,191.35C271.499,191.35,276.973,263.784,282.447,263.784C287.92,263.784,293.394,263.46,298.868,262.811C304.342,262.162,309.816,213.611,315.289,213.611C320.763,213.611,326.237,262.592,331.711,262.592C337.184,262.592,342.658,229.58,348.132,229.58C353.606,229.58,359.08,317.023,364.553,319.999C370.027,322.976,375.501,324.464,380.975,324.464C386.448,324.464,391.922,311.563,397.396,311.563C402.87,311.563,408.343,322.662,413.817,322.662C419.291,322.662,424.765,158.352,430.239,158.352C435.712,158.352,441.186,190.702,446.66,191.872C452.134,193.042,457.607,192.457,463.081,193.627C468.555,194.797,474.029,260.544,479.503,262.803C484.976,265.063,490.45,266.193,495.924,266.193C501.398,266.193,506.871,255.422,512.345,251.901C517.819,248.381,523.293,245.233,528.766,245.069C534.24,244.905,539.714,244.823,545.188,244.823C550.662,244.823,556.135,301.067,561.609,301.067C567.083,301.067,572.557,298.815,578.03,294.311C583.504,289.807,588.978,251.885,594.452,235.349C599.926,218.814,605.399,216.21,610.873,195.097C616.347,173.984,621.821,108.671,627.294,108.671C632.768,108.671,638.242,202.133,643.716,295.595"/><g class="bubble-container" style="z-index: 1000;"><g class="bubble-group bubble-group-1" transform="translate(19.705583756345156, 293.04166666666663)"><circle r="6" fill="white" stroke="none" style="opacity: 0.8;"/><circle r="5" fill="#E67E22" stroke="none" style="cursor: pointer;"/></g><g class="bubble-group bubble-group-1" transform="translate(36.12690355329947, 302.25)"><circle r="6" fill="white" stroke="none" style="opacity: 0.8;"/><circle r="5" fill="#E67E22" stroke="none" style="cursor: pointer;"/></g><g class="bubble-group bubble-group-1" transform="translate(52.548223350253785, 212.67458333333332)"><circle r="6" fill="white" stroke="none" style="opacity: 0.8;"/><circle r="5" fill="#E67E22" stroke="none" style="cursor: pointer;"/></g><g class="bubble-group bubble-group-1" transform="translate(68.9695431472081, 145.87922916666668)"><circle r="6" fill="white" stroke="none" style="opacity: 0.8;"/><circle r="5" fill="#E67E22" stroke="none" style="cursor: pointer;"/></g><g class="bubble-group bubble-group-1" transform="translate(85.39086294416242, 87.63137499999999)"><circle r="6" fill="white" stroke="none" style="opacity: 0.8;"/><circle r="5" fill="#E67E22" stroke="none" style="cursor: pointer;"/></g><g class="bubble-group bubble-group-1" transform="translate(101.81218274111673, 266.35799305555554)"><circle r="6" fill="white" stroke="none" style="opacity: 0.8;"/><circle r="5" fill="#E67E22" stroke="none" style="cursor: pointer;"/></g><g class="bubble-group bubble-group-1" transform="translate(118.23350253807104, 282.9601666666667)"><circle r="6" fill="white" stroke="none" style="opacity: 0.8;"/><circle r="5" fill="#E67E22" stroke="none" style="cursor: pointer;"/></g><g class="bubble-group bubble-group-1" transform="translate(134.65482233502536, 257.2208888888889)"><circle r="6" fill="white" stroke="none" style="opacity: 0.8;"/><circle r="5" fill="#E67E22" stroke="none" style="cursor: pointer;"/></g><g class="bubble-group bubble-group-1" transform="translate(151.07614213197968, 210.3257361111111)"><circle r="6" fill="white" stroke="none" style="opacity: 0.8;"/><circle r="5" fill="#E67E22" stroke="none" style="cursor: pointer;"/></g><g class="bubble-group bubble-group-1" transform="translate(167.497461928934, 192.13458333333335)"><circle r="6" fill="white" stroke="none" style="opacity: 0.8;"/><circle r="5" fill="#E67E22" stroke="none" style="cursor: pointer;"/></g><g class="bubble-group bubble-group-1" transform="translate(183.9187817258883, 262.3322361111111)"><circle r="6" fill="white" stroke="none" style="opacity: 0.8;"/><circle r="5" fill="#E67E22" stroke="none" style="cursor: pointer;"/></g><g class="bubble-group bubble-group-1" transform="translate(200.34010152284262, 227.10882638888887)"><circle r="6" fill="white" stroke="none" style="opacity: 0.8;"/><circle r="5" fill="#E67E22" stroke="none" style="cursor: pointer;"/></g><g class="bubble-group bubble-group-1" transform="translate(216.76142131979694, 178.48413194444444)"><circle r="6" fill="white" stroke="none" style="opacity: 0.8;"/><circle r="5" fill="#E67E22" stroke="none" style="cursor: pointer;"/></g><g class="bubble-group bubble-group-1" transform="translate(233.18274111675123, 310.03393055555557)"><circle r="6" fill="white" stroke="none" style="opacity: 0.8;"/><circle r="5" fill="#E67E22" stroke="none" style="cursor: pointer;"/></g><g class="bubble-group bubble-group-1" transform="translate(249.60406091370555, 310.3629027777778)"><circle r="6" fill="white" stroke="none" style="opacity: 0.8;"/><circle r="5" fill="#E67E22" stroke="none" style="cursor: pointer;"/></g><g class="bubble-group bubble-group-1" transform="translate(266.0253807106599, 192.1900138888889)"><circle r="6" fill="white" stroke="none" style="opacity: 0.8;"/><circle r="5" fill="#E67E22" stroke="none" style="cursor: pointer;"/></g><g class="bubble-group bubble-group-1" transform="translate(282.4467005076142, 292.1052152777778)"><circle r="6" fill="white" stroke="none" style="opacity: 0.8;"/><circle r="5" fill="#E67E22" stroke="none" style="cursor: pointer;"/></g><g class="bubble-group bubble-group-1" transform="translate(298.8680203045685, 247.51819444444445)"><circle r="6" fill="white" stroke="none" style="opacity: 0.8;"/><circle r="5" fill="#E67E22" stroke="none" style="cursor: pointer;"/></g><g class="bubble-group bubble-group-1" transform="translate(315.28934010152284, 275.8477222222222)"><circle r="6" fill="white" stroke="none" style="opacity: 0.8;"/><circle r="5" fill="#E67E22" stroke="none" style="cursor: pointer;"/></g><g class="bubble-group bubble-group-1" transform="translate(331.71065989847716, 281.84063194444445)"><circle r="6" fill="white" stroke="none" style="opacity: 0.8;"/><circle r="5" fill="#E67E22" stroke="none" style="cursor: pointer;"/></g><g class="bubble-group bubble-group-1" transform="translate(348.1319796954314, 273.84138888888884)"><circle r="6" fill="white" stroke="none" style="opacity: 0.8;"/><circle r="5" fill="#E67E22" stroke="none" style="cursor: pointer;"/></g><g class="bubble-group bubble-group-1" transform="translate(364.55329949238575, 310.82638888888886)"><circle r="6" fill="white" stroke="none" style="opacity: 0.8;"/><circle r="5" fill="#E67E22" stroke="none" style="cursor: pointer;"/></g><g class="bubble-group bubble-group-1" transform="translate(380.97461928934007, 302.08325694444443)"><circle r="6" fill="white" stroke="none" style="opacity: 0.8;"/><circle r="5" fill="#E67E22" stroke="none" style="cursor: pointer;"/></g><g class="bubble-group bubble-group-1" transform="translate(397.3959390862944, 324.2236111111111)"><circle r="6" fill="white" stroke="none" style="opacity: 0.8;"/><circle r="5" fill="#E67E22" stroke="none" style="cursor: pointer;"/></g><g class="bubble-group bubble-group-1" transform="translate(413.8172588832487, 315.91435416666667)"><circle r="6" fill="white" stroke="none" style="opacity: 0.8;"/><circle r="5" fill="#E67E22" stroke="none" style="cursor: pointer;"/></g><g class="bubble-group bubble-group-1" transform="translate(430.23857868020303, 275.60911805555554)"><circle r="6" fill="white" stroke="none" style="opacity: 0.8;"/><circle r="5" fill="#E67E22" stroke="none" style="cursor: pointer;"/></g><g class="bubble-group bubble-group-1" transform="translate(446.65989847715736, 283.1579652777778)"><circle r="6" fill="white" stroke="none" style="opacity: 0.8;"/><circle r="5" fill="#E67E22" stroke="none" style="cursor: pointer;"/></g><g class="bubble-group bubble-group-1" transform="translate(463.0812182741116, 266.62575694444445)"><circle r="6" fill="white" stroke="none" style="opacity: 0.8;"/><circle r="5" fill="#E67E22" stroke="none" style="cursor: pointer;"/></g><g class="bubble-group bubble-group-1" transform="translate(479.50253807106594, 278.62304166666667)"><circle r="6" fill="white" stroke="none" style="opacity: 0.8;"/><circle r="5" fill="#E67E22" stroke="none" style="cursor: pointer;"/></g><g class="bubble-group bubble-group-1" transform="translate(495.92385786802026, 196.6809722222222)"><circle r="6" fill="white" stroke="none" style="opacity: 0.8;"/><circle r="5" fill="#E67E22" stroke="none" style="cursor: pointer;"/></g><g class="bubble-group bubble-group-1" transform="translate(512.3451776649746, 159.90510069444446)"><circle r="6" fill="white" stroke="none" style="opacity: 0.8;"/><circle r="5" fill="#E67E22" stroke="none" style="cursor: pointer;"/></g><g class="bubble-group bubble-group-1" transform="translate(528.7664974619289, 248.46141666666665)"><circle r="6" fill="white" stroke="none" style="opacity: 0.8;"/><circle r="5" fill="#E67E22" stroke="none" style="cursor: pointer;"/></g><g class="bubble-group bubble-group-1" transform="translate(545.1878172588832, 282.02470833333336)"><circle r="6" fill="white" stroke="none" style="opacity: 0.8;"/><circle r="5" fill="#E67E22" stroke="none" style="cursor: pointer;"/></g><g class="bubble-group bubble-group-1" transform="translate(561.6091370558376, 306.0860833333333)"><circle r="6" fill="white" stroke="none" style="opacity: 0.8;"/><circle r="5" fill="#E67E22" stroke="none" style="cursor: pointer;"/></g><g class="bubble-group bubble-group-1" transform="translate(578.0304568527919, 320.08744444444443)"><circle r="6" fill="white" stroke="none" style="opacity: 0.8;"/><circle r="5" fill="#E67E22" stroke="none" style="cursor: pointer;"/></g><g class="bubble-group bubble-group-1" transform="translate(594.4517766497462, 134.86127777777776)"><circle r="6" fill="white" stroke="none" style="opacity: 0.8;"/><circle r="5" fill="#E67E22" stroke="none" style="cursor: pointer;"/></g><g class="bubble-group bubble-group-1" transform="translate(610.8730964467005, 256.7893611111111)"><circle r="6" fill="white" stroke="none" style="opacity: 0.8;"/><circle r="5" fill="#E67E22" stroke="none" style="cursor: pointer;"/></g><g class="bubble-group bubble-group-1" transform="translate(627.2944162436548, 282.8812638888889)"><circle r="6" fill="white" stroke="none" style="opacity: 0.8;"/><circle r="5" fill="#E67E22" stroke="none" style="cursor: pointer;"/></g><g class="bubble-group bubble-group-1" transform="translate(643.7157360406092, 324.02806944444444)"><circle r="6" fill="white" stroke="none" style="opacity: 0.8;"/><circle r="5" fill="#E67E22" stroke="none" style="cursor: pointer;"/></g><g class="bubble-group bubble-group-2" transform="translate(3.2842639593908416, 316.79284722222224)"><circle r="6" fill="white" stroke="none" style="opacity: 0.8;"/><circle r="5" fill="#2ECC71" stroke="none" style="cursor: pointer;"/></g><g class="bubble-group bubble-group-2" transform="translate(19.705583756345156, 316.79284722222224)"><circle r="6" fill="white" stroke="none" style="opacity: 0.8;"/><circle r="5" fill="#2ECC71" stroke="none" style="cursor: pointer;"/></g><g class="bubble-group bubble-group-2" transform="translate(36.12690355329947, 308.8077777777778)"><circle r="6" fill="white" stroke="none" style="opacity: 0.8;"/><circle r="5" fill="#2ECC71" stroke="none" style="cursor: pointer;"/></g><g class="bubble-group bubble-group-2" transform="translate(52.548223350253785, 316.5084722222222)"><circle r="6" fill="white" stroke="none" style="opacity: 0.8;"/><circle r="5" fill="#2ECC71" stroke="none" style="cursor: pointer;"/></g><g class="bubble-group bubble-group-2" transform="translate(68.9695431472081, 300.78488194444446)"><circle r="6" fill="white" stroke="none" style="opacity: 0.8;"/><circle r="5" fill="#2ECC71" stroke="none" style="cursor: pointer;"/></g><g class="bubble-group bubble-group-2" transform="translate(85.39086294416242, 283.3219097222222)"><circle r="6" fill="white" stroke="none" style="opacity: 0.8;"/><circle r="5" fill="#2ECC71" stroke="none" style="cursor: pointer;"/></g><g class="bubble-group bubble-group-2" transform="translate(101.81218274111673, 307.4583958333333)"><circle r="6" fill="white" stroke="none" style="opacity: 0.8;"/><circle r="5" fill="#2ECC71" stroke="none" style="cursor: pointer;"/></g><g class="bubble-group bubble-group-2" transform="translate(118.23350253807104, 297.60222916666663)"><circle r="6" fill="white" stroke="none" style="opacity: 0.8;"/><circle r="5" fill="#2ECC71" stroke="none" style="cursor: pointer;"/></g><g class="bubble-group bubble-group-2" transform="translate(134.65482233502536, 308.37290972222223)"><circle r="6" fill="white" stroke="none" style="opacity: 0.8;"/><circle r="5" fill="#2ECC71" stroke="none" style="cursor: pointer;"/></g><g class="bubble-group bubble-group-2" transform="translate(151.07614213197968, 296.38794791666663)"><circle r="6" fill="white" stroke="none" style="opacity: 0.8;"/><circle r="5" fill="#2ECC71" stroke="none" style="cursor: pointer;"/></g><g class="bubble-group bubble-group-2" transform="translate(167.497461928934, 269.933625)"><circle r="6" fill="white" stroke="none" style="opacity: 0.8;"/><circle r="5" fill="#2ECC71" stroke="none" style="cursor: pointer;"/></g><g class="bubble-group bubble-group-2" transform="translate(183.9187817258883, 265.8395277777778)"><circle r="6" fill="white" stroke="none" style="opacity: 0.8;"/><circle r="5" fill="#2ECC71" stroke="none" style="cursor: pointer;"/></g><g class="bubble-group bubble-group-2" transform="translate(200.34010152284262, 251.74635416666666)"><circle r="6" fill="white" stroke="none" style="opacity: 0.8;"/><circle r="5" fill="#2ECC71" stroke="none" style="cursor: pointer;"/></g><g class="bubble-group bubble-group-2" transform="translate(216.76142131979694, 276.4590833333333)"><circle r="6" fill="white" stroke="none" style="opacity: 0.8;"/><circle r="5" fill="#2ECC71" stroke="none" style="cursor: pointer;"/></g><g class="bubble-group bubble-group-2" transform="translate(233.18274111675123, 299.14281944444446)"><circle r="6" fill="white" stroke="none" style="opacity: 0.8;"/><circle r="5" fill="#2ECC71" stroke="none" style="cursor: pointer;"/></g><g class="bubble-group bubble-group-2" transform="translate(249.60406091370555, 297.21087500000004)"><circle r="6" fill="white" stroke="none" style="opacity: 0.8;"/><circle r="5" fill="#2ECC71" stroke="none" style="cursor: pointer;"/></g><g class="bubble-group bubble-group-2" transform="translate(266.0253807106599, 191.3497986111111)"><circle r="6" fill="white" stroke="none" style="opacity: 0.8;"/><circle r="5" fill="#2ECC71" stroke="none" style="cursor: pointer;"/></g><g class="bubble-group bubble-group-2" transform="translate(282.4467005076142, 263.78444444444443)"><circle r="6" fill="white" stroke="none" style="opacity: 0.8;"/><circle r="5" fill="#2ECC71" stroke="none" style="cursor: pointer;"/></g><g class="bubble-group bubble-group-2" transform="translate(298.8680203045685, 262.8107083333333)"><circle r="6" fill="white" stroke="none" style="opacity: 0.8;"/><circle r="5" fill="#2ECC71" stroke="none" style="cursor: pointer;"/></g><g class="bubble-group bubble-group-2" transform="translate(315.28934010152284, 213.61139583333332)"><circle r="6" fill="white" stroke="none" style="opacity: 0.8;"/><circle r="5" fill="#2ECC71" stroke="none" style="cursor: pointer;"/></g><g class="bubble-group bubble-group-2" transform="translate(331.71065989847716, 262.59205555555553)"><circle r="6" fill="white" stroke="none" style="opacity: 0.8;"/><circle r="5" fill="#2ECC71" stroke="none" style="cursor: pointer;"/></g><g class="bubble-group bubble-group-2" transform="translate(348.1319796954314, 229.57990972222223)"><circle r="6" fill="white" stroke="none" style="opacity: 0.8;"/><circle r="5" fill="#2ECC71" stroke="none" style="cursor: pointer;"/></g><g class="bubble-group bubble-group-2" transform="translate(364.55329949238575, 319.9994236111111)"><circle r="6" fill="white" stroke="none" style="opacity: 0.8;"/><circle r="5" fill="#2ECC71" stroke="none" style="cursor: pointer;"/></g><g class="bubble-group bubble-group-2" transform="translate(380.97461928934007, 324.46429166666667)"><circle r="6" fill="white" stroke="none" style="opacity: 0.8;"/><circle r="5" fill="#2ECC71" stroke="none" style="cursor: pointer;"/></g><g class="bubble-group bubble-group-2" transform="translate(397.3959390862944, 311.562875)"><circle r="6" fill="white" stroke="none" style="opacity: 0.8;"/><circle r="5" fill="#2ECC71" stroke="none" style="cursor: pointer;"/></g><g class="bubble-group bubble-group-2" transform="translate(413.8172588832487, 322.66189583333335)"><circle r="6" fill="white" stroke="none" style="opacity: 0.8;"/><circle r="5" fill="#2ECC71" stroke="none" style="cursor: pointer;"/></g><g class="bubble-group bubble-group-2" transform="translate(430.23857868020303, 158.35155555555554)"><circle r="6" fill="white" stroke="none" style="opacity: 0.8;"/><circle r="5" fill="#2ECC71" stroke="none" style="cursor: pointer;"/></g><g class="bubble-group bubble-group-2" transform="translate(446.65989847715736, 191.8723263888889)"><circle r="6" fill="white" stroke="none" style="opacity: 0.8;"/><circle r="5" fill="#2ECC71" stroke="none" style="cursor: pointer;"/></g><g class="bubble-group bubble-group-2" transform="translate(463.0812182741116, 193.62714583333334)"><circle r="6" fill="white" stroke="none" style="opacity: 0.8;"/><circle r="5" fill="#2ECC71" stroke="none" style="cursor: pointer;"/></g><g class="bubble-group bubble-group-2" transform="translate(479.50253807106594, 262.80330555555554)"><circle r="6" fill="white" stroke="none" style="opacity: 0.8;"/><circle r="5" fill="#2ECC71" stroke="none" style="cursor: pointer;"/></g><g class="bubble-group bubble-group-2" transform="translate(495.92385786802026, 266.19269444444444)"><circle r="6" fill="white" stroke="none" style="opacity: 0.8;"/><circle r="5" fill="#2ECC71" stroke="none" style="cursor: pointer;"/></g><g class="bubble-group bubble-group-2" transform="translate(512.3451776649746, 251.90113541666668)"><circle r="6" fill="white" stroke="none" style="opacity: 0.8;"/><circle r="5" fill="#2ECC71" stroke="none" style="cursor: pointer;"/></g><g class="bubble-group bubble-group-2" transform="translate(528.7664974619289, 245.06904861111113)"><circle r="6" fill="white" stroke="none" style="opacity: 0.8;"/><circle r="5" fill="#2ECC71" stroke="none" style="cursor: pointer;"/></g><g class="bubble-group bubble-group-2" transform="translate(545.1878172588832, 244.82313194444444)"><circle r="6" fill="white" stroke="none" style="opacity: 0.8;"/><circle r="5" fill="#2ECC71" stroke="none" style="cursor: pointer;"/></g><g class="bubble-group bubble-group-2" transform="translate(561.6091370558376, 301.067)"><circle r="6" fill="white" stroke="none" style="opacity: 0.8;"/><circle r="5" fill="#2ECC71" stroke="none" style="cursor: pointer;"/></g><g class="bubble-group bubble-group-2" transform="translate(578.0304568527919, 294.31079166666666)"><circle r="6" fill="white" stroke="none" style="opacity: 0.8;"/><circle r="5" fill="#2ECC71" stroke="none" style="cursor: pointer;"/></g><g class="bubble-group bubble-group-2" transform="translate(594.4517766497462, 235.3494722222222)"><circle r="6" fill="white" stroke="none" style="opacity: 0.8;"/><circle r="5" fill="#2ECC71" stroke="none" style="cursor: pointer;"/></g><g class="bubble-group bubble-group-2" transform="translate(610.8730964467005, 195.09695833333336)"><circle r="6" fill="white" stroke="none" style="opacity: 0.8;"/><circle r="5" fill="#2ECC71" stroke="none" style="cursor: pointer;"/></g><g class="bubble-group bubble-group-2" transform="translate(627.2944162436548, 108.67115277777776)"><circle r="6" fill="white" stroke="none" style="opacity: 0.8;"/><circle r="5" fill="#2ECC71" stroke="none" style="cursor: pointer;"/></g><g class="bubble-group bubble-group-2" transform="translate(643.7157360406092, 295.5948125)"><circle r="6" fill="white" stroke="none" style="opacity: 0.8;"/><circle r="5" fill="#2ECC71" stroke="none" style="cursor: pointer;"/></g></g></g><g class="legend" transform="translate(290.5322265625, 420)"><g transform="translate(0, 0)"><rect x="0" y="-5" width="10" height="10" style="fill: rgb(230, 126, 34);"/><text x="15" y="0" dy="0.32em" style="font-size: 10px;">Expulsion</text></g><g transform="translate(73.7978515625, 0)"><rect x="0" y="-5" width="10" height="10" style="fill: rgb(46, 204, 113);"/><text x="15" y="0" dy="0.32em" style="font-size: 10px;">Deportation</text></g></g></svg>