<svg width="1128" height="891" xmlns="http://www.w3.org/2000/svg" version="1.1"><style>
        .group path { fill-opacity: 1; }
        .chord { fill-opacity: 0.75; }
        text { font-family: Arial, sans-serif; }
    </style><title>Migration Flows 1950-2025</title><g transform="translate(564, 445.5)"><g class="groups"><g class="group"><path d="M-217.117,-283.326A356.95,356.95,0,0,1,-216.521,-283.782L-199.199,-261.079A328.394,328.394,0,0,0,-199.747,-260.66Z" fill="rgb(238, 80, 219)" stroke="rgb(167, 56, 153)"/><text dy="0.35em" transform="rotate(232.59675357512913) translate(366.95) rotate(180)" text-anchor="end" style="font-size: 10px; font-family: &quot;Times New Roman&quot;, Times, serif;">Afghanistan</text></g><g class="group"><path d="M-152.039,-322.951L-139.876,-297.115Z" fill="rgb(248, 36, 90)" stroke="rgb(174, 25, 63)"/><text dy="0.35em" transform="rotate(244.78985701424295) translate(366.95) rotate(180)" text-anchor="end" style="font-size: 10px; font-family: &quot;Times New Roman&quot;, Times, serif;">Albania</text></g><g class="group"><path d="M136.707,329.734A356.95,356.95,0,0,1,81.276,347.574L74.774,319.768A328.394,328.394,0,0,0,125.77,303.355Z" fill="rgb(249, 70, 77)" stroke="rgb(174, 49, 54)"/><text dy="0.35em" transform="rotate(72.15988851721752) translate(366.95) " text-anchor="start" style="font-size: 10px; font-family: &quot;Times New Roman&quot;, Times, serif;">Algeria</text></g><g class="group"><path d="M299.053,194.886A356.95,356.95,0,0,1,252.622,252.181L232.412,232.007A328.394,328.394,0,0,0,275.129,179.296Z" fill="rgb(239, 145, 47)" stroke="rgb(167, 102, 33)"/><text dy="0.35em" transform="rotate(39.02072383669437) translate(366.95) " text-anchor="start" style="font-size: 10px; font-family: &quot;Times New Roman&quot;, Times, serif;">Angola</text></g><g class="group"><path d="M-356.931,-3.713A356.95,356.95,0,0,1,-356.134,-24.126L-327.643,-22.196A328.394,328.394,0,0,0,-328.376,-3.416Z" fill="rgb(39, 249, 44)" stroke="rgb(27, 174, 31)"/><text dy="0.35em" transform="rotate(182.23578084540674) translate(366.95) rotate(180)" text-anchor="end" style="font-size: 10px; font-family: &quot;Times New Roman&quot;, Times, serif;">Armenia</text></g><g class="group"><path d="M-311.582,-174.155A356.95,356.95,0,0,1,-307.944,-180.509L-283.309,-166.068A328.394,328.394,0,0,0,-286.656,-160.222Z" fill="rgb(58, 240, 180)" stroke="rgb(41, 168, 126)"/><text dy="0.35em" transform="rotate(209.7900829779257) translate(366.95) rotate(180)" text-anchor="end" style="font-size: 10px; font-family: &quot;Times New Roman&quot;, Times, serif;">Azerbaijan</text></g><g class="group"><path d="M-220.763,-280.494A356.95,356.95,0,0,1,-219.939,-281.141L-202.344,-258.649A328.394,328.394,0,0,0,-203.102,-258.054Z" fill="rgb(230, 72, 79)" stroke="rgb(161, 50, 55)"/><text dy="0.35em" transform="rotate(231.87948515019065) translate(366.95) rotate(180)" text-anchor="end" style="font-size: 10px; font-family: &quot;Times New Roman&quot;, Times, serif;">Bahamas</text></g><g class="group"><path d="M-197.191,-297.538A356.95,356.95,0,0,1,-196.925,-297.714L-181.171,-273.897A328.394,328.394,0,0,0,-181.416,-273.735Z" fill="rgb(69, 152, 233)" stroke="rgb(48, 106, 163)"/><text dy="0.35em" transform="rotate(236.4914717643921) translate(366.95) rotate(180)" text-anchor="end" style="font-size: 10px; font-family: &quot;Times New Roman&quot;, Times, serif;">Bahrain</text></g><g class="group"><path d="M-261.275,243.205A356.95,356.95,0,0,1,-284.563,215.493L-261.798,198.253A328.394,328.394,0,0,0,-240.373,223.748Z" fill="rgb(200, 238, 48)" stroke="rgb(140, 167, 34)"/><text dy="0.35em" transform="rotate(139.95782351587377) translate(366.95) rotate(180)" text-anchor="end" style="font-size: 10px; font-family: &quot;Times New Roman&quot;, Times, serif;">Bangladesh</text></g><g class="group"><path d="M-148.802,-324.455L-136.898,-298.499Z" fill="rgb(142, 249, 57)" stroke="rgb(99, 174, 40)"/><text dy="0.35em" transform="rotate(245.3628148093738) translate(366.95) rotate(180)" text-anchor="end" style="font-size: 10px; font-family: &quot;Times New Roman&quot;, Times, serif;">Benin</text></g><g class="group"><path d="M-353.854,-46.908A356.95,356.95,0,0,1,-351.654,-61.262L-323.521,-56.361A328.394,328.394,0,0,0,-325.546,-43.156Z" fill="rgb(48, 253, 115)" stroke="rgb(34, 177, 81)"/><text dy="0.35em" transform="rotate(188.71681668916352) translate(366.95) rotate(180)" text-anchor="end" style="font-size: 10px; font-family: &quot;Times New Roman&quot;, Times, serif;">Bhutan</text></g><g class="group"><path d="M-187.413,-303.792A356.95,356.95,0,0,1,-187.257,-303.888L-172.277,-279.577A328.394,328.394,0,0,0,-172.42,-279.489Z" fill="rgb(254, 46, 137)" stroke="rgb(178, 32, 96)"/><text dy="0.35em" transform="rotate(238.3437011194788) translate(366.95) rotate(180)" text-anchor="end" style="font-size: 10px; font-family: &quot;Times New Roman&quot;, Times, serif;">Bosnia</text></g><g class="group"><path d="M-347.103,83.265A356.95,356.95,0,0,1,-352.304,57.401L-324.12,52.809A328.394,328.394,0,0,0,-319.334,76.604Z" fill="rgb(42, 251, 239)" stroke="rgb(29, 176, 167)"/><text dy="0.35em" transform="rotate(168.62823157642248) translate(366.95) rotate(180)" text-anchor="end" style="font-size: 10px; font-family: &quot;Times New Roman&quot;, Times, serif;">Botswana</text></g><g class="group"><path d="M-37.679,354.956A356.95,356.95,0,0,1,-87.244,346.124L-80.265,318.434A328.394,328.394,0,0,0,-34.665,326.559Z" fill="rgb(251, 64, 149)" stroke="rgb(176, 45, 104)"/><text dy="0.35em" transform="rotate(100.10333674820004) translate(366.95) rotate(180)" text-anchor="end" style="font-size: 10px; font-family: &quot;Times New Roman&quot;, Times, serif;">Bulgaria</text></g><g class="group"><path d="M-145.55,-325.927L-133.906,-299.853Z" fill="rgb(245, 219, 54)" stroke="rgb(172, 153, 38)"/><text dy="0.35em" transform="rotate(245.93577260450462) translate(366.95) rotate(180)" text-anchor="end" style="font-size: 10px; font-family: &quot;Times New Roman&quot;, Times, serif;">Burkina Faso</text></g><g class="group"><path d="M-142.284,-327.366L-130.901,-301.177Z" fill="rgb(74, 218, 249)" stroke="rgb(52, 153, 174)"/><text dy="0.35em" transform="rotate(246.5087303996354) translate(366.95) rotate(180)" text-anchor="end" style="font-size: 10px; font-family: &quot;Times New Roman&quot;, Times, serif;">Burma</text></g><g class="group"><path d="M-254.046,-250.746A356.95,356.95,0,0,1,-251.861,-252.942L-231.712,-232.706A328.394,328.394,0,0,0,-233.723,-230.687Z" fill="rgb(221, 41, 255)" stroke="rgb(155, 29, 179)"/><text dy="0.35em" transform="rotate(224.87407896713893) translate(366.95) rotate(180)" text-anchor="end" style="font-size: 10px; font-family: &quot;Times New Roman&quot;, Times, serif;">Burundi</text></g><g class="group"><path d="M-356.126,24.245A356.95,356.95,0,0,1,-356.95,-0.143L-328.394,-0.132A328.394,328.394,0,0,0,-327.636,22.305Z" fill="rgb(63, 235, 134)" stroke="rgb(44, 165, 94)"/><text dy="0.35em" transform="rotate(178.06419026937215) translate(366.95) rotate(180)" text-anchor="end" style="font-size: 10px; font-family: &quot;Times New Roman&quot;, Times, serif;">Cambodia</text></g><g class="group"><path d="M-306.124,-183.579A356.95,356.95,0,0,1,-302.796,-189.018L-278.572,-173.897A328.394,328.394,0,0,0,-281.634,-168.893Z" fill="rgb(44, 241, 245)" stroke="rgb(31, 169, 172)"/><text dy="0.35em" transform="rotate(211.46242440982127) translate(366.95) rotate(180)" text-anchor="end" style="font-size: 10px; font-family: &quot;Times New Roman&quot;, Times, serif;">Cameroon</text></g><g class="group"><path d="M-139.003,-328.773L-127.883,-302.471Z" fill="rgb(187, 240, 84)" stroke="rgb(131, 168, 59)"/><text dy="0.35em" transform="rotate(247.08168819476623) translate(366.95) rotate(180)" text-anchor="end" style="font-size: 10px; font-family: &quot;Times New Roman&quot;, Times, serif;">Canada</text></g><g class="group"><path d="M-263.973,-240.274A356.95,356.95,0,0,1,-261.495,-242.969L-240.575,-223.531A328.394,328.394,0,0,0,-242.855,-221.052Z" fill="rgb(75, 240, 101)" stroke="rgb(53, 168, 71)"/><text dy="0.35em" transform="rotate(222.60295279445427) translate(366.95) rotate(180)" text-anchor="end" style="font-size: 10px; font-family: &quot;Times New Roman&quot;, Times, serif;">Central African Republic</text></g><g class="group"><path d="M-210.206,-288.49A356.95,356.95,0,0,1,-209.836,-288.76L-193.049,-265.659A328.394,328.394,0,0,0,-193.39,-265.411Z" fill="rgb(232, 238, 80)" stroke="rgb(162, 167, 56)"/><text dy="0.35em" transform="rotate(233.9580602116244) translate(366.95) rotate(180)" text-anchor="end" style="font-size: 10px; font-family: &quot;Times New Roman&quot;, Times, serif;">Chad</text></g><g class="group"><path d="M-135.708,-330.146L-124.852,-303.735Z" fill="rgb(42, 239, 64)" stroke="rgb(29, 167, 45)"/><text dy="0.35em" transform="rotate(247.654645989897) translate(366.95) rotate(180)" text-anchor="end" style="font-size: 10px; font-family: &quot;Times New Roman&quot;, Times, serif;">China</text></g><g class="group"><path d="M-132.4,-331.487L-121.808,-304.968Z" fill="rgb(194, 65, 234)" stroke="rgb(136, 46, 164)"/><text dy="0.35em" transform="rotate(248.22760378502784) translate(366.95) rotate(180)" text-anchor="end" style="font-size: 10px; font-family: &quot;Times New Roman&quot;, Times, serif;">Comoros</text></g><g class="group"><path d="M-129.079,-332.794L-118.752,-306.171Z" fill="rgb(251, 107, 80)" stroke="rgb(176, 75, 56)"/><text dy="0.35em" transform="rotate(248.80056158015861) translate(366.95) rotate(180)" text-anchor="end" style="font-size: 10px; font-family: &quot;Times New Roman&quot;, Times, serif;">Congo</text></g><g class="group"><path d="M-307.428,181.387A356.95,356.95,0,0,1,-322.891,152.166L-297.06,139.993A328.394,328.394,0,0,0,-282.834,166.876Z" fill="rgb(44, 254, 237)" stroke="rgb(31, 178, 166)"/><text dy="0.35em" transform="rotate(152.11308927049168) translate(366.95) rotate(180)" text-anchor="end" style="font-size: 10px; font-family: &quot;Times New Roman&quot;, Times, serif;">Cote d'Ivoire</text></g><g class="group"><path d="M-343.575,-96.796A356.95,356.95,0,0,1,-340.243,-107.926L-313.024,-99.292A328.394,328.394,0,0,0,-316.089,-89.053Z" fill="rgb(212, 236, 66)" stroke="rgb(148, 165, 46)"/><text dy="0.35em" transform="rotate(196.66672719098966) translate(366.95) rotate(180)" text-anchor="end" style="font-size: 10px; font-family: &quot;Times New Roman&quot;, Times, serif;">Croatia</text></g><g class="group"><path d="M-177.803,-309.515A356.95,356.95,0,0,1,-177.686,-309.582L-163.471,-284.815A328.394,328.394,0,0,0,-163.579,-284.754Z" fill="rgb(236, 40, 247)" stroke="rgb(165, 28, 173)"/><text dy="0.35em" transform="rotate(240.13530032397847) translate(366.95) rotate(180)" text-anchor="end" style="font-size: 10px; font-family: &quot;Times New Roman&quot;, Times, serif;">Curacao</text></g><g class="group"><path d="M-125.744,-334.068L-115.685,-307.343Z" fill="rgb(76, 100, 240)" stroke="rgb(53, 70, 168)"/><text dy="0.35em" transform="rotate(249.37351937528945) translate(366.95) rotate(180)" text-anchor="end" style="font-size: 10px; font-family: &quot;Times New Roman&quot;, Times, serif;">Cyprus</text></g><g class="group"><path d="M-249.319,-255.448A356.95,356.95,0,0,1,-247.26,-257.44L-227.48,-236.845A328.394,328.394,0,0,0,-229.373,-235.012Z" fill="rgb(152, 58, 231)" stroke="rgb(106, 41, 162)"/><text dy="0.35em" transform="rotate(225.92560409094) translate(366.95) rotate(180)" text-anchor="end" style="font-size: 10px; font-family: &quot;Times New Roman&quot;, Times, serif;">DRC</text></g><g class="group"><path d="M-158.471,-319.844A356.95,356.95,0,0,1,-158.469,-319.845L-145.792,-294.257A328.394,328.394,0,0,0,-145.794,-294.256Z" fill="rgb(52, 250, 156)" stroke="rgb(36, 175, 109)"/><text dy="0.35em" transform="rotate(243.64338316235728) translate(366.95) rotate(180)" text-anchor="end" style="font-size: 10px; font-family: &quot;Times New Roman&quot;, Times, serif;">Djibouti</text></g><g class="group"><path d="M-141.609,327.659A356.95,356.95,0,0,1,-185.046,305.24L-170.243,280.82A328.394,328.394,0,0,0,-130.28,301.446Z" fill="rgb(66, 117, 229)" stroke="rgb(46, 82, 160)"/><text dy="0.35em" transform="rotate(117.29939890317877) translate(366.95) rotate(180)" text-anchor="end" style="font-size: 10px; font-family: &quot;Times New Roman&quot;, Times, serif;">Dominican Republic</text></g><g class="group"><path d="M-268.926,-234.717A356.95,356.95,0,0,1,-266.363,-237.622L-245.054,-218.612A328.394,328.394,0,0,0,-247.412,-215.94Z" fill="rgb(56, 255, 133)" stroke="rgb(39, 179, 93)"/><text dy="0.35em" transform="rotate(221.42521157330816) translate(366.95) rotate(180)" text-anchor="end" style="font-size: 10px; font-family: &quot;Times New Roman&quot;, Times, serif;">Egypt</text></g><g class="group"><path d="M-122.397,-335.309L-112.606,-308.484Z" fill="rgb(82, 237, 62)" stroke="rgb(57, 166, 43)"/><text dy="0.35em" transform="rotate(249.94647717042028) translate(366.95) rotate(180)" text-anchor="end" style="font-size: 10px; font-family: &quot;Times New Roman&quot;, Times, serif;">El Salvador</text></g><g class="group"><path d="M-259.052,-245.571A356.95,356.95,0,0,1,-256.541,-248.193L-236.018,-228.338A328.394,328.394,0,0,0,-238.328,-225.926Z" fill="rgb(220, 78, 240)" stroke="rgb(154, 55, 168)"/><text dy="0.35em" transform="rotate(223.76110099141027) translate(366.95) rotate(180)" text-anchor="end" style="font-size: 10px; font-family: &quot;Times New Roman&quot;, Times, serif;">Eritrea</text></g><g class="group"><path d="M-119.038,-336.516L-109.515,-309.595Z" fill="rgb(240, 53, 90)" stroke="rgb(168, 37, 63)"/><text dy="0.35em" transform="rotate(250.51943496555106) translate(366.95) rotate(180)" text-anchor="end" style="font-size: 10px; font-family: &quot;Times New Roman&quot;, Times, serif;">Eswatini</text></g><g class="group"><path d="M-322.831,-152.294A356.95,356.95,0,0,1,-318.82,-160.521L-293.315,-147.679A328.394,328.394,0,0,0,-297.004,-140.111Z" fill="rgb(244, 223, 83)" stroke="rgb(171, 156, 58)"/><text dy="0.35em" transform="rotate(205.98997615770213) translate(366.95) rotate(180)" text-anchor="end" style="font-size: 10px; font-family: &quot;Times New Roman&quot;, Times, serif;">Ethiopia</text></g><g class="group"><path d="M-300.891,-192.037A356.95,356.95,0,0,1,-297.564,-197.152L-273.759,-181.38A328.394,328.394,0,0,0,-276.819,-176.674Z" fill="rgb(249, 57, 81)" stroke="rgb(174, 40, 57)"/><text dy="0.35em" transform="rotate(213.03682520592474) translate(366.95) rotate(180)" text-anchor="end" style="font-size: 10px; font-family: &quot;Times New Roman&quot;, Times, serif;">Fiji</text></g><g class="group"><path d="M-200.424,-295.37A356.95,356.95,0,0,1,-200.157,-295.551L-184.144,-271.907A328.394,328.394,0,0,0,-184.39,-271.74Z" fill="rgb(202, 237, 47)" stroke="rgb(141, 166, 33)"/><text dy="0.35em" transform="rotate(235.86693843045322) translate(366.95) rotate(180)" text-anchor="end" style="font-size: 10px; font-family: &quot;Times New Roman&quot;, Times, serif;">French Guiana</text></g><g class="group"><path d="M-115.667,-337.69L-106.414,-310.675Z" fill="rgb(172, 233, 81)" stroke="rgb(120, 163, 57)"/><text dy="0.35em" transform="rotate(251.0923927606819) translate(366.95) rotate(180)" text-anchor="end" style="font-size: 10px; font-family: &quot;Times New Roman&quot;, Times, serif;">French Guinea</text></g><g class="group"><path d="M-284.49,-215.589A356.95,356.95,0,0,1,-281.315,-219.716L-258.81,-202.139A328.394,328.394,0,0,0,-261.731,-198.342Z" fill="rgb(228, 59, 81)" stroke="rgb(160, 41, 57)"/><text dy="0.35em" transform="rotate(217.5731029937947) translate(366.95) rotate(180)" text-anchor="end" style="font-size: 10px; font-family: &quot;Times New Roman&quot;, Times, serif;">Gabon</text></g><g class="group"><path d="M-112.285,-338.83L-103.302,-311.723Z" fill="rgb(75, 244, 174)" stroke="rgb(53, 171, 122)"/><text dy="0.35em" transform="rotate(251.66535055581267) translate(366.95) rotate(180)" text-anchor="end" style="font-size: 10px; font-family: &quot;Times New Roman&quot;, Times, serif;">Gambia</text></g><g class="group"><path d="M-108.891,-339.935L-100.179,-312.741Z" fill="rgb(112, 83, 230)" stroke="rgb(78, 58, 161)"/><text dy="0.35em" transform="rotate(252.2383083509435) translate(366.95) rotate(180)" text-anchor="end" style="font-size: 10px; font-family: &quot;Times New Roman&quot;, Times, serif;">Georgia</text></g><g class="group"><path d="M-105.486,-341.007L-97.047,-313.727Z" fill="rgb(194, 237, 87)" stroke="rgb(136, 166, 61)"/><text dy="0.35em" transform="rotate(252.81126614607427) translate(366.95) rotate(180)" text-anchor="end" style="font-size: 10px; font-family: &quot;Times New Roman&quot;, Times, serif;">Germany</text></g><g class="group"><path d="M271.719,-231.478A356.95,356.95,0,0,1,350.341,-68.373L322.313,-62.903A328.394,328.394,0,0,0,249.982,-212.96Z" fill="rgb(240, 81, 119)" stroke="rgb(168, 57, 83)"/><text dy="0.35em" transform="rotate(-25.735389768798186) translate(366.95) " text-anchor="start" style="font-size: 10px; font-family: &quot;Times New Roman&quot;, Times, serif;">Ghana</text></g><g class="group"><path d="M-351.024,-64.775A356.95,356.95,0,0,1,-348.313,-78.046L-320.448,-71.802A328.394,328.394,0,0,0,-322.942,-59.593Z" fill="rgb(70, 245, 211)" stroke="rgb(49, 172, 148)"/><text dy="0.35em" transform="rotate(191.54240910750917) translate(366.95) rotate(180)" text-anchor="end" style="font-size: 10px; font-family: &quot;Times New Roman&quot;, Times, serif;">Greece</text></g><g class="group"><path d="M-102.071,-342.045L-93.905,-314.682Z" fill="rgb(103, 233, 77)" stroke="rgb(72, 163, 54)"/><text dy="0.35em" transform="rotate(253.3842239412051) translate(366.95) rotate(180)" text-anchor="end" style="font-size: 10px; font-family: &quot;Times New Roman&quot;, Times, serif;">Guinea</text></g><g class="group"><path d="M-98.645,-343.049L-90.754,-315.605Z" fill="rgb(211, 53, 254)" stroke="rgb(148, 37, 178)"/><text dy="0.35em" transform="rotate(253.95718173633594) translate(366.95) rotate(180)" text-anchor="end" style="font-size: 10px; font-family: &quot;Times New Roman&quot;, Times, serif;">Guyana</text></g><g class="group"><path d="M-95.21,-344.018L-87.593,-316.497Z" fill="rgb(190, 242, 57)" stroke="rgb(133, 169, 40)"/><text dy="0.35em" transform="rotate(254.53013953146672) translate(366.95) rotate(180)" text-anchor="end" style="font-size: 10px; font-family: &quot;Times New Roman&quot;, Times, serif;">Haiti</text></g><g class="group"><path d="M-290.048,-208.051A356.95,356.95,0,0,1,-286.631,-212.734L-263.701,-195.715A328.394,328.394,0,0,0,-266.844,-191.407Z" fill="rgb(148, 240, 59)" stroke="rgb(104, 168, 41)"/><text dy="0.35em" transform="rotate(216.1170683530775) translate(366.95) rotate(180)" text-anchor="end" style="font-size: 10px; font-family: &quot;Times New Roman&quot;, Times, serif;">Honduras</text></g><g class="group"><path d="M-91.765,-344.953L-84.424,-317.357Z" fill="rgb(52, 253, 148)" stroke="rgb(36, 177, 104)"/><text dy="0.35em" transform="rotate(255.10309732659755) translate(366.95) rotate(180)" text-anchor="end" style="font-size: 10px; font-family: &quot;Times New Roman&quot;, Times, serif;">India</text></g><g class="group"><path d="M-355.875,-27.686A356.95,356.95,0,0,1,-354.306,-43.367L-325.961,-39.898A328.394,328.394,0,0,0,-327.405,-25.472Z" fill="rgb(249, 58, 209)" stroke="rgb(174, 41, 146)"/><text dy="0.35em" transform="rotate(185.71346201685532) translate(366.95) rotate(180)" text-anchor="end" style="font-size: 10px; font-family: &quot;Times New Roman&quot;, Times, serif;">Indonesia</text></g><g class="group"><path d="M334.112,125.628A356.95,356.95,0,0,1,300.987,191.886L276.908,176.535A328.394,328.394,0,0,0,307.383,115.577Z" fill="rgb(94, 175, 234)" stroke="rgb(66, 122, 164)"/><text dy="0.35em" transform="rotate(26.562481352486003) translate(366.95) " text-anchor="start" style="font-size: 10px; font-family: &quot;Times New Roman&quot;, Times, serif;">Iran</text></g><g class="group"><path d="M-317.199,-163.701A356.95,356.95,0,0,1,-313.308,-171.03L-288.243,-157.348A328.394,328.394,0,0,0,-291.823,-150.605Z" fill="rgb(39, 251, 106)" stroke="rgb(27, 176, 74)"/><text dy="0.35em" transform="rotate(207.96348504465783) translate(366.95) rotate(180)" text-anchor="end" style="font-size: 10px; font-family: &quot;Times New Roman&quot;, Times, serif;">Iraq</text></g><g class="group"><path d="M-88.311,-345.853L-81.246,-318.185Z" fill="rgb(215, 77, 238)" stroke="rgb(151, 54, 167)"/><text dy="0.35em" transform="rotate(255.67605512172833) translate(366.95) rotate(180)" text-anchor="end" style="font-size: 10px; font-family: &quot;Times New Roman&quot;, Times, serif;">Italy</text></g><g class="group"><path d="M-155.263,-321.414A356.95,356.95,0,0,1,-155.261,-321.415L-142.84,-295.701A328.394,328.394,0,0,0,-142.842,-295.701Z" fill="rgb(242, 42, 76)" stroke="rgb(169, 29, 53)"/><text dy="0.35em" transform="rotate(244.21671802893593) translate(366.95) rotate(180)" text-anchor="end" style="font-size: 10px; font-family: &quot;Times New Roman&quot;, Times, serif;">Jamaica</text></g><g class="group"><path d="M-203.669,-293.142A356.95,356.95,0,0,1,-203.368,-293.351L-187.099,-269.883A328.394,328.394,0,0,0,-187.375,-269.691Z" fill="rgb(142, 253, 77)" stroke="rgb(99, 177, 54)"/><text dy="0.35em" transform="rotate(235.2386441760999) translate(366.95) rotate(180)" text-anchor="end" style="font-size: 10px; font-family: &quot;Times New Roman&quot;, Times, serif;">Jordan</text></g><g class="group"><path d="M-279.104,-222.518A356.95,356.95,0,0,1,-276.342,-225.939L-254.235,-207.864A328.394,328.394,0,0,0,-256.776,-204.717Z" fill="rgb(243, 173, 56)" stroke="rgb(170, 121, 39)"/><text dy="0.35em" transform="rotate(218.91675075494067) translate(366.95) rotate(180)" text-anchor="end" style="font-size: 10px; font-family: &quot;Times New Roman&quot;, Times, serif;">Kenya</text></g><g class="group"><path d="M-84.848,-346.719L-78.06,-318.982Z" fill="rgb(213, 50, 249)" stroke="rgb(149, 35, 174)"/><text dy="0.35em" transform="rotate(256.24901291685916) translate(366.95) rotate(180)" text-anchor="end" style="font-size: 10px; font-family: &quot;Times New Roman&quot;, Times, serif;">Kosovo</text></g><g class="group"><path d="M19.931,356.393A356.95,356.95,0,0,1,-34.128,355.315L-31.398,326.89A328.394,328.394,0,0,0,18.337,327.882Z" fill="rgb(242, 65, 244)" stroke="rgb(169, 46, 171)"/><text dy="0.35em" transform="rotate(91.14276494048931) translate(366.95) rotate(180)" text-anchor="end" style="font-size: 10px; font-family: &quot;Times New Roman&quot;, Times, serif;">Kuwait</text></g><g class="group"><path d="M-81.377,-347.55L-74.866,-319.746Z" fill="rgb(239, 51, 47)" stroke="rgb(167, 36, 33)"/><text dy="0.35em" transform="rotate(256.82197071198993) translate(366.95) rotate(180)" text-anchor="end" style="font-size: 10px; font-family: &quot;Times New Roman&quot;, Times, serif;">Laos</text></g><g class="group"><path d="M-77.897,-348.347L-71.665,-320.479Z" fill="rgb(143, 96, 233)" stroke="rgb(100, 67, 163)"/><text dy="0.35em" transform="rotate(257.39492850712077) translate(366.95) rotate(180)" text-anchor="end" style="font-size: 10px; font-family: &quot;Times New Roman&quot;, Times, serif;">Liberia</text></g><g class="group"><path d="M-286.704,212.637A356.95,356.95,0,0,1,-305.599,184.452L-281.151,169.696A328.394,328.394,0,0,0,-263.767,195.626Z" fill="rgb(240, 77, 215)" stroke="rgb(168, 54, 151)"/><text dy="0.35em" transform="rotate(146.16154027066955) translate(366.95) rotate(180)" text-anchor="end" style="font-size: 10px; font-family: &quot;Times New Roman&quot;, Times, serif;">Libya</text></g><g class="group"><path d="M-224.412,-277.583A356.95,356.95,0,0,1,-223.557,-278.272L-205.673,-256.011A328.394,328.394,0,0,0,-206.459,-255.376Z" fill="rgb(242, 186, 81)" stroke="rgb(169, 130, 57)"/><text dy="0.35em" transform="rotate(231.13430364405144) translate(366.95) rotate(180)" text-anchor="end" style="font-size: 10px; font-family: &quot;Times New Roman&quot;, Times, serif;">Madagascar</text></g><g class="group"><path d="M-74.41,-349.108L-68.457,-321.179Z" fill="rgb(52, 234, 159)" stroke="rgb(36, 164, 111)"/><text dy="0.35em" transform="rotate(257.9678863022516) translate(366.95) rotate(180)" text-anchor="end" style="font-size: 10px; font-family: &quot;Times New Roman&quot;, Times, serif;">Malawi</text></g><g class="group"><path d="M-227.637,274.945A356.95,356.95,0,0,1,-258.83,245.805L-238.124,226.141A328.394,328.394,0,0,0,-209.426,252.949Z" fill="rgb(208, 237, 53)" stroke="rgb(146, 166, 37)"/><text dy="0.35em" transform="rotate(133.05056489496187) translate(366.95) rotate(180)" text-anchor="end" style="font-size: 10px; font-family: &quot;Times New Roman&quot;, Times, serif;">Malaysia</text></g><g class="group"><path d="M-70.915,-349.835L-65.242,-321.848Z" fill="rgb(71, 255, 219)" stroke="rgb(50, 179, 153)"/><text dy="0.35em" transform="rotate(258.5408440973824) translate(366.95) rotate(180)" text-anchor="end" style="font-size: 10px; font-family: &quot;Times New Roman&quot;, Times, serif;">Mali</text></g><g class="group"><path d="M-67.413,-350.526L-62.02,-322.484Z" fill="rgb(243, 51, 157)" stroke="rgb(170, 36, 110)"/><text dy="0.35em" transform="rotate(259.1138018925132) translate(366.95) rotate(180)" text-anchor="end" style="font-size: 10px; font-family: &quot;Times New Roman&quot;, Times, serif;">Malta</text></g><g class="group"><path d="M-328.575,-139.469A356.95,356.95,0,0,1,-324.338,-149.058L-298.391,-137.134A328.394,328.394,0,0,0,-302.289,-128.312Z" fill="rgb(74, 249, 187)" stroke="rgb(52, 174, 131)"/><text dy="0.35em" transform="rotate(203.84105069501112) translate(366.95) rotate(180)" text-anchor="end" style="font-size: 10px; font-family: &quot;Times New Roman&quot;, Times, serif;">Mauritania</text></g><g class="group"><path d="M-181.011,-307.65A356.95,356.95,0,0,1,-180.889,-307.721L-166.418,-283.104A328.394,328.394,0,0,0,-166.53,-283.038Z" fill="rgb(234, 100, 52)" stroke="rgb(164, 70, 36)"/><text dy="0.35em" transform="rotate(239.5401638718726) translate(366.95) rotate(180)" text-anchor="end" style="font-size: 10px; font-family: &quot;Times New Roman&quot;, Times, serif;">Mauritius</text></g><g class="group"><path d="M-235.659,-268.101A356.95,356.95,0,0,1,-234.465,-269.146L-215.708,-247.614A328.394,328.394,0,0,0,-216.806,-246.653Z" fill="rgb(38, 143, 250)" stroke="rgb(27, 100, 175)"/><text dy="0.35em" transform="rotate(228.81202779560834) translate(366.95) rotate(180)" text-anchor="end" style="font-size: 10px; font-family: &quot;Times New Roman&quot;, Times, serif;">Mayotte</text></g><g class="group"><path d="M-63.905,-351.183L-58.792,-323.088Z" fill="rgb(91, 234, 100)" stroke="rgb(64, 164, 70)"/><text dy="0.35em" transform="rotate(259.686759687644) translate(366.95) rotate(180)" text-anchor="end" style="font-size: 10px; font-family: &quot;Times New Roman&quot;, Times, serif;">Mexico</text></g><g class="group"><path d="M-206.938,-290.843A356.95,356.95,0,0,1,-206.59,-291.091L-190.063,-267.804A328.394,328.394,0,0,0,-190.383,-267.576Z" fill="rgb(233, 180, 92)" stroke="rgb(163, 126, 64)"/><text dy="0.35em" transform="rotate(234.60202496770438) translate(366.95) rotate(180)" text-anchor="end" style="font-size: 10px; font-family: &quot;Times New Roman&quot;, Times, serif;">Mongolia</text></g><g class="group"><path d="M-60.39,-351.804L-55.558,-323.66Z" fill="rgb(234, 196, 78)" stroke="rgb(164, 137, 55)"/><text dy="0.35em" transform="rotate(260.2597174827748) translate(366.95) rotate(180)" text-anchor="end" style="font-size: 10px; font-family: &quot;Times New Roman&quot;, Times, serif;">Morocco</text></g><g class="group"><path d="M-56.869,-352.391L-52.319,-324.2Z" fill="rgb(240, 80, 196)" stroke="rgb(168, 56, 137)"/><text dy="0.35em" transform="rotate(260.8326752779056) translate(366.95) rotate(180)" text-anchor="end" style="font-size: 10px; font-family: &quot;Times New Roman&quot;, Times, serif;">Mozambique</text></g><g class="group"><path d="M351.007,-64.866A356.95,356.95,0,0,1,355.251,34.784L326.831,32.001A328.394,328.394,0,0,0,322.926,-59.677Z" fill="rgb(230, 89, 59)" stroke="rgb(161, 62, 41)"/><text dy="0.35em" transform="rotate(-2.438975314954803) translate(366.95) " text-anchor="start" style="font-size: 10px; font-family: &quot;Times New Roman&quot;, Times, serif;">Myanmar</text></g><g class="group"><path d="M-171.341,-313.138A356.95,356.95,0,0,1,-171.227,-313.2L-157.529,-288.144A328.394,328.394,0,0,0,-157.634,-288.087Z" fill="rgb(245, 78, 138)" stroke="rgb(172, 55, 97)"/><text dy="0.35em" transform="rotate(241.32404045724013) translate(366.95) rotate(180)" text-anchor="end" style="font-size: 10px; font-family: &quot;Times New Roman&quot;, Times, serif;">Namibia</text></g><g class="group"><path d="M-53.342,-352.942L-49.075,-324.706Z" fill="rgb(170, 81, 245)" stroke="rgb(119, 57, 172)"/><text dy="0.35em" transform="rotate(261.4056330730364) translate(366.95) rotate(180)" text-anchor="end" style="font-size: 10px; font-family: &quot;Times New Roman&quot;, Times, serif;">Nepal</text></g><g class="group"><path d="M-49.81,-353.458L-45.825,-325.181Z" fill="rgb(68, 94, 230)" stroke="rgb(48, 66, 161)"/><text dy="0.35em" transform="rotate(261.97859086816726) translate(366.95) rotate(180)" text-anchor="end" style="font-size: 10px; font-family: &quot;Times New Roman&quot;, Times, serif;">Netherlands</text></g><g class="group"><path d="M-228.091,-274.568A356.95,356.95,0,0,1,-227.177,-275.325L-209.003,-253.299A328.394,328.394,0,0,0,-209.844,-252.603Z" fill="rgb(255, 53, 80)" stroke="rgb(179, 37, 56)"/><text dy="0.35em" transform="rotate(230.37790793511408) translate(366.95) rotate(180)" text-anchor="end" style="font-size: 10px; font-family: &quot;Times New Roman&quot;, Times, serif;">Niger</text></g><g class="group"><path d="M0,-356.95A356.95,356.95,0,0,1,269.391,-234.183L247.84,-215.449A328.394,328.394,0,0,0,0,-328.394Z" fill="rgb(248, 122, 60)" stroke="rgb(174, 85, 42)"/><text dy="0.35em" transform="rotate(-65.50033604385067) translate(366.95) " text-anchor="start" style="font-size: 10px; font-family: &quot;Times New Roman&quot;, Times, serif;">Nigeria</text></g><g class="group"><path d="M-46.273,-353.938L-42.571,-325.623Z" fill="rgb(247, 174, 52)" stroke="rgb(173, 122, 36)"/><text dy="0.35em" transform="rotate(262.55154866329804) translate(366.95) rotate(180)" text-anchor="end" style="font-size: 10px; font-family: &quot;Times New Roman&quot;, Times, serif;">North Macedonia</text></g><g class="group"><path d="M-324.397,148.93A356.95,356.95,0,0,1,-336.591,118.826L-309.664,109.32A328.394,328.394,0,0,0,-298.445,137.015Z" fill="rgb(58, 234, 228)" stroke="rgb(41, 164, 160)"/><text dy="0.35em" transform="rotate(157.9479273116724) translate(366.95) rotate(180)" text-anchor="end" style="font-size: 10px; font-family: &quot;Times New Roman&quot;, Times, serif;">Pakistan</text></g><g class="group"><path d="M-334.148,-125.533A356.95,356.95,0,0,1,-329.953,-136.177L-303.557,-125.283A328.394,328.394,0,0,0,-307.416,-115.491Z" fill="rgb(232, 196, 78)" stroke="rgb(162, 137, 55)"/><text dy="0.35em" transform="rotate(201.50848654021024) translate(366.95) rotate(180)" text-anchor="end" style="font-size: 10px; font-family: &quot;Times New Roman&quot;, Times, serif;">Republic of Congo</text></g><g class="group"><path d="M-231.762,-271.477A356.95,356.95,0,0,1,-230.826,-272.273L-212.36,-250.492A328.394,328.394,0,0,0,-213.221,-249.759Z" fill="rgb(44, 240, 142)" stroke="rgb(31, 168, 99)"/><text dy="0.35em" transform="rotate(229.6109836078291) translate(366.95) rotate(180)" text-anchor="end" style="font-size: 10px; font-family: &quot;Times New Roman&quot;, Times, serif;">Russia</text></g><g class="group"><path d="M-213.672,-285.933A356.95,356.95,0,0,1,-213.081,-286.374L-196.034,-263.464A328.394,328.394,0,0,0,-196.578,-263.058Z" fill="rgb(245, 149, 71)" stroke="rgb(172, 104, 50)"/><text dy="0.35em" transform="rotate(233.2891597696718) translate(366.95) rotate(180)" text-anchor="end" style="font-size: 10px; font-family: &quot;Times New Roman&quot;, Times, serif;">Rwanda</text></g><g class="group"><path d="M354.886,38.334A356.95,356.95,0,0,1,335.352,122.28L308.524,112.498A328.394,328.394,0,0,0,326.495,35.268Z" fill="rgb(115, 47, 242)" stroke="rgb(81, 33, 169)"/><text dy="0.35em" transform="rotate(13.099311629186616) translate(366.95) " text-anchor="start" style="font-size: 10px; font-family: &quot;Times New Roman&quot;, Times, serif;">Saudi Arabia</text></g><g class="group"><path d="M-295.578,-200.117A356.95,356.95,0,0,1,-292.114,-205.141L-268.745,-188.729A328.394,328.394,0,0,0,-271.932,-184.108Z" fill="rgb(253, 184, 36)" stroke="rgb(177, 129, 25)"/><text dy="0.35em" transform="rotate(214.58918935897515) translate(366.95) rotate(180)" text-anchor="end" style="font-size: 10px; font-family: &quot;Times New Roman&quot;, Times, serif;">Senegal</text></g><g class="group"><path d="M192.529,300.576A356.95,356.95,0,0,1,139.997,328.351L128.797,302.083A328.394,328.394,0,0,0,177.127,276.53Z" fill="rgb(66, 228, 236)" stroke="rgb(46, 160, 165)"/><text dy="0.35em" transform="rotate(62.13368831286783) translate(366.95) " text-anchor="start" style="font-size: 10px; font-family: &quot;Times New Roman&quot;, Times, serif;">Serbia</text></g><g class="group"><path d="M-244.674,-259.9A356.95,356.95,0,0,1,-242.623,-261.816L-223.213,-240.871A328.394,328.394,0,0,0,-225.1,-239.108Z" fill="rgb(241, 64, 134)" stroke="rgb(169, 45, 94)"/><text dy="0.35em" transform="rotate(226.953740990914) translate(366.95) rotate(180)" text-anchor="end" style="font-size: 10px; font-family: &quot;Times New Roman&quot;, Times, serif;">Sierra Leone</text></g><g class="group"><path d="M-164.865,-316.596A356.95,356.95,0,0,1,-164.847,-316.605L-151.659,-291.277A328.394,328.394,0,0,0,-151.675,-291.268Z" fill="rgb(243, 82, 119)" stroke="rgb(170, 57, 83)"/><text dy="0.35em" transform="rotate(242.49372134277667) translate(366.95) rotate(180)" text-anchor="end" style="font-size: 10px; font-family: &quot;Times New Roman&quot;, Times, serif;">Solomon Islands</text></g><g class="group"><path d="M-42.731,-354.383L-39.313,-326.032Z" fill="rgb(242, 74, 173)" stroke="rgb(169, 52, 121)"/><text dy="0.35em" transform="rotate(263.1245064584289) translate(366.95) rotate(180)" text-anchor="end" style="font-size: 10px; font-family: &quot;Times New Roman&quot;, Times, serif;">Somalia</text></g><g class="group"><path d="M-188.089,303.374A356.95,356.95,0,0,1,-224.876,277.207L-206.886,255.031A328.394,328.394,0,0,0,-173.042,279.104Z" fill="rgb(188, 231, 61)" stroke="rgb(132, 162, 43)"/><text dy="0.35em" transform="rotate(125.42412818542968) translate(366.95) rotate(180)" text-anchor="end" style="font-size: 10px; font-family: &quot;Times New Roman&quot;, Times, serif;">South Africa</text></g><g class="group"><path d="M-190.674,-301.756A356.95,356.95,0,0,1,-190.442,-301.903L-175.206,-277.75A328.394,328.394,0,0,0,-175.42,-277.616Z" fill="rgb(218, 76, 250)" stroke="rgb(153, 53, 175)"/><text dy="0.35em" transform="rotate(237.73401558592604) translate(366.95) rotate(180)" text-anchor="end" style="font-size: 10px; font-family: &quot;Times New Roman&quot;, Times, serif;">Spain</text></g><g class="group"><path d="M-90.701,345.234A356.95,356.95,0,0,1,-138.325,329.059L-127.259,302.734A328.394,328.394,0,0,0,-83.445,317.615Z" fill="rgb(236, 80, 239)" stroke="rgb(165, 56, 167)"/><text dy="0.35em" transform="rotate(108.7602338205742) translate(366.95) rotate(180)" text-anchor="end" style="font-size: 10px; font-family: &quot;Times New Roman&quot;, Times, serif;">Sri Lanka</text></g><g class="group"><path d="M-39.185,-354.793L-36.051,-326.409Z" fill="rgb(239, 220, 82)" stroke="rgb(167, 154, 57)"/><text dy="0.35em" transform="rotate(263.69746425355976) translate(366.95) rotate(180)" text-anchor="end" style="font-size: 10px; font-family: &quot;Times New Roman&quot;, Times, serif;">Sudan</text></g><g class="group"><path d="M-193.938,-299.669A356.95,356.95,0,0,1,-193.682,-299.834L-178.187,-275.848A328.394,328.394,0,0,0,-178.423,-275.695Z" fill="rgb(248, 41, 114)" stroke="rgb(174, 29, 80)"/><text dy="0.35em" transform="rotate(237.11453598879405) translate(366.95) rotate(180)" text-anchor="end" style="font-size: 10px; font-family: &quot;Times New Roman&quot;, Times, serif;">Suriname</text></g><g class="group"><path d="M-35.636,-355.167L-32.785,-326.753Z" fill="rgb(246, 37, 189)" stroke="rgb(172, 26, 132)"/><text dy="0.35em" transform="rotate(264.27042204869053) translate(366.95) rotate(180)" text-anchor="end" style="font-size: 10px; font-family: &quot;Times New Roman&quot;, Times, serif;">Syria</text></g><g class="group"><path d="M-337.763,115.454A356.95,356.95,0,0,1,-346.253,86.732L-318.552,79.794A328.394,328.394,0,0,0,-310.742,106.218Z" fill="rgb(238, 164, 78)" stroke="rgb(167, 115, 55)"/><text dy="0.35em" transform="rotate(163.5330020404883) translate(366.95) rotate(180)" text-anchor="end" style="font-size: 10px; font-family: &quot;Times New Roman&quot;, Times, serif;">Tanzania</text></g><g class="group"><path d="M-274.069,-228.691A356.95,356.95,0,0,1,-271.26,-232.016L-249.559,-213.455A328.394,328.394,0,0,0,-252.144,-210.395Z" fill="rgb(150, 55, 251)" stroke="rgb(105, 39, 176)"/><text dy="0.35em" transform="rotate(220.19191597502487) translate(366.95) rotate(180)" text-anchor="end" style="font-size: 10px; font-family: &quot;Times New Roman&quot;, Times, serif;">Thailand</text></g><g class="group"><path d="M-347.515,-81.525A356.95,356.95,0,0,1,-344.526,-93.356L-316.964,-85.887A328.394,328.394,0,0,0,-319.714,-75.003Z" fill="rgb(249, 227, 55)" stroke="rgb(174, 159, 39)"/><text dy="0.35em" transform="rotate(194.18191431785021) translate(366.95) rotate(180)" text-anchor="end" style="font-size: 10px; font-family: &quot;Times New Roman&quot;, Times, serif;">Timor Leste</text></g><g class="group"><path d="M-32.082,-355.505L-29.516,-327.065Z" fill="rgb(165, 230, 74)" stroke="rgb(115, 161, 52)"/><text dy="0.35em" transform="rotate(264.84337984382137) translate(366.95) rotate(180)" text-anchor="end" style="font-size: 10px; font-family: &quot;Times New Roman&quot;, Times, serif;">Togo</text></g><g class="group"><path d="M-161.673,-318.238A356.95,356.95,0,0,1,-161.662,-318.243L-148.729,-292.784A328.394,328.394,0,0,0,-148.739,-292.779Z" fill="rgb(81, 246, 142)" stroke="rgb(57, 172, 99)"/><text dy="0.35em" transform="rotate(243.06925007959705) translate(366.95) rotate(180)" text-anchor="end" style="font-size: 10px; font-family: &quot;Times New Roman&quot;, Times, serif;">Tonga</text></g><g class="group"><path d="M-28.526,-355.808L-26.244,-327.344Z" fill="rgb(67, 223, 245)" stroke="rgb(47, 156, 172)"/><text dy="0.35em" transform="rotate(265.41633763895214) translate(366.95) rotate(180)" text-anchor="end" style="font-size: 10px; font-family: &quot;Times New Roman&quot;, Times, serif;">Tunesia</text></g><g class="group"><path d="M-24.966,-356.076L-22.969,-327.59Z" fill="rgb(234, 205, 96)" stroke="rgb(164, 144, 67)"/><text dy="0.35em" transform="rotate(265.989295434083) translate(366.95) rotate(180)" text-anchor="end" style="font-size: 10px; font-family: &quot;Times New Roman&quot;, Times, serif;">Tunisia</text></g><g class="group"><path d="M-239.992,-264.229A356.95,356.95,0,0,1,-238.328,-265.731L-219.262,-244.472A328.394,328.394,0,0,0,-220.793,-243.091Z" fill="rgb(189, 69, 253)" stroke="rgb(132, 48, 177)"/><text dy="0.35em" transform="rotate(227.93185471115714) translate(366.95) rotate(180)" text-anchor="end" style="font-size: 10px; font-family: &quot;Times New Roman&quot;, Times, serif;">Turkey</text></g><g class="group"><path d="M-174.581,-311.343A356.95,356.95,0,0,1,-174.464,-311.409L-160.507,-286.496A328.394,328.394,0,0,0,-160.615,-286.436Z" fill="rgb(117, 248, 62)" stroke="rgb(82, 174, 43)"/><text dy="0.35em" transform="rotate(240.729863823365) translate(366.95) rotate(180)" text-anchor="end" style="font-size: 10px; font-family: &quot;Times New Roman&quot;, Times, serif;">Turks and Caicos Islands</text></g><g class="group"><path d="M-339.147,-111.323A356.95,356.95,0,0,1,-335.386,-122.186L-308.555,-112.411A328.394,328.394,0,0,0,-312.015,-102.417Z" fill="rgb(169, 248, 65)" stroke="rgb(118, 174, 46)"/><text dy="0.35em" transform="rotate(199.09473449536972) translate(366.95) rotate(180)" text-anchor="end" style="font-size: 10px; font-family: &quot;Times New Roman&quot;, Times, serif;">Uganda</text></g><g class="group"><path d="M77.796,348.369A356.95,356.95,0,0,1,23.494,356.176L21.614,327.682A328.394,328.394,0,0,0,71.573,320.5Z" fill="rgb(166, 65, 253)" stroke="rgb(116, 46, 177)"/><text dy="0.35em" transform="rotate(81.81881133734743) translate(366.95) " text-anchor="start" style="font-size: 10px; font-family: &quot;Times New Roman&quot;, Times, serif;">Ukraine</text></g><g class="group"><path d="M-168.087,-314.897A356.95,356.95,0,0,1,-168.022,-314.931L-154.581,-289.737A328.394,328.394,0,0,0,-154.64,-289.705Z" fill="rgb(57, 217, 235)" stroke="rgb(40, 152, 165)"/><text dy="0.35em" transform="rotate(241.9132955741668) translate(366.95) rotate(180)" text-anchor="end" style="font-size: 10px; font-family: &quot;Times New Roman&quot;, Times, serif;">United Arab Emirates</text></g><g class="group"><path d="M-21.404,-356.308L-19.692,-327.803Z" fill="rgb(81, 130, 241)" stroke="rgb(57, 91, 169)"/><text dy="0.35em" transform="rotate(266.5622532292138) translate(366.95) rotate(180)" text-anchor="end" style="font-size: 10px; font-family: &quot;Times New Roman&quot;, Times, serif;">United Kingdom</text></g><g class="group"><path d="M250.088,254.695A356.95,356.95,0,0,1,195.525,298.636L179.883,274.745A328.394,328.394,0,0,0,230.081,234.319Z" fill="rgb(57, 254, 138)" stroke="rgb(40, 178, 97)"/><text dy="0.35em" transform="rotate(51.154537964841865) translate(366.95) " text-anchor="start" style="font-size: 10px; font-family: &quot;Times New Roman&quot;, Times, serif;">United States</text></g><g class="group"><path d="M-17.84,-356.504L-16.413,-327.984Z" fill="rgb(73, 160, 240)" stroke="rgb(51, 112, 168)"/><text dy="0.35em" transform="rotate(267.1352110243446) translate(366.95) rotate(180)" text-anchor="end" style="font-size: 10px; font-family: &quot;Times New Roman&quot;, Times, serif;">Venezuela</text></g><g class="group"><path d="M-352.861,53.875A356.95,356.95,0,0,1,-355.865,27.805L-327.396,25.58A328.394,328.394,0,0,0,-324.632,49.565Z" fill="rgb(159, 62, 229)" stroke="rgb(111, 43, 160)"/><text dy="0.35em" transform="rotate(173.4257166825173) translate(366.95) rotate(180)" text-anchor="end" style="font-size: 10px; font-family: &quot;Times New Roman&quot;, Times, serif;">Vietnam</text></g><g class="group"><path d="M-14.274,-356.664L-13.132,-328.131Z" fill="rgb(191, 240, 87)" stroke="rgb(134, 168, 61)"/><text dy="0.35em" transform="rotate(267.7081688194754) translate(366.95) rotate(180)" text-anchor="end" style="font-size: 10px; font-family: &quot;Times New Roman&quot;, Times, serif;">Yemen</text></g><g class="group"><path d="M-10.707,-356.789L-9.85,-328.246Z" fill="rgb(237, 59, 204)" stroke="rgb(166, 41, 143)"/><text dy="0.35em" transform="rotate(268.2811266146062) translate(366.95) rotate(180)" text-anchor="end" style="font-size: 10px; font-family: &quot;Times New Roman&quot;, Times, serif;">Zaire</text></g><g class="group"><path d="M-184.209,-305.745A356.95,356.95,0,0,1,-184.079,-305.824L-169.352,-281.358A328.394,328.394,0,0,0,-169.473,-281.286Z" fill="rgb(243, 191, 80)" stroke="rgb(170, 134, 56)"/><text dy="0.35em" transform="rotate(238.9435925894524) translate(366.95) rotate(180)" text-anchor="end" style="font-size: 10px; font-family: &quot;Times New Roman&quot;, Times, serif;">Zambia</text></g><g class="group"><path d="M-7.139,-356.879L-6.567,-328.328Z" fill="rgb(229, 44, 238)" stroke="rgb(160, 31, 167)"/><text dy="0.35em" transform="rotate(268.854084409737) translate(366.95) rotate(180)" text-anchor="end" style="font-size: 10px; font-family: &quot;Times New Roman&quot;, Times, serif;">Zimbabwe</text></g><g class="group"><path d="M-3.569,-356.932L-3.284,-328.378Z" fill="rgb(139, 237, 93)" stroke="rgb(97, 166, 65)"/><text dy="0.35em" transform="rotate(269.4270422048678) translate(366.95) rotate(180)" text-anchor="end" style="font-size: 10px; font-family: &quot;Times New Roman&quot;, Times, serif;">various</text></g></g><g class="chords" fill-opacity="0.75"><path class="chord" d="M251.0432993821008,-211.7070642925004A328.394,328.394,0,0,1,315.3082168257357,-91.7787973236457Q0,0,-3.2838852679481927,-328.3775804368303Q0,0,251.0432993821008,-211.7070642925004Z" fill="rgb(240, 81, 119)" stroke="rgb(168, 57, 83)"/><path class="chord" d="M111.64173508606756,-308.8344900152383A328.394,328.394,0,0,1,203.98152864413566,-257.35997203916867Q0,0,316.21022422311916,-88.62117880486993A328.394,328.394,0,0,1,321.99197874874983,-64.52739617762866Q0,0,111.64173508606756,-308.8344900152383Z" fill="rgb(248, 122, 60)" stroke="rgb(174, 85, 42)"/><path class="chord" d="M1.6419631584668704,-328.38989508355195A328.394,328.394,0,0,1,108.54785961783581,-309.935447163416Q0,0,-3.2838852679481927,-328.3775804368303Q0,0,1.6419631584668704,-328.38989508355195Z" fill="rgb(248, 122, 60)" stroke="rgb(174, 85, 42)"/><path class="chord" d="M326.3143271340564,36.8995818817508A328.394,328.394,0,0,1,312.10586474217575,102.13984741294016Q0,0,-13.132257410893189,-328.1313198268249Q0,0,326.3143271340564,36.8995818817508Z" fill="rgb(115, 47, 242)" stroke="rgb(81, 33, 169)"/><path class="chord" d="M306.80156623236354,117.1128438445957A328.394,328.394,0,0,1,277.7869274304046,175.1486288406938Q0,0,-199.1990075441937,-261.0792497105204Q0,0,306.80156623236354,117.1128438445957Z" fill="rgb(94, 175, 234)" stroke="rgb(66, 122, 164)"/><path class="chord" d="M228.90608443625348,235.46682089853508A328.394,328.394,0,0,1,181.2544880720642,273.8419795972377Q0,0,-58.792237735606676,-323.08836564946114Q0,0,228.90608443625348,235.46682089853508Z" fill="rgb(57, 254, 138)" stroke="rgb(40, 178, 97)"/><path class="chord" d="M323.2205358371771,-58.06121294916335A328.394,328.394,0,0,1,328.2738150181765,-8.883783507720933Q0,0,-250.04946197723783,212.87997980292533A328.394,328.394,0,0,1,-254.71794161630928,207.27129433365937Q0,0,323.2205358371771,-58.06121294916335Z" fill="rgb(230, 89, 59)" stroke="rgb(161, 62, 41)"/><path class="chord" d="M274.2286328468274,180.66896845601335A328.394,328.394,0,0,1,243.31207750712,220.54897908439574Q0,0,-228.6690285423086,-235.697039908262Q0,0,274.2286328468274,180.66896845601335Z" fill="rgb(239, 145, 47)" stroke="rgb(167, 102, 33)"/><path class="chord" d="M175.74176390618933,277.41206112053095A328.394,328.394,0,0,1,130.30622234314194,301.4347485852612Q0,0,-78.06011630291852,-318.98156291355593Q0,0,175.74176390618933,277.41206112053095Z" fill="rgb(66, 228, 236)" stroke="rgb(46, 160, 165)"/><path class="chord" d="M69.96931551377365,320.85341532003986A328.394,328.394,0,0,1,23.252588334095854,327.5697427598665Q0,0,-212.35965855476474,-250.49150615241174Q0,0,69.96931551377365,320.85341532003986Z" fill="rgb(166, 65, 253)" stroke="rgb(116, 46, 177)"/><path class="chord" d="M-36.29738991312778,326.3818602825445A328.394,328.394,0,0,1,-78.67135761556175,318.8313609526585Q0,0,-219.2620854196896,-244.47240566863314Q0,0,-36.29738991312778,326.3818602825445Z" fill="rgb(251, 64, 149)" stroke="rgb(176, 45, 104)"/><path class="chord" d="M-85.03182598758121,317.19427454671643A328.394,328.394,0,0,1,-125.74373555506924,303.36633334082546Q0,0,-84.4237107580783,-317.35667047950375Q0,0,-85.03182598758121,317.19427454671643Z" fill="rgb(236, 80, 239)" stroke="rgb(165, 56, 167)"/><path class="chord" d="M-131.78550983270023,300.79095504043215A328.394,328.394,0,0,1,-168.83629353353138,281.66811182996776Q0,0,-87.59300341999783,-316.49657974117866Q0,0,-131.78550983270023,300.79095504043215Z" fill="rgb(66, 117, 229)" stroke="rgb(46, 82, 160)"/><path class="chord" d="M-174.43551408701285,278.2352793252494A328.394,328.394,0,0,1,-205.3019938427986,256.30784334501254Q0,0,-52.31914314288542,-324.1995164968545Q0,0,-174.43551408701285,278.2352793252494Z" fill="rgb(188, 231, 61)" stroke="rgb(132, 162, 43)"/><path class="chord" d="M124.25186890062471,303.9804143537902A328.394,328.394,0,0,1,88.61833068455945,316.21102242439633Q0,0,-55.55846833951374,-323.6601239444971Q0,0,124.25186890062471,303.9804143537902Z" fill="rgb(249, 70, 77)" stroke="rgb(174, 49, 54)"/><path class="chord" d="M206.54488647997294,-255.30732285810976A328.394,328.394,0,0,1,231.26023881925536,-233.15514400772074Q0,0,-193.04931723597397,-265.6587667492347Q0,0,206.54488647997294,-255.30732285810976Z" fill="rgb(248, 122, 60)" stroke="rgb(174, 85, 42)"/><path class="chord" d="M328.34623781865986,-5.600655884094288A328.394,328.394,0,0,1,327.4582902461873,24.77271452715168Q0,0,-84.4237107580783,-317.35667047950375Q0,0,328.34623781865986,-5.600655884094288Z" fill="rgb(230, 89, 59)" stroke="rgb(161, 62, 41)"/><path class="chord" d="M-210.68831551060615,251.89889428757579A328.394,328.394,0,0,1,-233.0696614597655,231.34638995028712Q0,0,-325.96128952586866,-39.898082242544284Q0,0,-210.68831551060615,251.89889428757579Z" fill="rgb(208, 237, 53)" stroke="rgb(146, 166, 37)"/><path class="chord" d="M16.69697986716894,327.9692517589345A328.394,328.394,0,0,1,-10.603734155283448,328.2227598110224Q0,0,-3.2838852679481927,-328.3775804368303Q0,0,16.69697986716894,327.9692517589345Z" fill="rgb(242, 65, 244)" stroke="rgb(169, 46, 171)"/><path class="chord" d="M-299.1263230593981,135.521445125724A328.394,328.394,0,0,1,-309.11356636980884,110.86668716137322Q0,0,-199.1990075441937,-261.0792497105204Q0,0,-299.1263230593981,135.521445125724Z" fill="rgb(58, 234, 228)" stroke="rgb(41, 164, 160)"/><path class="chord" d="M-283.6649907351738,165.45933720166343A328.394,328.394,0,0,1,-295.33290312516834,143.60047203146632Q0,0,-133.90608622204905,-299.85292946491813Q0,0,-283.6649907351738,165.45933720166343Z" fill="rgb(44, 254, 237)" stroke="rgb(31, 178, 166)"/><path class="chord" d="M-328.3550523352336,-5.0575529583012555A328.394,328.394,0,0,1,-327.7498983991909,-20.557804730078466Q0,0,-285.85086021587256,-161.6536573970589A328.394,328.394,0,0,1,-284.13568966723153,-164.64971634754394Q0,0,-328.3550523352336,-5.0575529583012555Z" fill="rgb(39, 249, 44)" stroke="rgb(27, 174, 31)"/><path class="chord" d="M-319.71339444903873,75.00643069679671A328.394,328.394,0,0,1,-323.8519538075181,54.42913972361826Q0,0,-6.567442150098217,-328.32832338926397Q0,0,-319.71339444903873,75.00643069679671Z" fill="rgb(42, 251, 239)" stroke="rgb(29, 176, 167)"/><path class="chord" d="M-324.8756957994783,47.94164697634853A328.394,328.394,0,0,1,-327.2642042576472,27.216903710910845Q0,0,-124.85159439596029,-303.7345858027805Q0,0,-324.8756957994783,47.94164697634853Z" fill="rgb(159, 62, 229)" stroke="rgb(111, 43, 160)"/><path class="chord" d="M-327.74305538426694,20.66661277000485A328.394,328.394,0,0,1,-328.390527829668,1.5101217672979705Q0,0,-327.39619741515287,25.580249297030765Q0,0,-327.74305538426694,20.66661277000485Z" fill="rgb(63, 235, 134)" stroke="rgb(44, 165, 94)"/><path class="chord" d="M-311.2689316411988,104.66265537882518A328.394,328.394,0,0,1,-316.5778789362211,87.29871593696753Q0,0,-196.03414051157523,-263.46391591618Q0,0,-311.2689316411988,104.66265537882518Z" fill="rgb(238, 164, 78)" stroke="rgb(167, 115, 55)"/><path class="chord" d="M-264.7421998909344,194.3043664792651A328.394,328.394,0,0,1,-272.2612267456011,183.62037917121395Q0,0,-245.05352941716205,-218.61241263064662Q0,0,-264.7421998909344,194.3043664792651Z" fill="rgb(240, 77, 215)" stroke="rgb(168, 54, 151)"/><path class="chord" d="M-13.885376867584261,328.1003132355182A328.394,328.394,0,0,1,-26.295261433466518,327.3395461323695Q0,0,-187.09861573755734,-269.8828027590677Q0,0,-13.885376867584261,328.1003132355182Z" fill="rgb(242, 65, 244)" stroke="rgb(169, 46, 171)"/><path class="chord" d="M233.58018848475334,-230.83092250265585A328.394,328.394,0,0,1,240.9717420709948,-223.1036502598511Q0,0,-209.00277735858145,-253.29914783196415Q0,0,233.58018848475334,-230.83092250265585Z" fill="rgb(248, 122, 60)" stroke="rgb(174, 85, 42)"/><path class="chord" d="M-325.32617077714707,-44.78282978417667A328.394,328.394,0,0,1,-323.79916631471195,-54.742297448111415Q0,0,-49.07458607554195,-324.7064893677276Q0,0,-325.32617077714707,-44.78282978417667Z" fill="rgb(48, 253, 115)" stroke="rgb(34, 177, 81)"/><path class="chord" d="M-241.48889725542244,222.54377488116808A328.394,328.394,0,0,1,-247.9081952901159,215.36978883770527Q0,0,-130.90091165412122,-301.1769754880342Q0,0,-241.48889725542244,222.54377488116808Z" fill="rgb(200, 238, 48)" stroke="rgb(140, 167, 34)"/><path class="chord" d="M243.1906929031385,-220.68281791134393A328.394,328.394,0,0,1,245.49717086812785,-218.11409475718264Q0,0,-280.7860896251245,-170.29912245525975A328.394,328.394,0,0,1,-279.43834596109497,-172.5016812744948Q0,0,243.1906929031385,-220.68281791134393Z" fill="rgb(248, 122, 60)" stroke="rgb(174, 85, 42)"/><path class="chord" d="M-301.64374682512255,-129.82168246214252A328.394,328.394,0,0,1,-300.20547716306504,-133.11382616879604Q0,0,-271.00776107208935,-185.4653948171824A328.394,328.394,0,0,1,-269.68528658752564,-187.3832047815496Q0,0,-301.64374682512255,-129.82168246214252Z" fill="rgb(74, 249, 187)" stroke="rgb(52, 174, 131)"/><path class="chord" d="M-296.3001237171445,-141.5939826447609A328.394,328.394,0,0,1,-294.0493291733939,-146.2108451814606Q0,0,-237.19537103481906,-227.1144539558293A328.394,328.394,0,0,1,-237.15660388281086,-227.1549349469906Q0,0,-296.3001237171445,-141.5939826447609Z" fill="rgb(244, 223, 83)" stroke="rgb(171, 156, 58)"/><path class="chord" d="M-319.3351773831148,-76.60067703156813A328.394,328.394,0,0,1,-317.3891530594775,-84.30151099587466Q0,0,-325.96128952586866,-39.898082242544284Q0,0,-319.3351773831148,-76.60067703156813Z" fill="rgb(249, 227, 55)" stroke="rgb(174, 159, 39)"/><path class="chord" d="M85.45184228227907,317.0813805422269A328.394,328.394,0,0,1,77.90931575526554,319.01842855005464Q0,0,-209.00277735858145,-253.29914783196415Q0,0,85.45184228227907,317.0813805422269Z" fill="rgb(249, 70, 77)" stroke="rgb(174, 49, 54)"/><path class="chord" d="M-315.63975952461425,-90.6320111397937A328.394,328.394,0,0,1,-313.5229342536439,-97.7035768689421Q0,0,128.79742605571252,302.0825090557599Q0,0,-315.63975952461425,-90.6320111397937Z" fill="rgb(212, 236, 66)" stroke="rgb(148, 165, 46)"/><path class="chord" d="M-274.08378698617423,180.8886313379519A328.394,328.394,0,0,1,-278.0205443006792,174.7775620117013Q0,0,-3.2838852679481927,-328.3775804368303Q0,0,-274.08378698617423,180.8886313379519Z" fill="rgb(240, 77, 215)" stroke="rgb(168, 54, 151)"/><path class="chord" d="M-306.83461243038573,-117.02623573667138A328.394,328.394,0,0,1,-304.35918484254603,-123.32114919177852Q0,0,-227.47960331959084,-236.84520115375273Q0,0,-306.83461243038573,-117.02623573667138Z" fill="rgb(232, 196, 78)" stroke="rgb(162, 137, 55)"/><path class="chord" d="M-256.77788422365415,204.7137938919204A328.394,328.394,0,0,1,-260.8034249536027,199.55999791659283Q0,0,-309.6640335843661,109.31973993867976Q0,0,-256.77788422365415,204.7137938919204Z" fill="rgb(200, 238, 48)" stroke="rgb(140, 167, 34)"/><path class="chord" d="M-327.2732219197378,-27.108254283041713A328.394,328.394,0,0,1,-326.7068143142408,-33.245702228110645Q0,0,-124.85159439596029,-303.7345858027805Q0,0,-327.2732219197378,-27.108254283041713Z" fill="rgb(249, 58, 209)" stroke="rgb(174, 41, 146)"/><path class="chord" d="M241.09445897175976,222.97103195059765A328.394,328.394,0,0,1,238.49623615970557,225.74801122856866Q0,0,-93.90499501108302,-314.681539255115Q0,0,241.09445897175976,222.97103195059765Z" fill="rgb(239, 145, 47)" stroke="rgb(167, 102, 33)"/><path class="chord" d="M236.2268689594654,228.12164653449167A328.394,328.394,0,0,1,233.56932721387497,230.84191261739667Q0,0,-3.2838852679481927,-328.3775804368303Q0,0,236.2268689594654,228.12164653449167Z" fill="rgb(239, 145, 47)" stroke="rgb(167, 102, 33)"/><path class="chord" d="M-322.6396356793893,-61.206900956272484A328.394,328.394,0,0,1,-321.93413073808455,-64.81538939105369Q0,0,-42.57107463145904,-325.62297652457323Q0,0,-322.6396356793893,-61.206900956272484Z" fill="rgb(70, 245, 211)" stroke="rgb(49, 172, 148)"/><path class="chord" d="M-291.06649930812745,-152.06219851268705A328.394,328.394,0,0,1,-289.504883152846,-155.01465049038748Q0,0,276.9077156057675,176.53536833732608Q0,0,-291.06649930812745,-152.06219851268705Z" fill="rgb(39, 251, 106)" stroke="rgb(27, 176, 74)"/><path class="chord" d="M-317.43502278383767,84.12862501089889A328.394,328.394,0,0,1,-318.14942529418136,81.38527152367386Q0,0,-231.7116863938406,-232.70649673896617Q0,0,-317.43502278383767,84.12862501089889Z" fill="rgb(238, 164, 78)" stroke="rgb(167, 115, 55)"/><path class="chord" d="M-235.37143341576848,229.00416495733535A328.394,328.394,0,0,1,-236.99002230735135,227.3287235761489Q0,0,-261.7979607496707,198.25349173044566Q0,0,-235.37143341576848,229.00416495733535Z" fill="rgb(208, 237, 53)" stroke="rgb(146, 166, 37)"/><path class="chord" d="M327.19419445160906,28.0460042281003A328.394,328.394,0,0,1,326.9870088832059,30.366350745755128Q0,0,-124.85159439596029,-303.7345858027805Q0,0,327.19419445160906,28.0460042281003Z" fill="rgb(230, 89, 59)" stroke="rgb(161, 62, 41)"/><path class="chord" d="M-275.9326565269521,-178.0555764304479A328.394,328.394,0,0,1,-274.66262194066536,-180.00850908965143Q0,0,-3.2838852679481927,-328.3775804368303Q0,0,-275.9326565269521,-178.0555764304479Z" fill="rgb(249, 57, 81)" stroke="rgb(174, 40, 57)"/><path class="chord" d="M-321.26989107428676,-68.03143630055105A328.394,328.394,0,0,1,-320.8032238849489,-70.19907963088501Q0,0,-139.87596469088828,-297.1150176914546Q0,0,-321.26989107428676,-68.03143630055105Z" fill="rgb(70, 245, 211)" stroke="rgb(49, 172, 148)"/><path class="chord" d="M311.0688781280757,105.25574709316535A328.394,328.394,0,0,1,310.38779090863005,107.2475570391259Q0,0,-293.31460238458493,-147.67925806955031Q0,0,311.0688781280757,105.25574709316535Z" fill="rgb(115, 47, 242)" stroke="rgb(81, 33, 169)"/><path class="chord" d="M-265.88393707173134,-192.73907554835785A328.394,328.394,0,0,1,-264.6762375059726,-194.39420911046187Q0,0,-112.60558258153065,-308.48436266280027Q0,0,-265.88393707173134,-192.73907554835785Z" fill="rgb(148, 240, 59)" stroke="rgb(104, 168, 41)"/><path class="chord" d="M-326.358027628294,-36.51105364913044A328.394,328.394,0,0,1,-326.15670459824184,-38.26778386077767Q0,0,-45.82512159048628,-325.1809918602518Q0,0,-326.358027628294,-36.51105364913044Z" fill="rgb(249, 58, 209)" stroke="rgb(174, 41, 146)"/><path class="chord" d="M309.29981395252463,110.34602088400676A328.394,328.394,0,0,1,309.08230869399,110.95379979249508Q0,0,-261.7979607496707,198.25349173044566Q0,0,309.29981395252463,110.34602088400676Z" fill="rgb(115, 47, 242)" stroke="rgb(81, 33, 169)"/><path class="chord" d="M-251.0884345972847,-211.65353114815989A328.394,328.394,0,0,1,-250.78972069204815,-212.00739428426664Q0,0,-328.3939735339976,-0.1318429068723214Q0,0,-251.0884345972847,-211.65353114815989Z" fill="rgb(150, 55, 251)" stroke="rgb(105, 39, 176)"/><path class="chord" d="M-310.33919240910603,-107.38810404725412A328.394,328.394,0,0,1,-310.26570228906184,-107.6002473002513Q0,0,-254.29615308875736,-207.78856022471322Q0,0,-310.33919240910603,-107.38810404725412Z" fill="rgb(169, 248, 65)" stroke="rgb(118, 174, 46)"/><path class="chord" d="M-311.49898634398335,-103.97596233106422A328.394,328.394,0,0,1,-311.3975387213378,-104.27939448564577Q0,0,-196.03414051157523,-263.46391591618Q0,0,-311.49898634398335,-103.97596233106422Z" fill="rgb(169, 248, 65)" stroke="rgb(118, 174, 46)"/><path class="chord" d="M-241.74689819064758,-222.26348429555551A328.394,328.394,0,0,1,-241.68991980779438,-222.32544141258762Q0,0,-227.47960331959084,-236.84520115375273Q0,0,-241.74689819064758,-222.26348429555551Z" fill="rgb(75, 240, 101)" stroke="rgb(53, 168, 71)"/><path class="chord" d="M-29.56728758635655,327.0602310596409A328.394,328.394,0,0,1,-29.65111849516949,327.0526416465481Q0,0,276.9077156057675,176.53536833732608Q0,0,-29.56728758635655,327.0602310596409Z" fill="rgb(242, 65, 244)" stroke="rgb(169, 46, 171)"/><path class="chord" d="M-260.79539958283334,-199.5704857749019Q0,0,-3.2838852679481927,-328.3775804368303Q0,0,-260.79539958283334,-199.5704857749019Z" fill="rgb(228, 59, 81)" stroke="rgb(160, 41, 57)"/><path class="chord" d="M-232.83375323695589,-231.58381331516316Q0,0,-9.850342293506083,-328.2462337829648Q0,0,-232.83375323695589,-231.58381331516316Z" fill="rgb(221, 41, 255)" stroke="rgb(155, 29, 179)"/><path class="chord" d="M-256.063676870139,-205.6064508320326Q0,0,-19.69181994381823,-327.80306811148097Q0,0,-256.063676870139,-205.6064508320326Z" fill="rgb(243, 173, 56)" stroke="rgb(170, 121, 39)"/><path class="chord" d="M-246.67230484641044,-216.78420896771877Q0,0,-320.4482199173292,-71.8022115802503Q0,0,-246.67230484641044,-216.78420896771877Z" fill="rgb(56, 255, 133)" stroke="rgb(39, 179, 93)"/><path class="chord" d="M-224.28104659947587,-239.87628347180078Q0,0,-106.4137862667097,-310.6746293606593Q0,0,-224.28104659947587,-239.87628347180078Z" fill="rgb(241, 64, 134)" stroke="rgb(169, 45, 94)"/><path class="chord" d="M-220.0438912951057,-243.76895852365556Q0,0,-320.4482199173292,-71.8022115802503Q0,0,-220.0438912951057,-243.76895852365556Z" fill="rgb(189, 69, 253)" stroke="rgb(132, 48, 177)"/><path class="chord" d="M-296.4348094424,141.31179351649317Q0,0,-136.8978702929427,-298.4988983987322Q0,0,-296.4348094424,141.31179351649317Z" fill="rgb(44, 254, 237)" stroke="rgb(31, 178, 166)"/><path class="chord" d="M-279.3641214821855,172.62186091131878Q0,0,-26.243506011319848,-327.3436995395418Q0,0,-279.3641214821855,172.62186091131878Z" fill="rgb(240, 77, 215)" stroke="rgb(168, 54, 151)"/><path class="chord" d="M-299.2189354510526,-135.31684264546976Q0,0,-65.24181621711975,-321.8479837635954Q0,0,-299.2189354510526,-135.31684264546976Z" fill="rgb(74, 249, 187)" stroke="rgb(52, 174, 131)"/><path class="chord" d="M-309.4692395522704,-109.86996407999553Q0,0,-19.69181994381823,-327.80306811148097Q0,0,-309.4692395522704,-109.86996407999553Z" fill="rgb(169, 248, 65)" stroke="rgb(118, 174, 46)"/><path class="chord" d="M-216.25779182845292,-247.13394487500398Q0,0,-121.80805663241193,-304.96789433551055Q0,0,-216.25779182845292,-247.13394487500398Z" fill="rgb(38, 143, 250)" stroke="rgb(27, 100, 175)"/><path class="chord" d="M-280.21641015298695,171.23487587805525Q0,0,-81.2459757954358,-318.18502581524393Q0,0,-280.21641015298695,171.23487587805525Z" fill="rgb(240, 77, 215)" stroke="rgb(168, 54, 151)"/><path class="chord" d="M75.64084398223349,319.56389338856076Q0,0,-3.2838852679481927,-328.3775804368303Q0,0,75.64084398223349,319.56389338856076Z" fill="rgb(249, 70, 77)" stroke="rgb(174, 49, 54)"/><path class="chord" d="M-254.9422535625034,-206.99532986150248Q0,0,-3.2838852679481927,-328.3775804368303Q0,0,-254.9422535625034,-206.99532986150248Z" fill="rgb(243, 173, 56)" stroke="rgb(170, 121, 39)"/><path class="chord" d="M-298.6458595541666,-136.57697392735355Q0,0,-3.2838852679481927,-328.3775804368303Q0,0,-298.6458595541666,-136.57697392735355Z" fill="rgb(74, 249, 187)" stroke="rgb(52, 174, 131)"/><path class="chord" d="M-309.023490379325,-111.11751270515038Q0,0,-3.2838852679481927,-328.3775804368303Q0,0,-309.023490379325,-111.11751270515038Z" fill="rgb(169, 248, 65)" stroke="rgb(118, 174, 46)"/><path class="chord" d="M-209.4237619921696,-252.95119519197198Q0,0,-136.8978702929427,-298.4988983987322Q0,0,-209.4237619921696,-252.95119519197198Z" fill="rgb(255, 53, 80)" stroke="rgb(179, 37, 56)"/><path class="chord" d="M-206.06625046802034,-255.69380057805685Q0,0,-121.80805663241193,-304.96789433551055Q0,0,-206.06625046802034,-255.69380057805685Z" fill="rgb(242, 186, 81)" stroke="rgb(169, 130, 57)"/><path class="chord" d="M-288.48514682403373,-156.90423607384122Q0,0,-3.2838852679481927,-328.3775804368303Q0,0,-288.48514682403373,-156.90423607384122Z" fill="rgb(39, 251, 106)" stroke="rgb(27, 176, 74)"/><path class="chord" d="M-202.72339560105831,-258.35217071272467Q0,0,-87.59300341999783,-316.49657974117866Q0,0,-202.72339560105831,-258.35217071272467Z" fill="rgb(230, 72, 79)" stroke="rgb(161, 50, 55)"/><path class="chord" d="M-212.85807477574764,-250.06810919979824Q0,0,-327.64301293863275,-22.19629042193627Q0,0,-212.85807477574764,-250.06810919979824Z" fill="rgb(44, 240, 142)" stroke="rgb(31, 168, 99)"/><path class="chord" d="M246.89953533386372,-216.52537654492644Q0,0,-136.8978702929427,-298.4988983987322Q0,0,246.89953533386372,-216.52537654492644Z" fill="rgb(248, 122, 60)" stroke="rgb(174, 85, 42)"/><path class="chord" d="M-259.5967383197252,-201.12720524523806Q0,0,-136.8978702929427,-298.4988983987322Q0,0,-259.5967383197252,-201.12720524523806Z" fill="rgb(228, 59, 81)" stroke="rgb(160, 41, 57)"/><path class="chord" d="M-196.35339288360834,-263.2260707815534Q0,0,-227.69004062762716,-236.64290531302538Q0,0,-196.35339288360834,-263.2260707815534Z" fill="rgb(245, 149, 71)" stroke="rgb(172, 104, 50)"/><path class="chord" d="M-280.7958185192178,170.2830805985214Q0,0,-22.96881140856916,-327.589763177175Q0,0,-280.7958185192178,170.2830805985214Z" fill="rgb(240, 77, 215)" stroke="rgb(168, 54, 151)"/><path class="chord" d="M-199.4733629165418,-260.8696929939651Q0,0,-84.4237107580783,-317.35667047950375Q0,0,-199.4733629165418,-260.8696929939651Z" fill="rgb(238, 80, 219)" stroke="rgb(167, 56, 153)"/><path class="chord" d="M-245.72501597895211,-217.85737480779423Q0,0,-3.2838852679481927,-328.3775804368303Q0,0,-245.72501597895211,-217.85737480779423Z" fill="rgb(56, 255, 133)" stroke="rgb(39, 179, 93)"/><path class="chord" d="M247.41185440767129,-215.9397914571496Q0,0,-29.515576285338916,-327.0649018047402Q0,0,247.41185440767129,-215.9397914571496Z" fill="rgb(248, 122, 60)" stroke="rgb(174, 85, 42)"/><path class="chord" d="M-259.1663908573994,-201.6814346585964Q0,0,-278.5723481764556,-173.89671091615162Q0,0,-259.1663908573994,-201.6814346585964Z" fill="rgb(228, 59, 81)" stroke="rgb(160, 41, 57)"/><path class="chord" d="M-296.9401670320478,140.24676979873573Q0,0,322.31328867351107,-62.90280741323014Q0,0,-296.9401670320478,140.24676979873573Z" fill="rgb(44, 254, 237)" stroke="rgb(31, 178, 166)"/><path class="chord" d="M-231.82653856562695,-232.59207908413364Q0,0,-196.08124520928118,-263.42886044087453Q0,0,-231.82653856562695,-232.59207908413364Z" fill="rgb(221, 41, 255)" stroke="rgb(155, 29, 179)"/><path class="chord" d="M-190.22300064149985,-267.6898004462328Q0,0,-124.85159439596029,-303.7345858027805Q0,0,-190.22300064149985,-267.6898004462328Z" fill="rgb(233, 180, 92)" stroke="rgb(163, 126, 64)"/><path class="chord" d="M-206.73365362314644,255.15449377901408Q0,0,-109.51516013649584,-309.5949756315139Q0,0,-206.73365362314644,255.15449377901408Z" fill="rgb(188, 231, 61)" stroke="rgb(132, 162, 43)"/><path class="chord" d="M-193.24226452356072,-265.5184483944688Q0,0,-36.05053532513031,-326.4092188323907Q0,0,-193.24226452356072,-265.5184483944688Z" fill="rgb(232, 238, 80)" stroke="rgb(162, 167, 56)"/><path class="chord" d="M-308.77580195690655,-111.80395056467918Q0,0,-127.8826471041117,-302.4709040645815Q0,0,-308.77580195690655,-111.80395056467918Z" fill="rgb(169, 248, 65)" stroke="rgb(118, 174, 46)"/><path class="chord" d="M-187.23699134110902,-269.7868201182731Q0,0,-32.784695026325686,-326.7533978523113Q0,0,-187.23699134110902,-269.7868201182731Z" fill="rgb(142, 253, 77)" stroke="rgb(99, 177, 54)"/><path class="chord" d="M247.72020824712672,-215.58598670136274Q0,0,-65.24181621711975,-321.8479837635954Q0,0,247.72020824712672,-215.58598670136274Z" fill="rgb(248, 122, 60)" stroke="rgb(174, 85, 42)"/><path class="chord" d="M-227.54841991463098,-236.77908655612887Q0,0,-169.4124556897771,-281.3219491848429Q0,0,-227.54841991463098,-236.77908655612887Z" fill="rgb(152, 58, 231)" stroke="rgb(106, 41, 162)"/><path class="chord" d="M-303.6800580194688,-124.9841653862284Q0,0,-65.24181621711975,-321.8479837635954Q0,0,-303.6800580194688,-124.9841653862284Z" fill="rgb(232, 196, 78)" stroke="rgb(162, 137, 55)"/><path class="chord" d="M-281.0731785202609,169.82487318563656Q0,0,-209.00277735858145,-253.29914783196415Q0,0,-281.0731785202609,169.82487318563656Z" fill="rgb(240, 77, 215)" stroke="rgb(168, 54, 151)"/><path class="chord" d="M-184.2673639969428,-271.82376239324293Q0,0,-3.2838852679481927,-328.3775804368303Q0,0,-184.2673639969428,-271.82376239324293Z" fill="rgb(202, 237, 47)" stroke="rgb(141, 166, 33)"/><path class="chord" d="M-181.2935527394399,-273.81611890301843Q0,0,-3.2838852679481927,-328.3775804368303Q0,0,-181.2935527394399,-273.81611890301843Z" fill="rgb(69, 152, 233)" stroke="rgb(48, 106, 163)"/><path class="chord" d="M-245.4268643330822,-218.19320223057105Q0,0,-62.02012795691942,-322.48429878709965Q0,0,-245.4268643330822,-218.19320223057105Z" fill="rgb(56, 255, 133)" stroke="rgb(39, 179, 93)"/><path class="chord" d="M-223.35679710493653,-240.73711891402252Q0,0,322.31328867351107,-62.90280741323014Q0,0,-223.35679710493653,-240.73711891402252Z" fill="rgb(241, 64, 134)" stroke="rgb(169, 45, 94)"/><path class="chord" d="M-178.30527262089197,-275.7713708701275Q0,0,-90.7535368545693,-315.60483960862564Q0,0,-178.30527262089197,-275.7713708701275Z" fill="rgb(248, 41, 114)" stroke="rgb(174, 29, 80)"/><path class="chord" d="M-254.44615494209924,-207.60484934408743Q0,0,-39.31277060044443,-326.0323991625937Q0,0,-254.44615494209924,-207.60484934408743Z" fill="rgb(243, 173, 56)" stroke="rgb(170, 121, 39)"/><path class="chord" d="M-227.8669519027482,-236.47255964815588Q0,0,-3.2838852679481927,-328.3775804368303Q0,0,-227.8669519027482,-236.47255964815588Z" fill="rgb(152, 58, 231)" stroke="rgb(106, 41, 162)"/><path class="chord" d="M-249.6427897158609,-213.3567359585407Q0,0,-74.86645086382082,-319.74620212139365Q0,0,-249.6427897158609,-213.3567359585407Z" fill="rgb(150, 55, 251)" stroke="rgb(105, 39, 176)"/><path class="chord" d="M-245.24961959930218,-218.3924067416209Q0,0,-115.68474456214497,-307.34290151488983Q0,0,-245.24961959930218,-218.3924067416209Z" fill="rgb(56, 255, 133)" stroke="rgb(39, 179, 93)"/><path class="chord" d="M-308.67534164008833,-112.08100953941641Q0,0,-84.4237107580783,-317.35667047950375Q0,0,-308.67534164008833,-112.08100953941641Z" fill="rgb(169, 248, 65)" stroke="rgb(118, 174, 46)"/><path class="chord" d="M-175.31328035832593,-277.68304407363985Q0,0,-268.7450034083705,-188.72928331087078Q0,0,-175.31328035832593,-277.68304407363985Z" fill="rgb(218, 76, 250)" stroke="rgb(153, 53, 175)"/><path class="chord" d="M74.8710841314458,319.7451172371237Q0,0,-65.24181621711975,-321.8479837635954Q0,0,74.8710841314458,319.7451172371237Z" fill="rgb(249, 70, 77)" stroke="rgb(174, 49, 54)"/><path class="chord" d="M-212.42709028106563,-250.4343238270665Q0,0,-100.17942585621367,-312.7406303490472Q0,0,-212.42709028106563,-250.4343238270665Z" fill="rgb(44, 240, 142)" stroke="rgb(31, 168, 99)"/><path class="chord" d="M-303.5891782306682,-125.20475269424706Q0,0,-136.8978702929427,-298.4988983987322Q0,0,-303.5891782306682,-125.20475269424706Z" fill="rgb(232, 196, 78)" stroke="rgb(162, 137, 55)"/><path class="chord" d="M-172.3485799238859,-279.53279992555423Q0,0,-309.6640335843661,109.31973993867976Q0,0,-172.3485799238859,-279.53279992555423Z" fill="rgb(254, 46, 137)" stroke="rgb(178, 32, 96)"/><path class="chord" d="M-245.109575329218,-218.54957176331968Q0,0,-19.69181994381823,-327.80306811148097Q0,0,-245.109575329218,-218.54957176331968Z" fill="rgb(56, 255, 133)" stroke="rgb(39, 179, 93)"/><path class="chord" d="M-258.9473209975724,-201.96263066265558Q0,0,-118.7523381647067,-306.17070633294617Q0,0,-258.9473209975724,-201.96263066265558Z" fill="rgb(228, 59, 81)" stroke="rgb(160, 41, 57)"/><path class="chord" d="M-258.85753505193435,-202.07769739097037Q0,0,-227.47960331959084,-236.84520115375273Q0,0,-258.85753505193435,-202.07769739097037Z" fill="rgb(228, 59, 81)" stroke="rgb(160, 41, 57)"/><path class="chord" d="M-166.47416390432602,-283.07061307800143Q0,0,-3.2838852679481927,-328.3775804368303Q0,0,-166.47416390432602,-283.07061307800143Z" fill="rgb(234, 100, 52)" stroke="rgb(164, 70, 36)"/><path class="chord" d="M-160.56097025937362,-286.46604347700367Q0,0,-87.59300341999783,-316.49657974117866Q0,0,-160.56097025937362,-286.46604347700367Z" fill="rgb(117, 248, 62)" stroke="rgb(82, 174, 43)"/><path class="chord" d="M-157.58479203518647,-288.1139575848887Q0,0,-324.12005023120827,52.80920633865887Q0,0,-157.58479203518647,-288.1139575848887Z" fill="rgb(245, 78, 138)" stroke="rgb(172, 55, 97)"/><path class="chord" d="M-31.341883692117673,326.8949457587709Q0,0,-288.2434165288569,-157.34786958764934Q0,0,-31.341883692117673,326.8949457587709Z" fill="rgb(242, 65, 244)" stroke="rgb(169, 46, 171)"/><path class="chord" d="M-163.53999827136394,-284.77585607175735Q0,0,-16.412859313482713,-327.9835930121442Q0,0,-163.53999827136394,-284.77585607175735Z" fill="rgb(236, 40, 247)" stroke="rgb(165, 28, 173)"/><path class="chord" d="M-154.61024966592473,-289.72105538645343Q0,0,-199.1990075441937,-261.0792497105204Q0,0,-154.61024966592473,-289.72105538645343Z" fill="rgb(57, 217, 235)" stroke="rgb(40, 152, 165)"/><path class="chord" d="M-193.07202220718517,-265.6422659834617Q0,0,-136.8978702929427,-298.4988983987322Q0,0,-193.07202220718517,-265.6422659834617Z" fill="rgb(232, 238, 80)" stroke="rgb(162, 167, 56)"/><path class="chord" d="M-308.6226203497364,-112.22609965806738Q0,0,-97.04706274634952,-313.72677100991257Q0,0,-308.6226203497364,-112.22609965806738Z" fill="rgb(169, 248, 65)" stroke="rgb(118, 174, 46)"/><path class="chord" d="M-223.23331390203097,-240.85162818697597Q0,0,-93.90499501108302,-314.681539255115Q0,0,-223.23331390203097,-240.85162818697597Z" fill="rgb(241, 64, 134)" stroke="rgb(169, 45, 94)"/><path class="chord" d="M-308.60343206213787,-112.27885355430672Q0,0,-68.45698035006635,-321.1794842099206Q0,0,-308.60343206213787,-112.27885355430672Z" fill="rgb(169, 248, 65)" stroke="rgb(118, 174, 46)"/><path class="chord" d="M-308.5842347571396,-112.33160416975525Q0,0,-309.6640335843661,109.31973993867976Q0,0,-308.5842347571396,-112.33160416975525Z" fill="rgb(169, 248, 65)" stroke="rgb(118, 174, 46)"/><path class="chord" d="M-308.56502843530245,-112.38435150287157Q0,0,179.8830182027314,274.7448252438539Q0,0,-308.56502843530245,-112.38435150287157Z" fill="rgb(169, 248, 65)" stroke="rgb(118, 174, 46)"/><path class="chord" d="M-219.27744273287882,-244.45863115163075Q0,0,-87.59300341999783,-316.49657974117866Q0,0,-219.27744273287882,-244.45863115163075Z" fill="rgb(189, 69, 253)" stroke="rgb(132, 48, 177)"/><path class="chord" d="M-163.48627786247056,-284.80669968713Q0,0,-3.2838852679481927,-328.3775804368303Q0,0,-163.48627786247056,-284.80669968713Z" fill="rgb(236, 40, 247)" stroke="rgb(165, 28, 173)"/><path class="chord" d="M-313.02701203838393,-99.2809597572537Q0,0,-172.27689981719269,-279.57698228820084Q0,0,-313.02701203838393,-99.2809597572537Z" fill="rgb(212, 236, 66)" stroke="rgb(148, 165, 46)"/><path class="chord" d="M-151.66739358081327,-291.272417095067Q0,0,-124.85159439596029,-303.7345858027805Q0,0,-151.66739358081327,-291.272417095067Z" fill="rgb(243, 82, 119)" stroke="rgb(170, 57, 83)"/><path class="chord" d="M322.31193915790806,-62.90972192172677Q0,0,-133.90608622204905,-299.85292946491813Q0,0,322.31193915790806,-62.90972192172677Z" fill="rgb(240, 81, 119)" stroke="rgb(168, 57, 83)"/><path class="chord" d="M-227.48365188640673,-236.84131261337012Q0,0,-231.7116863938406,-232.70649673896617Q0,0,-227.48365188640673,-236.84131261337012Z" fill="rgb(152, 58, 231)" stroke="rgb(106, 41, 162)"/><path class="chord" d="M-148.7339972977684,-292.7811764506513Q0,0,-124.85159439596029,-303.7345858027805Q0,0,-148.7339972977684,-292.7811764506513Z" fill="rgb(81, 246, 142)" stroke="rgb(57, 172, 99)"/><path class="chord" d="M-258.81212188844677,-202.13585728316428Q0,0,-65.24181621711975,-321.8479837635954Q0,0,-258.81212188844677,-202.13585728316428Z" fill="rgb(228, 59, 81)" stroke="rgb(160, 41, 57)"/><path class="chord" d="M-157.53238762815087,-288.142614141286Q0,0,232.41220284948085,232.00686886954827Q0,0,-157.53238762815087,-288.142614141286Z" fill="rgb(245, 78, 138)" stroke="rgb(172, 55, 97)"/><path class="chord" d="M247.83220481093835,-215.4572289215405Q0,0,-133.90608622204905,-299.85292946491813Q0,0,247.83220481093835,-215.4572289215405Z" fill="rgb(248, 122, 60)" stroke="rgb(174, 85, 42)"/><path class="chord" d="M247.8345987436427,-215.45447524147096Q0,0,-223.2127276598138,-240.87070690863555Q0,0,247.8345987436427,-215.45447524147096Z" fill="rgb(248, 122, 60)" stroke="rgb(174, 85, 42)"/><path class="chord" d="M-145.792761738321,-294.2568433540895Q0,0,-39.31277060044443,-326.0323991625937Q0,0,-145.792761738321,-294.2568433540895Z" fill="rgb(52, 250, 156)" stroke="rgb(36, 175, 109)"/><path class="chord" d="M-142.84100672409622,-295.70097401606023Q0,0,-87.59300341999783,-316.49657974117866Q0,0,-142.84100672409622,-295.70097401606023Z" fill="rgb(242, 42, 76)" stroke="rgb(169, 29, 53)"/><path class="chord" d="M247.83607191779163,-215.4527806558997Q0,0,-93.90499501108302,-314.681539255115Q0,0,247.83607191779163,-215.4527806558997Z" fill="rgb(248, 122, 60)" stroke="rgb(174, 85, 42)"/><path class="chord" d="M247.83717679079945,-215.45150971011094Q0,0,-268.7450034083705,-188.72928331087078Q0,0,247.83717679079945,-215.45150971011094Z" fill="rgb(248, 122, 60)" stroke="rgb(174, 85, 42)"/><path class="chord" d="M247.8380975133272,-215.45045058429216Q0,0,-103.3017711069748,-311.7232158857633Q0,0,247.8380975133272,-215.45045058429216Z" fill="rgb(248, 122, 60)" stroke="rgb(174, 85, 42)"/><path class="chord" d="M247.8388340880906,-215.44960328080415Q0,0,-71.66529884202525,-320.47886697547347Q0,0,247.8388340880906,-215.44960328080415Z" fill="rgb(248, 122, 60)" stroke="rgb(174, 85, 42)"/><path class="chord" d="M247.83938651726217,-215.4489678015356Q0,0,-297.0599265320882,139.99292583823782Q0,0,247.83938651726217,-215.4489678015356Z" fill="rgb(248, 122, 60)" stroke="rgb(174, 85, 42)"/></g></g></svg>