<svg id="sankey-svg" width="100%" height="100%" xmlns="http://www.w3.org/2000/svg" xmlns:xlink="http://www.w3.org/1999/xlink"><title>Migration Flows - Kazakhstan (1986-2025)</title><g transform="translate(180,70)"><g class="direction-arrow-group" transform="translate(0, -40)"><line x1="0" y1="0" x2="768" y2="0" stroke="#333" stroke-width="1.5" marker-end="url(#arrowhead)"/><text x="0" y="-10" text-anchor="start" style="font-size: 12px; font-weight: bold; font-family: &quot;Times New Roman&quot;, Times, serif;">Immigration to Kazakhstan</text><text x="768" y="-10" text-anchor="end" style="font-size: 12px; font-weight: bold; font-family: &quot;Times New Roman&quot;, Times, serif;">Emigration from Kazakhstan</text></g><g class="links"><path class="link" d="M 399,298.675 C 568.5,298.675 568.5,-0.4954989319842298 738,-0.4954989319842298 L 738,50.59451659095286 C 568.5,50.59451659095286 568.5,308.14085833446455 399,308.14085833446455 Z" style="stroke-width: 0.3; stroke: rgb(37, 201, 119); fill-opacity: 0.65; fill: rgb(44, 240, 142);"/><path class="link" d="M 399,308.14085833446455 C 568.5,308.14085833446455 568.5,50.594516590952864 738,50.594516590952864 L 738,101.68453211388994 C 568.5,101.68453211388994 568.5,317.6067166689291 399,317.6067166689291 Z" style="stroke-width: 0.3; stroke: rgb(37, 201, 119); fill-opacity: 0.65; fill: rgb(44, 240, 142);"/><path class="link" d="M 399,317.6067166689291 C 568.5,317.6067166689291 568.5,101.68453211388994 738,101.68453211388994 L 738,152.77454763682704 C 568.5,152.77454763682704 568.5,327.07257500339364 399,327.07257500339364 Z" style="stroke-width: 0.3; stroke: rgb(37, 201, 119); fill-opacity: 0.65; fill: rgb(44, 240, 142);"/><path class="link" d="M 399,327.07257500339364 C 568.5,327.07257500339364 568.5,152.77454763682704 738,152.77454763682704 L 738,203.86456315976415 C 568.5,203.86456315976415 568.5,336.5384333378582 399,336.5384333378582 Z" style="stroke-width: 0.3; stroke: rgb(37, 201, 119); fill-opacity: 0.65; fill: rgb(44, 240, 142);"/><path class="link" d="M 399,336.5384333378582 C 568.5,336.5384333378582 568.5,203.86456315976412 738,203.86456315976412 L 738,254.95457868270123 C 568.5,254.95457868270123 568.5,346.0042916723227 399,346.0042916723227 Z" style="stroke-width: 0.3; stroke: rgb(37, 201, 119); fill-opacity: 0.65; fill: rgb(44, 240, 142);"/><path class="link" d="M 399,346.0042916723227 C 568.5,346.0042916723227 568.5,254.95457868270117 738,254.95457868270117 L 738,306.04459420563825 C 568.5,306.04459420563825 568.5,355.47015000678726 399,355.47015000678726 Z" style="stroke-width: 0.3; stroke: rgb(37, 201, 119); fill-opacity: 0.65; fill: rgb(44, 240, 142);"/><path class="link" d="M 399,355.47015000678726 C 568.5,355.47015000678726 568.5,306.0445942056383 738,306.0445942056383 L 738,357.13460972857536 C 568.5,357.13460972857536 568.5,364.9360083412518 399,364.9360083412518 Z" style="stroke-width: 0.3; stroke: rgb(37, 201, 119); fill-opacity: 0.65; fill: rgb(44, 240, 142);"/><path class="link" d="M 399,364.9360083412518 C 568.5,364.9360083412518 568.5,357.1346097285754 738,357.1346097285754 L 738,408.22462525151246 C 568.5,408.22462525151246 568.5,374.40186667571635 399,374.40186667571635 Z" style="stroke-width: 0.3; stroke: rgb(37, 201, 119); fill-opacity: 0.65; fill: rgb(44, 240, 142);"/><path class="link" d="M 399,374.40186667571635 C 568.5,374.40186667571635 568.5,408.2246252515125 738,408.2246252515125 L 738,459.3146407744496 C 568.5,459.3146407744496 568.5,383.8677250101809 399,383.8677250101809 Z" style="stroke-width: 0.3; stroke: rgb(37, 201, 119); fill-opacity: 0.65; fill: rgb(44, 240, 142);"/><path class="link" d="M 399,383.8677250101809 C 568.5,383.8677250101809 568.5,459.31464077444963 738,459.31464077444963 L 738,510.4046562973867 C 568.5,510.4046562973867 568.5,393.33358334464543 399,393.33358334464543 Z" style="stroke-width: 0.3; stroke: rgb(37, 201, 119); fill-opacity: 0.65; fill: rgb(44, 240, 142);"/><path class="link" d="M 399,393.33358334464543 C 568.5,393.33358334464543 568.5,510.4046562973868 738,510.4046562973868 L 738,561.4946718203239 C 568.5,561.4946718203239 568.5,402.79944167911 399,402.79944167911 Z" style="stroke-width: 0.3; stroke: rgb(37, 201, 119); fill-opacity: 0.65; fill: rgb(44, 240, 142);"/><path class="link" d="M 30,165.98366993305422 C 199.5,165.98366993305422 199.5,298.675 369,298.675 L 369,305.56023416149907 C 199.5,305.56023416149907 199.5,190.09653430335595 30,190.09653430335595 Z" style="stroke-width: 0.3; stroke: rgb(51, 207, 84); fill-opacity: 0.65; fill: rgb(61, 248, 100);"/><path class="link" d="M 399,402.79944167911 C 568.5,402.79944167911 568.5,561.4946718203238 738,561.4946718203238 L 738,580.7447752092813 C 568.5,580.7447752092813 568.5,406.3660632535712 399,406.3660632535712 Z" style="stroke-width: 0.3; stroke: rgb(37, 201, 119); fill-opacity: 0.65; fill: rgb(44, 240, 142);"/><path class="link" d="M 399,406.3660632535712 C 568.5,406.3660632535712 568.5,580.7447752092813 738,580.7447752092813 L 738,599.9948785982389 C 568.5,599.9948785982389 568.5,409.93268482803245 399,409.93268482803245 Z" style="stroke-width: 0.3; stroke: rgb(37, 201, 119); fill-opacity: 0.65; fill: rgb(44, 240, 142);"/><path class="link" d="M 399,409.93268482803245 C 568.5,409.93268482803245 568.5,599.9948785982389 738,599.9948785982389 L 738,619.2449819871964 C 568.5,619.2449819871964 568.5,413.4993064024937 399,413.4993064024937 Z" style="stroke-width: 0.3; stroke: rgb(37, 201, 119); fill-opacity: 0.65; fill: rgb(44, 240, 142);"/><path class="link" d="M 399,413.4993064024937 C 568.5,413.4993064024937 568.5,619.2449819871964 738,619.2449819871964 L 738,638.495085376154 C 568.5,638.495085376154 568.5,417.0659279769549 399,417.0659279769549 Z" style="stroke-width: 0.3; stroke: rgb(37, 201, 119); fill-opacity: 0.65; fill: rgb(44, 240, 142);"/><path class="link" d="M 399,417.0659279769549 C 568.5,417.0659279769549 568.5,638.495085376154 738,638.495085376154 L 738,657.7451887651115 C 568.5,657.7451887651115 568.5,420.63254955141616 399,420.63254955141616 Z" style="stroke-width: 0.3; stroke: rgb(37, 201, 119); fill-opacity: 0.65; fill: rgb(44, 240, 142);"/><path class="link" d="M 399,420.63254955141616 C 568.5,420.63254955141616 568.5,657.7451887651115 738,657.7451887651115 L 738,676.995292154069 C 568.5,676.995292154069 568.5,424.1991711258774 399,424.1991711258774 Z" style="stroke-width: 0.3; stroke: rgb(37, 201, 119); fill-opacity: 0.65; fill: rgb(44, 240, 142);"/><path class="link" d="M 399,424.1991711258774 C 568.5,424.1991711258774 568.5,676.995292154069 738,676.995292154069 L 738,696.2453955430266 C 568.5,696.2453955430266 568.5,427.76579270033864 399,427.76579270033864 Z" style="stroke-width: 0.3; stroke: rgb(37, 201, 119); fill-opacity: 0.65; fill: rgb(44, 240, 142);"/><path class="link" d="M 399,427.76579270033864 C 568.5,427.76579270033864 568.5,696.2453955430266 738,696.2453955430266 L 738,715.4954989319841 C 568.5,715.4954989319841 568.5,431.3324142747999 399,431.3324142747999 Z" style="stroke-width: 0.3; stroke: rgb(37, 201, 119); fill-opacity: 0.65; fill: rgb(44, 240, 142);"/><path class="link" d="M 30,190.09653430335598 C 199.5,190.09653430335598 199.5,305.560234161499 369,305.560234161499 L 369,310.288094952395 C 199.5,310.288094952395 199.5,206.6540345042965 30,206.6540345042965 Z" style="stroke-width: 0.3; stroke: rgb(51, 207, 84); fill-opacity: 0.65; fill: rgb(61, 248, 100);"/><path class="link" d="M 30,206.65403450429653 C 199.5,206.65403450429653 199.5,310.288094952395 369,310.288094952395 L 369,315.015955743291 C 199.5,315.015955743291 199.5,223.21153470523706 30,223.21153470523706 Z" style="stroke-width: 0.3; stroke: rgb(51, 207, 84); fill-opacity: 0.65; fill: rgb(61, 248, 100);"/><path class="link" d="M 30,223.21153470523706 C 199.5,223.21153470523706 199.5,315.015955743291 369,315.015955743291 L 369,319.743816534187 C 199.5,319.743816534187 199.5,239.76903490617758 30,239.76903490617758 Z" style="stroke-width: 0.3; stroke: rgb(51, 207, 84); fill-opacity: 0.65; fill: rgb(61, 248, 100);"/><path class="link" d="M 30,239.76903490617758 C 199.5,239.76903490617758 199.5,319.743816534187 369,319.743816534187 L 369,322.3143039544799 C 199.5,322.3143039544799 199.5,248.7711709377569 30,248.7711709377569 Z" style="stroke-width: 0.3; stroke: rgb(51, 207, 84); fill-opacity: 0.65; fill: rgb(61, 248, 100);"/><path class="link" d="M 30,248.7711709377569 C 199.5,248.7711709377569 199.5,322.31430395447995 369,322.31430395447995 L 369,324.8847913747729 C 199.5,324.8847913747729 199.5,257.7733069693362 30,257.7733069693362 Z" style="stroke-width: 0.3; stroke: rgb(51, 207, 84); fill-opacity: 0.65; fill: rgb(61, 248, 100);"/><path class="link" d="M 30,257.7733069693362 C 199.5,257.7733069693362 199.5,324.88479137477293 369,324.88479137477293 L 369,327.45527879506585 C 199.5,327.45527879506585 199.5,266.7754430009155 30,266.7754430009155 Z" style="stroke-width: 0.3; stroke: rgb(51, 207, 84); fill-opacity: 0.65; fill: rgb(61, 248, 100);"/><path class="link" d="M 30,266.7754430009155 C 199.5,266.7754430009155 199.5,327.4552787950659 369,327.4552787950659 L 369,330.02576621535883 C 199.5,330.02576621535883 199.5,275.7775790324948 30,275.7775790324948 Z" style="stroke-width: 0.3; stroke: rgb(51, 207, 84); fill-opacity: 0.65; fill: rgb(61, 248, 100);"/><path class="link" d="M 30,275.7775790324948 C 199.5,275.7775790324948 199.5,330.0257662153589 369,330.0257662153589 L 369,332.5962536356518 C 199.5,332.5962536356518 199.5,284.77971506407414 30,284.77971506407414 Z" style="stroke-width: 0.3; stroke: rgb(51, 207, 84); fill-opacity: 0.65; fill: rgb(61, 248, 100);"/><path class="link" d="M 30,284.77971506407414 C 199.5,284.77971506407414 199.5,332.59625363565186 369,332.59625363565186 L 369,335.1667410559448 C 199.5,335.1667410559448 199.5,293.78185109565345 30,293.78185109565345 Z" style="stroke-width: 0.3; stroke: rgb(51, 207, 84); fill-opacity: 0.65; fill: rgb(61, 248, 100);"/><path class="link" d="M 30,293.78185109565345 C 199.5,293.78185109565345 199.5,335.16674105594484 369,335.16674105594484 L 369,337.73722847623776 C 199.5,337.73722847623776 199.5,302.78398712723276 30,302.78398712723276 Z" style="stroke-width: 0.3; stroke: rgb(51, 207, 84); fill-opacity: 0.65; fill: rgb(61, 248, 100);"/><path class="link" d="M 30,302.78398712723276 C 199.5,302.78398712723276 199.5,337.7372284762378 369,337.7372284762378 L 369,340.30771589653074 C 199.5,340.30771589653074 199.5,311.7861231588121 30,311.7861231588121 Z" style="stroke-width: 0.3; stroke: rgb(51, 207, 84); fill-opacity: 0.65; fill: rgb(61, 248, 100);"/><path class="link" d="M 30,311.7861231588121 C 199.5,311.7861231588121 199.5,340.3077158965308 369,340.3077158965308 L 369,342.8782033168237 C 199.5,342.8782033168237 199.5,320.7882591903914 30,320.7882591903914 Z" style="stroke-width: 0.3; stroke: rgb(51, 207, 84); fill-opacity: 0.65; fill: rgb(61, 248, 100);"/><path class="link" d="M 30,320.7882591903914 C 199.5,320.7882591903914 199.5,342.8782033168238 369,342.8782033168238 L 369,345.4486907371167 C 199.5,345.4486907371167 199.5,329.7903952219707 30,329.7903952219707 Z" style="stroke-width: 0.3; stroke: rgb(51, 207, 84); fill-opacity: 0.65; fill: rgb(61, 248, 100);"/><path class="link" d="M 30,329.7903952219707 C 199.5,329.7903952219707 199.5,345.44869073711675 369,345.44869073711675 L 369,348.01917815740967 C 199.5,348.01917815740967 199.5,338.79253125355 30,338.79253125355 Z" style="stroke-width: 0.3; stroke: rgb(51, 207, 84); fill-opacity: 0.65; fill: rgb(61, 248, 100);"/><path class="link" d="M 30,338.79253125355 C 199.5,338.79253125355 199.5,348.0191781574097 369,348.0191781574097 L 369,350.58966557770265 C 199.5,350.58966557770265 199.5,347.7946672851293 30,347.7946672851293 Z" style="stroke-width: 0.3; stroke: rgb(51, 207, 84); fill-opacity: 0.65; fill: rgb(61, 248, 100);"/><path class="link" d="M 30,347.7946672851293 C 199.5,347.7946672851293 199.5,350.5896655777027 369,350.5896655777027 L 369,353.1601529979956 C 199.5,353.1601529979956 199.5,356.79680331670863 30,356.79680331670863 Z" style="stroke-width: 0.3; stroke: rgb(51, 207, 84); fill-opacity: 0.65; fill: rgb(61, 248, 100);"/><path class="link" d="M 30,356.79680331670863 C 199.5,356.79680331670863 199.5,353.1601529979957 369,353.1601529979957 L 369,355.7306404182886 C 199.5,355.7306404182886 199.5,365.79893934828794 30,365.79893934828794 Z" style="stroke-width: 0.3; stroke: rgb(51, 207, 84); fill-opacity: 0.65; fill: rgb(61, 248, 100);"/><path class="link" d="M 30,365.79893934828794 C 199.5,365.79893934828794 199.5,355.73064041828866 369,355.73064041828866 L 369,358.3011278385816 C 199.5,358.3011278385816 199.5,374.80107537986726 30,374.80107537986726 Z" style="stroke-width: 0.3; stroke: rgb(51, 207, 84); fill-opacity: 0.65; fill: rgb(61, 248, 100);"/><path class="link" d="M 30,374.80107537986726 C 199.5,374.80107537986726 199.5,358.30112783858164 369,358.30112783858164 L 369,360.87161525887456 C 199.5,360.87161525887456 199.5,383.80321141144657 30,383.80321141144657 Z" style="stroke-width: 0.3; stroke: rgb(51, 207, 84); fill-opacity: 0.65; fill: rgb(61, 248, 100);"/><path class="link" d="M 30,383.80321141144657 C 199.5,383.80321141144657 199.5,360.8716152588746 369,360.8716152588746 L 369,363.44210267916753 C 199.5,363.44210267916753 199.5,392.8053474430259 30,392.8053474430259 Z" style="stroke-width: 0.3; stroke: rgb(51, 207, 84); fill-opacity: 0.65; fill: rgb(61, 248, 100);"/><path class="link" d="M 30,392.8053474430259 C 199.5,392.8053474430259 199.5,363.4421026791676 369,363.4421026791676 L 369,366.0125900994605 C 199.5,366.0125900994605 199.5,401.8074834746052 30,401.8074834746052 Z" style="stroke-width: 0.3; stroke: rgb(51, 207, 84); fill-opacity: 0.65; fill: rgb(61, 248, 100);"/><path class="link" d="M 30,401.8074834746052 C 199.5,401.8074834746052 199.5,366.01259009946057 369,366.01259009946057 L 369,368.5830775197535 C 199.5,368.5830775197535 199.5,410.8096195061845 30,410.8096195061845 Z" style="stroke-width: 0.3; stroke: rgb(51, 207, 84); fill-opacity: 0.65; fill: rgb(61, 248, 100);"/><path class="link" d="M 30,425.80961950618473 C 199.5,425.80961950618473 199.5,368.58307751975354 369,368.58307751975354 L 369,369.3074175479382 C 199.5,369.3074175479382 199.5,427.884933366322 30,427.884933366322 Z" style="stroke-width: 0.3; stroke: rgb(35, 200, 54); fill-opacity: 0.65; fill: rgb(42, 239, 64);"/><path class="link" d="M 30,427.88493336632206 C 199.5,427.88493336632206 199.5,369.30741754793814 369,369.30741754793814 L 369,370.0317575761228 C 199.5,370.0317575761228 199.5,429.96024722645933 30,429.96024722645933 Z" style="stroke-width: 0.3; stroke: rgb(35, 200, 54); fill-opacity: 0.65; fill: rgb(42, 239, 64);"/><path class="link" d="M 30,429.9602472264594 C 199.5,429.9602472264594 199.5,370.03175757612274 369,370.03175757612274 L 369,370.7560976043074 C 199.5,370.7560976043074 199.5,432.03556108659666 30,432.03556108659666 Z" style="stroke-width: 0.3; stroke: rgb(35, 200, 54); fill-opacity: 0.65; fill: rgb(42, 239, 64);"/><path class="link" d="M 30,432.0355610865967 C 199.5,432.0355610865967 199.5,370.75609760430734 369,370.75609760430734 L 369,371.480437632492 C 199.5,371.480437632492 199.5,434.110874946734 30,434.110874946734 Z" style="stroke-width: 0.3; stroke: rgb(35, 200, 54); fill-opacity: 0.65; fill: rgb(42, 239, 64);"/><path class="link" d="M 30,434.11087494673404 C 199.5,434.11087494673404 199.5,371.48043763249194 369,371.48043763249194 L 369,372.2047776606766 C 199.5,372.2047776606766 199.5,436.1861888068713 30,436.1861888068713 Z" style="stroke-width: 0.3; stroke: rgb(35, 200, 54); fill-opacity: 0.65; fill: rgb(42, 239, 64);"/><path class="link" d="M 30,436.18618880687137 C 199.5,436.18618880687137 199.5,372.20477766067654 369,372.20477766067654 L 369,372.9291176888612 C 199.5,372.9291176888612 199.5,438.26150266700864 30,438.26150266700864 Z" style="stroke-width: 0.3; stroke: rgb(35, 200, 54); fill-opacity: 0.65; fill: rgb(42, 239, 64);"/><path class="link" d="M 30,438.2615026670087 C 199.5,438.2615026670087 199.5,372.92911768886114 369,372.92911768886114 L 369,373.6534577170458 C 199.5,373.6534577170458 199.5,440.33681652714597 30,440.33681652714597 Z" style="stroke-width: 0.3; stroke: rgb(35, 200, 54); fill-opacity: 0.65; fill: rgb(42, 239, 64);"/><path class="link" d="M 30,440.336816527146 C 199.5,440.336816527146 199.5,373.65345771704574 369,373.65345771704574 L 369,374.3777977452304 C 199.5,374.3777977452304 199.5,442.4121303872833 30,442.4121303872833 Z" style="stroke-width: 0.3; stroke: rgb(35, 200, 54); fill-opacity: 0.65; fill: rgb(42, 239, 64);"/><path class="link" d="M 30,442.41213038728336 C 199.5,442.41213038728336 199.5,374.37779774523034 369,374.37779774523034 L 369,375.102137773415 C 199.5,375.102137773415 199.5,444.4874442474206 30,444.4874442474206 Z" style="stroke-width: 0.3; stroke: rgb(35, 200, 54); fill-opacity: 0.65; fill: rgb(42, 239, 64);"/><path class="link" d="M 30,444.4874442474207 C 199.5,444.4874442474207 199.5,375.10213777341494 369,375.10213777341494 L 369,375.8264778015996 C 199.5,375.8264778015996 199.5,446.56275810755795 30,446.56275810755795 Z" style="stroke-width: 0.3; stroke: rgb(35, 200, 54); fill-opacity: 0.65; fill: rgb(42, 239, 64);"/><path class="link" d="M 30,446.562758107558 C 199.5,446.562758107558 199.5,375.82647780159954 369,375.82647780159954 L 369,376.5508178297842 C 199.5,376.5508178297842 199.5,448.6380719676953 30,448.6380719676953 Z" style="stroke-width: 0.3; stroke: rgb(35, 200, 54); fill-opacity: 0.65; fill: rgb(42, 239, 64);"/><path class="link" d="M 30,448.63807196769534 C 199.5,448.63807196769534 199.5,376.55081782978414 369,376.55081782978414 L 369,377.2751578579688 C 199.5,377.2751578579688 199.5,450.7133858278326 30,450.7133858278326 Z" style="stroke-width: 0.3; stroke: rgb(35, 200, 54); fill-opacity: 0.65; fill: rgb(42, 239, 64);"/><path class="link" d="M 30,450.71338582783267 C 199.5,450.71338582783267 199.5,377.27515785796874 369,377.27515785796874 L 369,377.9994978861534 C 199.5,377.9994978861534 199.5,452.78869968796994 30,452.78869968796994 Z" style="stroke-width: 0.3; stroke: rgb(35, 200, 54); fill-opacity: 0.65; fill: rgb(42, 239, 64);"/><path class="link" d="M 30,452.78869968797 C 199.5,452.78869968797 199.5,377.99949788615334 369,377.99949788615334 L 369,378.723837914338 C 199.5,378.723837914338 199.5,454.86401354810727 30,454.86401354810727 Z" style="stroke-width: 0.3; stroke: rgb(35, 200, 54); fill-opacity: 0.65; fill: rgb(42, 239, 64);"/><path class="link" d="M 30,454.8640135481073 C 199.5,454.8640135481073 199.5,378.72383791433793 369,378.72383791433793 L 369,379.4481779425226 C 199.5,379.4481779425226 199.5,456.9393274082446 30,456.9393274082446 Z" style="stroke-width: 0.3; stroke: rgb(35, 200, 54); fill-opacity: 0.65; fill: rgb(42, 239, 64);"/><path class="link" d="M 30,456.93932740824465 C 199.5,456.93932740824465 199.5,379.44817794252253 369,379.44817794252253 L 369,380.1725179707072 C 199.5,380.1725179707072 199.5,459.0146412683819 30,459.0146412683819 Z" style="stroke-width: 0.3; stroke: rgb(35, 200, 54); fill-opacity: 0.65; fill: rgb(42, 239, 64);"/><path class="link" d="M 30,459.014641268382 C 199.5,459.014641268382 199.5,380.17251797070713 369,380.17251797070713 L 369,380.8968579988918 C 199.5,380.8968579988918 199.5,461.08995512851925 30,461.08995512851925 Z" style="stroke-width: 0.3; stroke: rgb(35, 200, 54); fill-opacity: 0.65; fill: rgb(42, 239, 64);"/><path class="link" d="M 30,461.0899551285193 C 199.5,461.0899551285193 199.5,380.89685799889173 369,380.89685799889173 L 369,381.6211980270764 C 199.5,381.6211980270764 199.5,463.1652689886566 30,463.1652689886566 Z" style="stroke-width: 0.3; stroke: rgb(35, 200, 54); fill-opacity: 0.65; fill: rgb(42, 239, 64);"/><path class="link" d="M 30,463.16526898865663 C 199.5,463.16526898865663 199.5,381.62119802707633 369,381.62119802707633 L 369,382.345538055261 C 199.5,382.345538055261 199.5,465.2405828487939 30,465.2405828487939 Z" style="stroke-width: 0.3; stroke: rgb(35, 200, 54); fill-opacity: 0.65; fill: rgb(42, 239, 64);"/><path class="link" d="M 30,465.24058284879396 C 199.5,465.24058284879396 199.5,382.34553805526093 369,382.34553805526093 L 369,383.0698780834456 C 199.5,383.0698780834456 199.5,467.31589670893123 30,467.31589670893123 Z" style="stroke-width: 0.3; stroke: rgb(35, 200, 54); fill-opacity: 0.65; fill: rgb(42, 239, 64);"/><path class="link" d="M 30,467.3158967089313 C 199.5,467.3158967089313 199.5,383.06987808344553 369,383.06987808344553 L 369,383.7942181116302 C 199.5,383.7942181116302 199.5,469.39121056906856 30,469.39121056906856 Z" style="stroke-width: 0.3; stroke: rgb(35, 200, 54); fill-opacity: 0.65; fill: rgb(42, 239, 64);"/><path class="link" d="M 30,469.3912105690686 C 199.5,469.3912105690686 199.5,383.79421811163013 369,383.79421811163013 L 369,384.5185581398148 C 199.5,384.5185581398148 199.5,471.4665244292059 30,471.4665244292059 Z" style="stroke-width: 0.3; stroke: rgb(35, 200, 54); fill-opacity: 0.65; fill: rgb(42, 239, 64);"/><path class="link" d="M 30,486.46341018766276 C 199.5,486.46341018766276 199.5,384.51855813981473 369,384.51855813981473 L 369,385.2428981679994 C 199.5,385.2428981679994 199.5,487.46341018766276 30,487.46341018766276 Z" style="stroke-width: 0.3; stroke: rgb(195, 151, 77); fill-opacity: 0.65; fill: rgb(233, 180, 92);"/><path class="link" d="M 30,487.45718170457747 C 199.5,487.45718170457747 199.5,385.24289816799933 369,385.24289816799933 L 369,385.967238196184 C 199.5,385.967238196184 199.5,488.45718170457747 30,488.45718170457747 Z" style="stroke-width: 0.3; stroke: rgb(195, 151, 77); fill-opacity: 0.65; fill: rgb(233, 180, 92);"/><path class="link" d="M 30,488.45095322149217 C 199.5,488.45095322149217 199.5,385.9672381961839 369,385.9672381961839 L 369,386.6915782243686 C 199.5,386.6915782243686 199.5,489.45095322149217 30,489.45095322149217 Z" style="stroke-width: 0.3; stroke: rgb(195, 151, 77); fill-opacity: 0.65; fill: rgb(233, 180, 92);"/><path class="link" d="M 30,489.4447247384069 C 199.5,489.4447247384069 199.5,386.6915782243685 369,386.6915782243685 L 369,387.4159182525532 C 199.5,387.4159182525532 199.5,490.4447247384069 30,490.4447247384069 Z" style="stroke-width: 0.3; stroke: rgb(195, 151, 77); fill-opacity: 0.65; fill: rgb(233, 180, 92);"/><path class="link" d="M 30,490.4384962553216 C 199.5,490.4384962553216 199.5,387.4159182525531 369,387.4159182525531 L 369,388.1402582807378 C 199.5,388.1402582807378 199.5,491.4384962553216 30,491.4384962553216 Z" style="stroke-width: 0.3; stroke: rgb(195, 151, 77); fill-opacity: 0.65; fill: rgb(233, 180, 92);"/><path class="link" d="M 30,491.4322677722363 C 199.5,491.4322677722363 199.5,388.1402582807377 369,388.1402582807377 L 369,388.8645983089224 C 199.5,388.8645983089224 199.5,492.4322677722363 30,492.4322677722363 Z" style="stroke-width: 0.3; stroke: rgb(195, 151, 77); fill-opacity: 0.65; fill: rgb(233, 180, 92);"/><path class="link" d="M 30,492.426039289151 C 199.5,492.426039289151 199.5,388.8645983089223 369,388.8645983089223 L 369,389.588938337107 C 199.5,389.588938337107 199.5,493.426039289151 30,493.426039289151 Z" style="stroke-width: 0.3; stroke: rgb(195, 151, 77); fill-opacity: 0.65; fill: rgb(233, 180, 92);"/><path class="link" d="M 30,493.4198108060657 C 199.5,493.4198108060657 199.5,389.5889383371069 369,389.5889383371069 L 369,390.3132783652916 C 199.5,390.3132783652916 199.5,494.4198108060657 30,494.4198108060657 Z" style="stroke-width: 0.3; stroke: rgb(195, 151, 77); fill-opacity: 0.65; fill: rgb(233, 180, 92);"/><path class="link" d="M 30,494.4135823229804 C 199.5,494.4135823229804 199.5,390.3132783652915 369,390.3132783652915 L 369,391.0376183934762 C 199.5,391.0376183934762 199.5,495.4135823229804 30,495.4135823229804 Z" style="stroke-width: 0.3; stroke: rgb(195, 151, 77); fill-opacity: 0.65; fill: rgb(233, 180, 92);"/><path class="link" d="M 30,495.4073538398951 C 199.5,495.4073538398951 199.5,391.0376183934761 369,391.0376183934761 L 369,391.7619584216608 C 199.5,391.7619584216608 199.5,496.4073538398951 30,496.4073538398951 Z" style="stroke-width: 0.3; stroke: rgb(195, 151, 77); fill-opacity: 0.65; fill: rgb(233, 180, 92);"/><path class="link" d="M 30,496.4011253568098 C 199.5,496.4011253568098 199.5,391.7619584216607 369,391.7619584216607 L 369,392.4862984498454 C 199.5,392.4862984498454 199.5,497.4011253568098 30,497.4011253568098 Z" style="stroke-width: 0.3; stroke: rgb(195, 151, 77); fill-opacity: 0.65; fill: rgb(233, 180, 92);"/><path class="link" d="M 30,497.3948968737245 C 199.5,497.3948968737245 199.5,392.4862984498453 369,392.4862984498453 L 369,393.21063847803 C 199.5,393.21063847803 199.5,498.3948968737245 30,498.3948968737245 Z" style="stroke-width: 0.3; stroke: rgb(195, 151, 77); fill-opacity: 0.65; fill: rgb(233, 180, 92);"/><path class="link" d="M 30,498.3886683906392 C 199.5,498.3886683906392 199.5,393.2106384780299 369,393.2106384780299 L 369,393.9349785062146 C 199.5,393.9349785062146 199.5,499.3886683906392 30,499.3886683906392 Z" style="stroke-width: 0.3; stroke: rgb(195, 151, 77); fill-opacity: 0.65; fill: rgb(233, 180, 92);"/><path class="link" d="M 30,499.38243990755393 C 199.5,499.38243990755393 199.5,393.9349785062145 369,393.9349785062145 L 369,394.6593185343992 C 199.5,394.6593185343992 199.5,500.38243990755393 30,500.38243990755393 Z" style="stroke-width: 0.3; stroke: rgb(195, 151, 77); fill-opacity: 0.65; fill: rgb(233, 180, 92);"/><path class="link" d="M 30,500.37621142446864 C 199.5,500.37621142446864 199.5,394.6593185343991 369,394.6593185343991 L 369,395.3836585625838 C 199.5,395.3836585625838 199.5,501.37621142446864 30,501.37621142446864 Z" style="stroke-width: 0.3; stroke: rgb(195, 151, 77); fill-opacity: 0.65; fill: rgb(233, 180, 92);"/><path class="link" d="M 30,501.36998294138334 C 199.5,501.36998294138334 199.5,395.3836585625837 369,395.3836585625837 L 369,396.1079985907684 C 199.5,396.1079985907684 199.5,502.36998294138334 30,502.36998294138334 Z" style="stroke-width: 0.3; stroke: rgb(195, 151, 77); fill-opacity: 0.65; fill: rgb(233, 180, 92);"/><path class="link" d="M 30,502.36375445829805 C 199.5,502.36375445829805 199.5,396.1079985907683 369,396.1079985907683 L 369,396.832338618953 C 199.5,396.832338618953 199.5,503.36375445829805 30,503.36375445829805 Z" style="stroke-width: 0.3; stroke: rgb(195, 151, 77); fill-opacity: 0.65; fill: rgb(233, 180, 92);"/><path class="link" d="M 30,503.35752597521275 C 199.5,503.35752597521275 199.5,396.8323386189529 369,396.8323386189529 L 369,397.5566786471376 C 199.5,397.5566786471376 199.5,504.35752597521275 30,504.35752597521275 Z" style="stroke-width: 0.3; stroke: rgb(195, 151, 77); fill-opacity: 0.65; fill: rgb(233, 180, 92);"/><path class="link" d="M 30,504.35129749212746 C 199.5,504.35129749212746 199.5,397.5566786471375 369,397.5566786471375 L 369,398.2810186753222 C 199.5,398.2810186753222 199.5,505.35129749212746 30,505.35129749212746 Z" style="stroke-width: 0.3; stroke: rgb(195, 151, 77); fill-opacity: 0.65; fill: rgb(233, 180, 92);"/><path class="link" d="M 30,505.34506900904216 C 199.5,505.34506900904216 199.5,398.2810186753221 369,398.2810186753221 L 369,399.0053587035068 C 199.5,399.0053587035068 199.5,506.34506900904216 30,506.34506900904216 Z" style="stroke-width: 0.3; stroke: rgb(195, 151, 77); fill-opacity: 0.65; fill: rgb(233, 180, 92);"/><path class="link" d="M 30,506.33884052595687 C 199.5,506.33884052595687 199.5,399.0053587035067 369,399.0053587035067 L 369,399.72969873169137 C 199.5,399.72969873169137 199.5,507.33884052595687 30,507.33884052595687 Z" style="stroke-width: 0.3; stroke: rgb(195, 151, 77); fill-opacity: 0.65; fill: rgb(233, 180, 92);"/><path class="link" d="M 30,507.3326120428716 C 199.5,507.3326120428716 199.5,399.7296987316913 369,399.7296987316913 L 369,400.45403875987597 C 199.5,400.45403875987597 199.5,508.3326120428716 30,508.3326120428716 Z" style="stroke-width: 0.3; stroke: rgb(195, 151, 77); fill-opacity: 0.65; fill: rgb(233, 180, 92);"/><path class="link" d="M 30,523.1656311306509 C 199.5,523.1656311306509 199.5,400.4540387598759 369,400.4540387598759 L 369,401.17837878806057 C 199.5,401.17837878806057 199.5,524.1656311306509 30,524.1656311306509 Z" style="stroke-width: 0.3; stroke: rgb(206, 67, 29); fill-opacity: 0.65; fill: rgb(246, 80, 35);"/><path class="link" d="M 30,523.837897789295 C 199.5,523.837897789295 199.5,401.1783787880605 369,401.1783787880605 L 369,401.90271881624517 C 199.5,401.90271881624517 199.5,524.837897789295 30,524.837897789295 Z" style="stroke-width: 0.3; stroke: rgb(206, 67, 29); fill-opacity: 0.65; fill: rgb(246, 80, 35);"/><path class="link" d="M 30,524.510164447939 C 199.5,524.510164447939 199.5,401.9027188162451 369,401.9027188162451 L 369,402.62705884442977 C 199.5,402.62705884442977 199.5,525.510164447939 30,525.510164447939 Z" style="stroke-width: 0.3; stroke: rgb(206, 67, 29); fill-opacity: 0.65; fill: rgb(246, 80, 35);"/><path class="link" d="M 30,525.1824311065831 C 199.5,525.1824311065831 199.5,402.6270588444297 369,402.6270588444297 L 369,403.35139887261437 C 199.5,403.35139887261437 199.5,526.1824311065831 30,526.1824311065831 Z" style="stroke-width: 0.3; stroke: rgb(206, 67, 29); fill-opacity: 0.65; fill: rgb(246, 80, 35);"/><path class="link" d="M 30,525.8546977652271 C 199.5,525.8546977652271 199.5,403.3513988726143 369,403.3513988726143 L 369,404.07573890079897 C 199.5,404.07573890079897 199.5,526.8546977652271 30,526.8546977652271 Z" style="stroke-width: 0.3; stroke: rgb(206, 67, 29); fill-opacity: 0.65; fill: rgb(246, 80, 35);"/><path class="link" d="M 30,526.5269644238712 C 199.5,526.5269644238712 199.5,404.0757389007989 369,404.0757389007989 L 369,404.80007892898357 C 199.5,404.80007892898357 199.5,527.5269644238712 30,527.5269644238712 Z" style="stroke-width: 0.3; stroke: rgb(206, 67, 29); fill-opacity: 0.65; fill: rgb(246, 80, 35);"/><path class="link" d="M 30,527.1992310825152 C 199.5,527.1992310825152 199.5,404.8000789289835 369,404.8000789289835 L 369,405.52441895716817 C 199.5,405.52441895716817 199.5,528.1992310825152 30,528.1992310825152 Z" style="stroke-width: 0.3; stroke: rgb(206, 67, 29); fill-opacity: 0.65; fill: rgb(246, 80, 35);"/><path class="link" d="M 30,527.8714977411593 C 199.5,527.8714977411593 199.5,405.5244189571681 369,405.5244189571681 L 369,406.24875898535277 C 199.5,406.24875898535277 199.5,528.8714977411593 30,528.8714977411593 Z" style="stroke-width: 0.3; stroke: rgb(206, 67, 29); fill-opacity: 0.65; fill: rgb(246, 80, 35);"/><path class="link" d="M 30,528.5437643998033 C 199.5,528.5437643998033 199.5,406.2487589853527 369,406.2487589853527 L 369,406.97309901353736 C 199.5,406.97309901353736 199.5,529.5437643998033 30,529.5437643998033 Z" style="stroke-width: 0.3; stroke: rgb(206, 67, 29); fill-opacity: 0.65; fill: rgb(246, 80, 35);"/><path class="link" d="M 30,529.2160310584474 C 199.5,529.2160310584474 199.5,406.9730990135373 369,406.9730990135373 L 369,407.69743904172196 C 199.5,407.69743904172196 199.5,530.2160310584474 30,530.2160310584474 Z" style="stroke-width: 0.3; stroke: rgb(206, 67, 29); fill-opacity: 0.65; fill: rgb(246, 80, 35);"/><path class="link" d="M 30,529.8882977170914 C 199.5,529.8882977170914 199.5,407.6974390417219 369,407.6974390417219 L 369,408.42177906990656 C 199.5,408.42177906990656 199.5,530.8882977170914 30,530.8882977170914 Z" style="stroke-width: 0.3; stroke: rgb(206, 67, 29); fill-opacity: 0.65; fill: rgb(246, 80, 35);"/><path class="link" d="M 30,530.5605643757355 C 199.5,530.5605643757355 199.5,408.4217790699065 369,408.4217790699065 L 369,409.14611909809116 C 199.5,409.14611909809116 199.5,531.5605643757355 30,531.5605643757355 Z" style="stroke-width: 0.3; stroke: rgb(206, 67, 29); fill-opacity: 0.65; fill: rgb(246, 80, 35);"/><path class="link" d="M 30,531.2328310343795 C 199.5,531.2328310343795 199.5,409.1461190980911 369,409.1461190980911 L 369,409.87045912627576 C 199.5,409.87045912627576 199.5,532.2328310343795 30,532.2328310343795 Z" style="stroke-width: 0.3; stroke: rgb(206, 67, 29); fill-opacity: 0.65; fill: rgb(246, 80, 35);"/><path class="link" d="M 30,531.9050976930235 C 199.5,531.9050976930235 199.5,409.8704591262757 369,409.8704591262757 L 369,410.59479915446036 C 199.5,410.59479915446036 199.5,532.9050976930235 30,532.9050976930235 Z" style="stroke-width: 0.3; stroke: rgb(206, 67, 29); fill-opacity: 0.65; fill: rgb(246, 80, 35);"/><path class="link" d="M 30,532.5773643516676 C 199.5,532.5773643516676 199.5,410.5947991544603 369,410.5947991544603 L 369,411.31913918264496 C 199.5,411.31913918264496 199.5,533.5773643516676 30,533.5773643516676 Z" style="stroke-width: 0.3; stroke: rgb(206, 67, 29); fill-opacity: 0.65; fill: rgb(246, 80, 35);"/><path class="link" d="M 30,533.2496310103116 C 199.5,533.2496310103116 199.5,411.3191391826449 369,411.3191391826449 L 369,412.04347921082956 C 199.5,412.04347921082956 199.5,534.2496310103116 30,534.2496310103116 Z" style="stroke-width: 0.3; stroke: rgb(206, 67, 29); fill-opacity: 0.65; fill: rgb(246, 80, 35);"/><path class="link" d="M 30,533.9218976689557 C 199.5,533.9218976689557 199.5,412.0434792108295 369,412.0434792108295 L 369,412.76781923901416 C 199.5,412.76781923901416 199.5,534.9218976689557 30,534.9218976689557 Z" style="stroke-width: 0.3; stroke: rgb(206, 67, 29); fill-opacity: 0.65; fill: rgb(246, 80, 35);"/><path class="link" d="M 30,534.5941643275997 C 199.5,534.5941643275997 199.5,412.7678192390141 369,412.7678192390141 L 369,413.49215926719876 C 199.5,413.49215926719876 199.5,535.5941643275997 30,535.5941643275997 Z" style="stroke-width: 0.3; stroke: rgb(206, 67, 29); fill-opacity: 0.65; fill: rgb(246, 80, 35);"/><path class="link" d="M 30,535.2664309862438 C 199.5,535.2664309862438 199.5,413.4921592671987 369,413.4921592671987 L 369,414.21649929538336 C 199.5,414.21649929538336 199.5,536.2664309862438 30,536.2664309862438 Z" style="stroke-width: 0.3; stroke: rgb(206, 67, 29); fill-opacity: 0.65; fill: rgb(246, 80, 35);"/><path class="link" d="M 30,535.9386976448878 C 199.5,535.9386976448878 199.5,414.2164992953833 369,414.2164992953833 L 369,414.94083932356796 C 199.5,414.94083932356796 199.5,536.9386976448878 30,536.9386976448878 Z" style="stroke-width: 0.3; stroke: rgb(206, 67, 29); fill-opacity: 0.65; fill: rgb(246, 80, 35);"/><path class="link" d="M 30,536.6109643035319 C 199.5,536.6109643035319 199.5,414.9408393235679 369,414.9408393235679 L 369,415.66517935175256 C 199.5,415.66517935175256 199.5,537.6109643035319 30,537.6109643035319 Z" style="stroke-width: 0.3; stroke: rgb(206, 67, 29); fill-opacity: 0.65; fill: rgb(246, 80, 35);"/><path class="link" d="M 30,537.2832309621759 C 199.5,537.2832309621759 199.5,415.6651793517525 369,415.6651793517525 L 369,416.38951937993716 C 199.5,416.38951937993716 199.5,538.2832309621759 30,538.2832309621759 Z" style="stroke-width: 0.3; stroke: rgb(206, 67, 29); fill-opacity: 0.65; fill: rgb(246, 80, 35);"/><path class="link" d="M 30,552.8897498773028 C 199.5,552.8897498773028 199.5,416.3895193799371 369,416.3895193799371 L 369,417.11385940812175 C 199.5,417.11385940812175 199.5,553.8897498773028 30,553.8897498773028 Z" style="stroke-width: 0.3; stroke: rgb(37, 201, 119); fill-opacity: 0.65; fill: rgb(44, 240, 142);"/><path class="link" d="M 30,553.4305210489141 C 199.5,553.4305210489141 199.5,417.1138594081217 369,417.1138594081217 L 369,417.83819943630635 C 199.5,417.83819943630635 199.5,554.4305210489141 30,554.4305210489141 Z" style="stroke-width: 0.3; stroke: rgb(37, 201, 119); fill-opacity: 0.65; fill: rgb(44, 240, 142);"/><path class="link" d="M 30,553.9712922205254 C 199.5,553.9712922205254 199.5,417.8381994363063 369,417.8381994363063 L 369,418.56253946449095 C 199.5,418.56253946449095 199.5,554.9712922205254 30,554.9712922205254 Z" style="stroke-width: 0.3; stroke: rgb(37, 201, 119); fill-opacity: 0.65; fill: rgb(44, 240, 142);"/><path class="link" d="M 30,554.5120633921366 C 199.5,554.5120633921366 199.5,418.5625394644909 369,418.5625394644909 L 369,419.28687949267555 C 199.5,419.28687949267555 199.5,555.5120633921366 30,555.5120633921366 Z" style="stroke-width: 0.3; stroke: rgb(37, 201, 119); fill-opacity: 0.65; fill: rgb(44, 240, 142);"/><path class="link" d="M 30,555.0528345637479 C 199.5,555.0528345637479 199.5,419.2868794926755 369,419.2868794926755 L 369,420.01121952086015 C 199.5,420.01121952086015 199.5,556.0528345637479 30,556.0528345637479 Z" style="stroke-width: 0.3; stroke: rgb(37, 201, 119); fill-opacity: 0.65; fill: rgb(44, 240, 142);"/><path class="link" d="M 30,555.5936057353591 C 199.5,555.5936057353591 199.5,420.0112195208601 369,420.0112195208601 L 369,420.73555954904475 C 199.5,420.73555954904475 199.5,556.5936057353591 30,556.5936057353591 Z" style="stroke-width: 0.3; stroke: rgb(37, 201, 119); fill-opacity: 0.65; fill: rgb(44, 240, 142);"/><path class="link" d="M 30,556.1343769069704 C 199.5,556.1343769069704 199.5,420.7355595490447 369,420.7355595490447 L 369,421.45989957722935 C 199.5,421.45989957722935 199.5,557.1343769069704 30,557.1343769069704 Z" style="stroke-width: 0.3; stroke: rgb(37, 201, 119); fill-opacity: 0.65; fill: rgb(44, 240, 142);"/><path class="link" d="M 30,556.6751480785816 C 199.5,556.6751480785816 199.5,421.4598995772293 369,421.4598995772293 L 369,422.18423960541395 C 199.5,422.18423960541395 199.5,557.6751480785816 30,557.6751480785816 Z" style="stroke-width: 0.3; stroke: rgb(37, 201, 119); fill-opacity: 0.65; fill: rgb(44, 240, 142);"/><path class="link" d="M 30,557.2159192501929 C 199.5,557.2159192501929 199.5,422.1842396054139 369,422.1842396054139 L 369,422.90857963359855 C 199.5,422.90857963359855 199.5,558.2159192501929 30,558.2159192501929 Z" style="stroke-width: 0.3; stroke: rgb(37, 201, 119); fill-opacity: 0.65; fill: rgb(44, 240, 142);"/><path class="link" d="M 30,557.7566904218041 C 199.5,557.7566904218041 199.5,422.9085796335985 369,422.9085796335985 L 369,423.63291966178315 C 199.5,423.63291966178315 199.5,558.7566904218041 30,558.7566904218041 Z" style="stroke-width: 0.3; stroke: rgb(37, 201, 119); fill-opacity: 0.65; fill: rgb(44, 240, 142);"/><path class="link" d="M 30,558.2974615934154 C 199.5,558.2974615934154 199.5,423.6329196617831 369,423.6329196617831 L 369,424.35725968996775 C 199.5,424.35725968996775 199.5,559.2974615934154 30,559.2974615934154 Z" style="stroke-width: 0.3; stroke: rgb(37, 201, 119); fill-opacity: 0.65; fill: rgb(44, 240, 142);"/><path class="link" d="M 30,558.8382327650266 C 199.5,558.8382327650266 199.5,424.3572596899677 369,424.3572596899677 L 369,425.08159971815235 C 199.5,425.08159971815235 199.5,559.8382327650266 30,559.8382327650266 Z" style="stroke-width: 0.3; stroke: rgb(37, 201, 119); fill-opacity: 0.65; fill: rgb(44, 240, 142);"/><path class="link" d="M 30,559.3790039366379 C 199.5,559.3790039366379 199.5,425.0815997181523 369,425.0815997181523 L 369,425.80593974633695 C 199.5,425.80593974633695 199.5,560.3790039366379 30,560.3790039366379 Z" style="stroke-width: 0.3; stroke: rgb(37, 201, 119); fill-opacity: 0.65; fill: rgb(44, 240, 142);"/><path class="link" d="M 30,559.9197751082492 C 199.5,559.9197751082492 199.5,425.8059397463369 369,425.8059397463369 L 369,426.53027977452155 C 199.5,426.53027977452155 199.5,560.9197751082492 30,560.9197751082492 Z" style="stroke-width: 0.3; stroke: rgb(37, 201, 119); fill-opacity: 0.65; fill: rgb(44, 240, 142);"/><path class="link" d="M 30,560.4605462798604 C 199.5,560.4605462798604 199.5,426.5302797745215 369,426.5302797745215 L 369,427.25461980270615 C 199.5,427.25461980270615 199.5,561.4605462798604 30,561.4605462798604 Z" style="stroke-width: 0.3; stroke: rgb(37, 201, 119); fill-opacity: 0.65; fill: rgb(44, 240, 142);"/><path class="link" d="M 30,561.0013174514717 C 199.5,561.0013174514717 199.5,427.2546198027061 369,427.2546198027061 L 369,427.97895983089074 C 199.5,427.97895983089074 199.5,562.0013174514717 30,562.0013174514717 Z" style="stroke-width: 0.3; stroke: rgb(37, 201, 119); fill-opacity: 0.65; fill: rgb(44, 240, 142);"/><path class="link" d="M 30,561.5420886230829 C 199.5,561.5420886230829 199.5,427.9789598308907 369,427.9789598308907 L 369,428.70329985907534 C 199.5,428.70329985907534 199.5,562.5420886230829 30,562.5420886230829 Z" style="stroke-width: 0.3; stroke: rgb(37, 201, 119); fill-opacity: 0.65; fill: rgb(44, 240, 142);"/><path class="link" d="M 30,562.0828597946942 C 199.5,562.0828597946942 199.5,428.7032998590753 369,428.7032998590753 L 369,429.42763988725994 C 199.5,429.42763988725994 199.5,563.0828597946942 30,563.0828597946942 Z" style="stroke-width: 0.3; stroke: rgb(37, 201, 119); fill-opacity: 0.65; fill: rgb(44, 240, 142);"/><path class="link" d="M 30,562.6236309663054 C 199.5,562.6236309663054 199.5,429.4276398872599 369,429.4276398872599 L 369,430.15197991544454 C 199.5,430.15197991544454 199.5,563.6236309663054 30,563.6236309663054 Z" style="stroke-width: 0.3; stroke: rgb(37, 201, 119); fill-opacity: 0.65; fill: rgb(44, 240, 142);"/><path class="link" d="M 30,563.1644021379167 C 199.5,563.1644021379167 199.5,430.1519799154445 369,430.1519799154445 L 369,430.87631994362914 C 199.5,430.87631994362914 199.5,564.1644021379167 30,564.1644021379167 Z" style="stroke-width: 0.3; stroke: rgb(37, 201, 119); fill-opacity: 0.65; fill: rgb(44, 240, 142);"/><path class="link" d="M 30,563.7051733095279 C 199.5,563.7051733095279 199.5,430.8763199436291 369,430.8763199436291 L 369,431.60065997181374 C 199.5,431.60065997181374 199.5,564.7051733095279 30,564.7051733095279 Z" style="stroke-width: 0.3; stroke: rgb(37, 201, 119); fill-opacity: 0.65; fill: rgb(44, 240, 142);"/><path class="link" d="M 30,564.2459444811392 C 199.5,564.2459444811392 199.5,431.6006599718137 369,431.6006599718137 L 369,432.32499999999834 C 199.5,432.32499999999834 199.5,565.2459444811392 30,565.2459444811392 Z" style="stroke-width: 0.3; stroke: rgb(37, 201, 119); fill-opacity: 0.65; fill: rgb(44, 240, 142);"/><path class="link" d="M 399,431.3324142747999 C 568.5,431.3324142747999 568.5,730 738,730 L 738,731 C 568.5,731 568.5,432.325 399,432.325 Z" style="stroke-width: 0.3; stroke: rgb(51, 207, 84); fill-opacity: 0.65; fill: rgb(61, 248, 100);"/></g><g class="nodes"><g class="node" transform="translate(369,298.675)"><circle cx="15" cy="66.825" r="66.825" fill="none" stroke="#333" stroke-width="1.5"/><defs><clipPath id="clip-central-Kazakhstan_selected_role"><circle cx="15" cy="66.825" r="66.075"/></clipPath></defs><circle cx="15" cy="66.825" r="66.825" fill="#cccccc" stroke="#333" stroke-width="1.5" clip-path="url(#clip-central-Kazakhstan_selected_role)"/><text class="sankey-node-label-text" x="15" y="-8" dy="0" text-anchor="middle" style="font-size: 10px; fill: rgb(51, 51, 51); font-weight: bold; font-family: &quot;Times New Roman&quot;, Times, serif;">Kazakhstan</text></g><g class="node" transform="translate(0,425.80961950618473)"><rect height="45.656904923020704" width="30" fill="rgb(42, 239, 64)" stroke="#333" stroke-width="0.5"/><text class="sankey-node-label-text" x="-10" y="22.828452461510352" dy="0.35em" text-anchor="end" style="font-size: 10px; fill: rgb(51, 51, 51); font-weight: normal; font-family: &quot;Times New Roman&quot;, Times, serif;">China 142,010</text></g><g class="node" transform="translate(0,486.46652442920544)"><rect height="21.862973372123463" width="30" fill="rgb(233, 180, 92)" stroke="#333" stroke-width="0.5"/><text class="sankey-node-label-text" x="-10" y="10.931486686061731" dy="0.35em" text-anchor="end" style="font-size: 10px; fill: rgb(51, 51, 51); font-weight: normal; font-family: &quot;Times New Roman&quot;, Times, serif;">Mongolia 68,002</text></g><g class="node" transform="translate(0,553.1193642914972)"><rect height="11.89696577544862" width="30" fill="rgb(44, 240, 142)" stroke="#333" stroke-width="0.5"/><text class="sankey-node-label-text" x="-10" y="5.94848288772431" dy="0.35em" text-anchor="end" style="font-size: 10px; fill: rgb(51, 51, 51); font-weight: normal; font-family: &quot;Times New Roman&quot;, Times, serif;">Russia 37,004</text></g><g class="node" transform="translate(0,523.3294978013289)"><rect height="14.789866490168265" width="30" fill="rgb(246, 80, 35)" stroke="#333" stroke-width="0.5"/><text class="sankey-node-label-text" x="-10" y="7.3949332450841325" dy="0.35em" text-anchor="end" style="font-size: 10px; fill: rgb(51, 51, 51); font-weight: normal; font-family: &quot;Times New Roman&quot;, Times, serif;">Turkmenistan 46,002</text></g><g class="node" transform="translate(0,165.98366993305422)"><rect height="244.82594957313052" width="30" fill="rgb(61, 248, 100)" stroke="#333" stroke-width="0.5"/><text class="sankey-node-label-text" x="-10" y="122.41297478656526" dy="0.35em" text-anchor="end" style="font-size: 10px; fill: rgb(51, 51, 51); font-weight: normal; font-family: &quot;Times New Roman&quot;, Times, serif;">Uzbekistan 761,500</text></g><g class="node" transform="translate(738,-0.4954989319842298)"><rect height="715.9909978639685" width="30" fill="rgb(44, 240, 142)" stroke="#333" stroke-width="0.5"/><text class="sankey-node-label-text" x="40" y="357.99549893198423" dy="0.35em" text-anchor="start" style="font-size: 10px; fill: rgb(51, 51, 51); font-weight: normal; font-family: &quot;Times New Roman&quot;, Times, serif;">Russia 2,226,999</text></g><g class="node" transform="translate(738,730.4954989319842)"><rect height="1" width="30" fill="rgb(61, 248, 100)" stroke="#333" stroke-width="0.5"/><text class="sankey-node-label-text" x="40" y="0.5" dy="0.35em" text-anchor="start" style="font-size: 10px; fill: rgb(51, 51, 51); font-weight: normal; font-family: &quot;Times New Roman&quot;, Times, serif;">Uzbekistan 28</text></g></g></g><defs><marker id="arrowhead" viewBox="0 -5 10 10" refX="10" refY="0" markerWidth="6" markerHeight="6" orient="auto"><path d="M0,-5L10,0L0,5" fill="#333"/></marker></defs></svg>