<?xml version="1.0" encoding="UTF-8" standalone="no"?>
<!-- Created with Inkscape (http://www.inkscape.org/) -->

<svg
   width="257.13901mm"
   height="218.758mm"
   viewBox="0 0 257.139 218.75799"
   version="1.1"
   id="svg1"
   xml:space="preserve"
   xmlns="http://www.w3.org/2000/svg"
   xmlns:svg="http://www.w3.org/2000/svg"><defs
     id="defs1"><clipPath
       id="clip-central-Kazakhstan_selected_role"><circle
         cx="15"
         cy="66.824997"
         r="66.074997"
         id="circle133" /></clipPath><marker
       id="arrowhead"
       viewBox="0 -5 10 10"
       refX="10"
       refY="0"
       markerWidth="6"
       markerHeight="6"
       orient="auto"><path
         d="M 0,-5 10,0 0,5"
         fill="#333333"
         id="path143" /></marker></defs><g
     id="layer1"
     transform="translate(19.529943,-43.55246)"><g
       transform="matrix(0.26458333,0,0,0.26458333,9.992116,64.453879)"
       id="g143"><g
         class="direction-arrow-group"
         transform="translate(0,-40)"
         id="g2"><line
           x1="0"
           y1="0"
           x2="768"
           y2="0"
           stroke="#333333"
           stroke-width="1.5"
           marker-end="url(#arrowhead)"
           id="line1" /><text
           x="0"
           y="-10"
           text-anchor="start"
           style="font-weight:bold;font-size:12px;font-family:'Times New Roman', Times, serif"
           id="text1">Immigration to Kazakhstan</text><text
           x="768"
           y="-10"
           text-anchor="end"
           style="font-weight:bold;font-size:12px;font-family:'Times New Roman', Times, serif"
           id="text2">Emigration from Kazakhstan</text></g><g
         class="links"
         id="g132"><path
           class="link"
           d="m 399,298.675 c 169.5,0 169.5,-299.17049893 339,-299.17049893 V 50.594517 c -169.5,0 -169.5,257.546343 -339,257.546343 z"
           style="fill:#2cf08e;fill-opacity:0.65;stroke:#25c977;stroke-width:0.3"
           id="path2" /><path
           class="link"
           d="m 399,308.14086 c 169.5,0 169.5,-257.546343 339,-257.546343 v 51.090013 c -169.5,0 -169.5,215.92219 -339,215.92219 z"
           style="fill:#2cf08e;fill-opacity:0.65;stroke:#25c977;stroke-width:0.3"
           id="path3" /><path
           class="link"
           d="m 399,317.60672 c 169.5,0 169.5,-215.92219 339,-215.92219 v 51.09002 c -169.5,0 -169.5,174.29803 -339,174.29803 z"
           style="fill:#2cf08e;fill-opacity:0.65;stroke:#25c977;stroke-width:0.3"
           id="path4" /><path
           class="link"
           d="m 399,327.07258 c 169.5,0 169.5,-174.29803 339,-174.29803 v 51.09001 c -169.5,0 -169.5,132.67387 -339,132.67387 z"
           style="fill:#2cf08e;fill-opacity:0.65;stroke:#25c977;stroke-width:0.3"
           id="path5" /><path
           class="link"
           d="m 399,336.53843 c 169.5,0 169.5,-132.67387 339,-132.67387 v 51.09002 c -169.5,0 -169.5,91.04971 -339,91.04971 z"
           style="fill:#2cf08e;fill-opacity:0.65;stroke:#25c977;stroke-width:0.3"
           id="path6" /><path
           class="link"
           d="m 399,346.00429 c 169.5,0 169.5,-91.04971 339,-91.04971 v 51.09001 c -169.5,0 -169.5,49.42556 -339,49.42556 z"
           style="fill:#2cf08e;fill-opacity:0.65;stroke:#25c977;stroke-width:0.3"
           id="path7" /><path
           class="link"
           d="m 399,355.47015 c 169.5,0 169.5,-49.42556 339,-49.42556 v 51.09002 c -169.5,0 -169.5,7.8014 -339,7.8014 z"
           style="fill:#2cf08e;fill-opacity:0.65;stroke:#25c977;stroke-width:0.3"
           id="path8" /><path
           class="link"
           d="m 399,364.93601 c 169.5,0 169.5,-7.8014 339,-7.8014 v 51.09002 c -169.5,0 -169.5,-33.82276 -339,-33.82276 z"
           style="fill:#2cf08e;fill-opacity:0.65;stroke:#25c977;stroke-width:0.3"
           id="path9" /><path
           class="link"
           d="m 399,374.40187 c 169.5,0 169.5,33.82276 339,33.82276 v 51.09001 c -169.5,0 -169.5,-75.44691 -339,-75.44691 z"
           style="fill:#2cf08e;fill-opacity:0.65;stroke:#25c977;stroke-width:0.3"
           id="path10" /><path
           class="link"
           d="m 399,383.86773 c 169.5,0 169.5,75.44691 339,75.44691 v 51.09002 c -169.5,0 -169.5,-117.07108 -339,-117.07108 z"
           style="fill:#2cf08e;fill-opacity:0.65;stroke:#25c977;stroke-width:0.3"
           id="path11" /><path
           class="link"
           d="m 399,393.33358 c 169.5,0 169.5,117.07108 339,117.07108 v 51.09001 c -169.5,0 -169.5,-158.69523 -339,-158.69523 z"
           style="fill:#2cf08e;fill-opacity:0.65;stroke:#25c977;stroke-width:0.3"
           id="path12" /><path
           class="link"
           d="m 30,165.98367 c 169.5,0 169.5,132.69133 339,132.69133 v 6.88523 c -169.5,0 -169.5,-115.4637 -339,-115.4637 z"
           style="fill:#3df864;fill-opacity:0.65;stroke:#33cf54;stroke-width:0.3"
           id="path13" /><path
           class="link"
           d="m 399,402.79944 c 169.5,0 169.5,158.69523 339,158.69523 v 19.25011 c -169.5,0 -169.5,-174.37872 -339,-174.37872 z"
           style="fill:#2cf08e;fill-opacity:0.65;stroke:#25c977;stroke-width:0.3"
           id="path14" /><path
           class="link"
           d="m 399,406.36606 c 169.5,0 169.5,174.37872 339,174.37872 v 19.2501 c -169.5,0 -169.5,-190.0622 -339,-190.0622 z"
           style="fill:#2cf08e;fill-opacity:0.65;stroke:#25c977;stroke-width:0.3"
           id="path15" /><path
           class="link"
           d="m 399,409.93268 c 169.5,0 169.5,190.0622 339,190.0622 v 19.2501 c -169.5,0 -169.5,-205.74567 -339,-205.74567 z"
           style="fill:#2cf08e;fill-opacity:0.65;stroke:#25c977;stroke-width:0.3"
           id="path16" /><path
           class="link"
           d="m 399,413.49931 c 169.5,0 169.5,205.74567 339,205.74567 v 19.25011 c -169.5,0 -169.5,-221.42916 -339,-221.42916 z"
           style="fill:#2cf08e;fill-opacity:0.65;stroke:#25c977;stroke-width:0.3"
           id="path17" /><path
           class="link"
           d="m 399,417.06593 c 169.5,0 169.5,221.42916 339,221.42916 v 19.2501 c -169.5,0 -169.5,-237.11264 -339,-237.11264 z"
           style="fill:#2cf08e;fill-opacity:0.65;stroke:#25c977;stroke-width:0.3"
           id="path18" /><path
           class="link"
           d="m 399,420.63255 c 169.5,0 169.5,237.11264 339,237.11264 v 19.2501 c -169.5,0 -169.5,-252.79612 -339,-252.79612 z"
           style="fill:#2cf08e;fill-opacity:0.65;stroke:#25c977;stroke-width:0.3"
           id="path19" /><path
           class="link"
           d="m 399,424.19917 c 169.5,0 169.5,252.79612 339,252.79612 v 19.25011 c -169.5,0 -169.5,-268.47961 -339,-268.47961 z"
           style="fill:#2cf08e;fill-opacity:0.65;stroke:#25c977;stroke-width:0.3"
           id="path20" /><path
           class="link"
           d="m 399,427.76579 c 169.5,0 169.5,268.47961 339,268.47961 v 19.2501 c -169.5,0 -169.5,-284.16309 -339,-284.16309 z"
           style="fill:#2cf08e;fill-opacity:0.65;stroke:#25c977;stroke-width:0.3"
           id="path21" /><path
           class="link"
           d="m 30,190.09653 c 169.5,0 169.5,115.4637 339,115.4637 v 4.72786 c -169.5,0 -169.5,-103.63406 -339,-103.63406 z"
           style="fill:#3df864;fill-opacity:0.65;stroke:#33cf54;stroke-width:0.3"
           id="path22" /><path
           class="link"
           d="m 30,206.65403 c 169.5,0 169.5,103.63406 339,103.63406 v 4.72787 c -169.5,0 -169.5,-91.80443 -339,-91.80443 z"
           style="fill:#3df864;fill-opacity:0.65;stroke:#33cf54;stroke-width:0.3"
           id="path23" /><path
           class="link"
           d="m 30,223.21153 c 169.5,0 169.5,91.80443 339,91.80443 v 4.72786 c -169.5,0 -169.5,-79.97479 -339,-79.97479 z"
           style="fill:#3df864;fill-opacity:0.65;stroke:#33cf54;stroke-width:0.3"
           id="path24" /><path
           class="link"
           d="m 30,239.76903 c 169.5,0 169.5,79.97479 339,79.97479 v 2.57048 c -169.5,0 -169.5,-73.54313 -339,-73.54313 z"
           style="fill:#3df864;fill-opacity:0.65;stroke:#33cf54;stroke-width:0.3"
           id="path25" /><path
           class="link"
           d="m 30,248.77117 c 169.5,0 169.5,73.54313 339,73.54313 v 2.57049 c -169.5,0 -169.5,-67.11148 -339,-67.11148 z"
           style="fill:#3df864;fill-opacity:0.65;stroke:#33cf54;stroke-width:0.3"
           id="path26" /><path
           class="link"
           d="m 30,257.77331 c 169.5,0 169.5,67.11148 339,67.11148 v 2.57049 c -169.5,0 -169.5,-60.67984 -339,-60.67984 z"
           style="fill:#3df864;fill-opacity:0.65;stroke:#33cf54;stroke-width:0.3"
           id="path27" /><path
           class="link"
           d="m 30,266.77544 c 169.5,0 169.5,60.67984 339,60.67984 v 2.57049 c -169.5,0 -169.5,-54.24819 -339,-54.24819 z"
           style="fill:#3df864;fill-opacity:0.65;stroke:#33cf54;stroke-width:0.3"
           id="path28" /><path
           class="link"
           d="m 30,275.77758 c 169.5,0 169.5,54.24819 339,54.24819 v 2.57048 c -169.5,0 -169.5,-47.81653 -339,-47.81653 z"
           style="fill:#3df864;fill-opacity:0.65;stroke:#33cf54;stroke-width:0.3"
           id="path29" /><path
           class="link"
           d="m 30,284.77972 c 169.5,0 169.5,47.81653 339,47.81653 v 2.57049 c -169.5,0 -169.5,-41.38489 -339,-41.38489 z"
           style="fill:#3df864;fill-opacity:0.65;stroke:#33cf54;stroke-width:0.3"
           id="path30" /><path
           class="link"
           d="m 30,293.78185 c 169.5,0 169.5,41.38489 339,41.38489 v 2.57049 c -169.5,0 -169.5,-34.95324 -339,-34.95324 z"
           style="fill:#3df864;fill-opacity:0.65;stroke:#33cf54;stroke-width:0.3"
           id="path31" /><path
           class="link"
           d="m 30,302.78399 c 169.5,0 169.5,34.95324 339,34.95324 v 2.57049 c -169.5,0 -169.5,-28.5216 -339,-28.5216 z"
           style="fill:#3df864;fill-opacity:0.65;stroke:#33cf54;stroke-width:0.3"
           id="path32" /><path
           class="link"
           d="m 30,311.78612 c 169.5,0 169.5,28.5216 339,28.5216 v 2.57048 c -169.5,0 -169.5,-22.08994 -339,-22.08994 z"
           style="fill:#3df864;fill-opacity:0.65;stroke:#33cf54;stroke-width:0.3"
           id="path33" /><path
           class="link"
           d="m 30,320.78826 c 169.5,0 169.5,22.08994 339,22.08994 v 2.57049 c -169.5,0 -169.5,-15.65829 -339,-15.65829 z"
           style="fill:#3df864;fill-opacity:0.65;stroke:#33cf54;stroke-width:0.3"
           id="path34" /><path
           class="link"
           d="m 30,329.7904 c 169.5,0 169.5,15.65829 339,15.65829 v 2.57049 c -169.5,0 -169.5,-9.22665 -339,-9.22665 z"
           style="fill:#3df864;fill-opacity:0.65;stroke:#33cf54;stroke-width:0.3"
           id="path35" /><path
           class="link"
           d="m 30,338.79253 c 169.5,0 169.5,9.22665 339,9.22665 v 2.57049 c -169.5,0 -169.5,-2.795 -339,-2.795 z"
           style="fill:#3df864;fill-opacity:0.65;stroke:#33cf54;stroke-width:0.3"
           id="path36" /><path
           class="link"
           d="m 30,347.79467 c 169.5,0 169.5,2.795 339,2.795 v 2.57048 c -169.5,0 -169.5,3.63665 -339,3.63665 z"
           style="fill:#3df864;fill-opacity:0.65;stroke:#33cf54;stroke-width:0.3"
           id="path37" /><path
           class="link"
           d="m 30,356.7968 c 169.5,0 169.5,-3.63665 339,-3.63665 v 2.57049 c -169.5,0 -169.5,10.0683 -339,10.0683 z"
           style="fill:#3df864;fill-opacity:0.65;stroke:#33cf54;stroke-width:0.3"
           id="path38" /><path
           class="link"
           d="m 30,365.79894 c 169.5,0 169.5,-10.0683 339,-10.0683 v 2.57049 c -169.5,0 -169.5,16.49995 -339,16.49995 z"
           style="fill:#3df864;fill-opacity:0.65;stroke:#33cf54;stroke-width:0.3"
           id="path39" /><path
           class="link"
           d="m 30,374.80108 c 169.5,0 169.5,-16.49995 339,-16.49995 v 2.57049 c -169.5,0 -169.5,22.93159 -339,22.93159 z"
           style="fill:#3df864;fill-opacity:0.65;stroke:#33cf54;stroke-width:0.3"
           id="path40" /><path
           class="link"
           d="m 30,383.80321 c 169.5,0 169.5,-22.93159 339,-22.93159 v 2.57048 c -169.5,0 -169.5,29.36325 -339,29.36325 z"
           style="fill:#3df864;fill-opacity:0.65;stroke:#33cf54;stroke-width:0.3"
           id="path41" /><path
           class="link"
           d="m 30,392.80535 c 169.5,0 169.5,-29.36325 339,-29.36325 v 2.57049 c -169.5,0 -169.5,35.79489 -339,35.79489 z"
           style="fill:#3df864;fill-opacity:0.65;stroke:#33cf54;stroke-width:0.3"
           id="path42" /><path
           class="link"
           d="m 30,401.80748 c 169.5,0 169.5,-35.79489 339,-35.79489 v 2.57049 c -169.5,0 -169.5,42.22654 -339,42.22654 z"
           style="fill:#3df864;fill-opacity:0.65;stroke:#33cf54;stroke-width:0.3"
           id="path43" /><path
           class="link"
           d="m 30,425.80962 c 169.5,0 169.5,-57.22654 339,-57.22654 v 0.72434 c -169.5,0 -169.5,58.57751 -339,58.57751 z"
           style="fill:#2aef40;fill-opacity:0.65;stroke:#23c836;stroke-width:0.3"
           id="path44" /><path
           class="link"
           d="m 30,427.88493 c 169.5,0 169.5,-58.57751 339,-58.57751 v 0.72434 c -169.5,0 -169.5,59.92849 -339,59.92849 z"
           style="fill:#2aef40;fill-opacity:0.65;stroke:#23c836;stroke-width:0.3"
           id="path45" /><path
           class="link"
           d="m 30,429.96025 c 169.5,0 169.5,-59.92849 339,-59.92849 v 0.72434 c -169.5,0 -169.5,61.27946 -339,61.27946 z"
           style="fill:#2aef40;fill-opacity:0.65;stroke:#23c836;stroke-width:0.3"
           id="path46" /><path
           class="link"
           d="m 30,432.03556 c 169.5,0 169.5,-61.27946 339,-61.27946 v 0.72434 c -169.5,0 -169.5,62.63043 -339,62.63043 z"
           style="fill:#2aef40;fill-opacity:0.65;stroke:#23c836;stroke-width:0.3"
           id="path47" /><path
           class="link"
           d="m 30,434.11087 c 169.5,0 169.5,-62.63043 339,-62.63043 v 0.72434 c -169.5,0 -169.5,63.98141 -339,63.98141 z"
           style="fill:#2aef40;fill-opacity:0.65;stroke:#23c836;stroke-width:0.3"
           id="path48" /><path
           class="link"
           d="m 30,436.18619 c 169.5,0 169.5,-63.98141 339,-63.98141 v 0.72434 c -169.5,0 -169.5,65.33238 -339,65.33238 z"
           style="fill:#2aef40;fill-opacity:0.65;stroke:#23c836;stroke-width:0.3"
           id="path49" /><path
           class="link"
           d="m 30,438.2615 c 169.5,0 169.5,-65.33238 339,-65.33238 v 0.72434 c -169.5,0 -169.5,66.68336 -339,66.68336 z"
           style="fill:#2aef40;fill-opacity:0.65;stroke:#23c836;stroke-width:0.3"
           id="path50" /><path
           class="link"
           d="m 30,440.33682 c 169.5,0 169.5,-66.68336 339,-66.68336 v 0.72434 c -169.5,0 -169.5,68.03433 -339,68.03433 z"
           style="fill:#2aef40;fill-opacity:0.65;stroke:#23c836;stroke-width:0.3"
           id="path51" /><path
           class="link"
           d="m 30,442.41213 c 169.5,0 169.5,-68.03433 339,-68.03433 v 0.72434 c -169.5,0 -169.5,69.3853 -339,69.3853 z"
           style="fill:#2aef40;fill-opacity:0.65;stroke:#23c836;stroke-width:0.3"
           id="path52" /><path
           class="link"
           d="m 30,444.48744 c 169.5,0 169.5,-69.3853 339,-69.3853 v 0.72434 c -169.5,0 -169.5,70.73628 -339,70.73628 z"
           style="fill:#2aef40;fill-opacity:0.65;stroke:#23c836;stroke-width:0.3"
           id="path53" /><path
           class="link"
           d="m 30,446.56276 c 169.5,0 169.5,-70.73628 339,-70.73628 v 0.72434 c -169.5,0 -169.5,72.08725 -339,72.08725 z"
           style="fill:#2aef40;fill-opacity:0.65;stroke:#23c836;stroke-width:0.3"
           id="path54" /><path
           class="link"
           d="m 30,448.63807 c 169.5,0 169.5,-72.08725 339,-72.08725 v 0.72434 c -169.5,0 -169.5,73.43823 -339,73.43823 z"
           style="fill:#2aef40;fill-opacity:0.65;stroke:#23c836;stroke-width:0.3"
           id="path55" /><path
           class="link"
           d="m 30,450.71339 c 169.5,0 169.5,-73.43823 339,-73.43823 v 0.72434 c -169.5,0 -169.5,74.7892 -339,74.7892 z"
           style="fill:#2aef40;fill-opacity:0.65;stroke:#23c836;stroke-width:0.3"
           id="path56" /><path
           class="link"
           d="m 30,452.7887 c 169.5,0 169.5,-74.7892 339,-74.7892 v 0.72434 c -169.5,0 -169.5,76.14017 -339,76.14017 z"
           style="fill:#2aef40;fill-opacity:0.65;stroke:#23c836;stroke-width:0.3"
           id="path57" /><path
           class="link"
           d="m 30,454.86401 c 169.5,0 169.5,-76.14017 339,-76.14017 v 0.72434 c -169.5,0 -169.5,77.49115 -339,77.49115 z"
           style="fill:#2aef40;fill-opacity:0.65;stroke:#23c836;stroke-width:0.3"
           id="path58" /><path
           class="link"
           d="m 30,456.93933 c 169.5,0 169.5,-77.49115 339,-77.49115 v 0.72434 c -169.5,0 -169.5,78.84212 -339,78.84212 z"
           style="fill:#2aef40;fill-opacity:0.65;stroke:#23c836;stroke-width:0.3"
           id="path59" /><path
           class="link"
           d="m 30,459.01464 c 169.5,0 169.5,-78.84212 339,-78.84212 v 0.72434 c -169.5,0 -169.5,80.1931 -339,80.1931 z"
           style="fill:#2aef40;fill-opacity:0.65;stroke:#23c836;stroke-width:0.3"
           id="path60" /><path
           class="link"
           d="m 30,461.08996 c 169.5,0 169.5,-80.1931 339,-80.1931 v 0.72434 c -169.5,0 -169.5,81.54407 -339,81.54407 z"
           style="fill:#2aef40;fill-opacity:0.65;stroke:#23c836;stroke-width:0.3"
           id="path61" /><path
           class="link"
           d="m 30,463.16527 c 169.5,0 169.5,-81.54407 339,-81.54407 v 0.72434 c -169.5,0 -169.5,82.89504 -339,82.89504 z"
           style="fill:#2aef40;fill-opacity:0.65;stroke:#23c836;stroke-width:0.3"
           id="path62" /><path
           class="link"
           d="m 30,465.24058 c 169.5,0 169.5,-82.89504 339,-82.89504 v 0.72434 c -169.5,0 -169.5,84.24602 -339,84.24602 z"
           style="fill:#2aef40;fill-opacity:0.65;stroke:#23c836;stroke-width:0.3"
           id="path63" /><path
           class="link"
           d="m 30,467.3159 c 169.5,0 169.5,-84.24602 339,-84.24602 v 0.72434 c -169.5,0 -169.5,85.59699 -339,85.59699 z"
           style="fill:#2aef40;fill-opacity:0.65;stroke:#23c836;stroke-width:0.3"
           id="path64" /><path
           class="link"
           d="m 30,469.39121 c 169.5,0 169.5,-85.59699 339,-85.59699 v 0.72434 c -169.5,0 -169.5,86.94796 -339,86.94796 z"
           style="fill:#2aef40;fill-opacity:0.65;stroke:#23c836;stroke-width:0.3"
           id="path65" /><path
           class="link"
           d="m 30,486.46341 c 169.5,0 169.5,-101.94485 339,-101.94485 v 0.72434 c -169.5,0 -169.5,102.22051 -339,102.22051 z"
           style="fill:#e9b45c;fill-opacity:0.65;stroke:#c3974d;stroke-width:0.3"
           id="path66" /><path
           class="link"
           d="m 30,487.45718 c 169.5,0 169.5,-102.21428 339,-102.21428 v 0.72434 c -169.5,0 -169.5,102.48994 -339,102.48994 z"
           style="fill:#e9b45c;fill-opacity:0.65;stroke:#c3974d;stroke-width:0.3"
           id="path67" /><path
           class="link"
           d="m 30,488.45095 c 169.5,0 169.5,-102.48371 339,-102.48371 v 0.72434 c -169.5,0 -169.5,102.75937 -339,102.75937 z"
           style="fill:#e9b45c;fill-opacity:0.65;stroke:#c3974d;stroke-width:0.3"
           id="path68" /><path
           class="link"
           d="m 30,489.44472 c 169.5,0 169.5,-102.75314 339,-102.75314 v 0.72434 c -169.5,0 -169.5,103.0288 -339,103.0288 z"
           style="fill:#e9b45c;fill-opacity:0.65;stroke:#c3974d;stroke-width:0.3"
           id="path69" /><path
           class="link"
           d="m 30,490.4385 c 169.5,0 169.5,-103.02258 339,-103.02258 v 0.72434 c -169.5,0 -169.5,103.29824 -339,103.29824 z"
           style="fill:#e9b45c;fill-opacity:0.65;stroke:#c3974d;stroke-width:0.3"
           id="path70" /><path
           class="link"
           d="m 30,491.43227 c 169.5,0 169.5,-103.29201 339,-103.29201 v 0.72434 c -169.5,0 -169.5,103.56767 -339,103.56767 z"
           style="fill:#e9b45c;fill-opacity:0.65;stroke:#c3974d;stroke-width:0.3"
           id="path71" /><path
           class="link"
           d="m 30,492.42604 c 169.5,0 169.5,-103.56144 339,-103.56144 v 0.72434 c -169.5,0 -169.5,103.8371 -339,103.8371 z"
           style="fill:#e9b45c;fill-opacity:0.65;stroke:#c3974d;stroke-width:0.3"
           id="path72" /><path
           class="link"
           d="m 30,493.41981 c 169.5,0 169.5,-103.83087 339,-103.83087 v 0.72434 c -169.5,0 -169.5,104.10653 -339,104.10653 z"
           style="fill:#e9b45c;fill-opacity:0.65;stroke:#c3974d;stroke-width:0.3"
           id="path73" /><path
           class="link"
           d="m 30,494.41358 c 169.5,0 169.5,-104.1003 339,-104.1003 v 0.72434 c -169.5,0 -169.5,104.37596 -339,104.37596 z"
           style="fill:#e9b45c;fill-opacity:0.65;stroke:#c3974d;stroke-width:0.3"
           id="path74" /><path
           class="link"
           d="m 30,495.40735 c 169.5,0 169.5,-104.36973 339,-104.36973 v 0.72434 c -169.5,0 -169.5,104.64539 -339,104.64539 z"
           style="fill:#e9b45c;fill-opacity:0.65;stroke:#c3974d;stroke-width:0.3"
           id="path75" /><path
           class="link"
           d="m 30,496.40113 c 169.5,0 169.5,-104.63917 339,-104.63917 v 0.72434 c -169.5,0 -169.5,104.91483 -339,104.91483 z"
           style="fill:#e9b45c;fill-opacity:0.65;stroke:#c3974d;stroke-width:0.3"
           id="path76" /><path
           class="link"
           d="m 30,497.3949 c 169.5,0 169.5,-104.9086 339,-104.9086 v 0.72434 c -169.5,0 -169.5,105.18426 -339,105.18426 z"
           style="fill:#e9b45c;fill-opacity:0.65;stroke:#c3974d;stroke-width:0.3"
           id="path77" /><path
           class="link"
           d="m 30,498.38867 c 169.5,0 169.5,-105.17803 339,-105.17803 v 0.72434 c -169.5,0 -169.5,105.45369 -339,105.45369 z"
           style="fill:#e9b45c;fill-opacity:0.65;stroke:#c3974d;stroke-width:0.3"
           id="path78" /><path
           class="link"
           d="m 30,499.38244 c 169.5,0 169.5,-105.44746 339,-105.44746 v 0.72434 c -169.5,0 -169.5,105.72312 -339,105.72312 z"
           style="fill:#e9b45c;fill-opacity:0.65;stroke:#c3974d;stroke-width:0.3"
           id="path79" /><path
           class="link"
           d="m 30,500.37621 c 169.5,0 169.5,-105.71689 339,-105.71689 v 0.72434 c -169.5,0 -169.5,105.99255 -339,105.99255 z"
           style="fill:#e9b45c;fill-opacity:0.65;stroke:#c3974d;stroke-width:0.3"
           id="path80" /><path
           class="link"
           d="m 30,501.36998 c 169.5,0 169.5,-105.98632 339,-105.98632 v 0.72434 c -169.5,0 -169.5,106.26198 -339,106.26198 z"
           style="fill:#e9b45c;fill-opacity:0.65;stroke:#c3974d;stroke-width:0.3"
           id="path81" /><path
           class="link"
           d="m 30,502.36375 c 169.5,0 169.5,-106.25575 339,-106.25575 v 0.72434 c -169.5,0 -169.5,106.53141 -339,106.53141 z"
           style="fill:#e9b45c;fill-opacity:0.65;stroke:#c3974d;stroke-width:0.3"
           id="path82" /><path
           class="link"
           d="m 30,503.35753 c 169.5,0 169.5,-106.52519 339,-106.52519 v 0.72434 c -169.5,0 -169.5,106.80085 -339,106.80085 z"
           style="fill:#e9b45c;fill-opacity:0.65;stroke:#c3974d;stroke-width:0.3"
           id="path83" /><path
           class="link"
           d="m 30,504.3513 c 169.5,0 169.5,-106.79462 339,-106.79462 v 0.72434 c -169.5,0 -169.5,107.07028 -339,107.07028 z"
           style="fill:#e9b45c;fill-opacity:0.65;stroke:#c3974d;stroke-width:0.3"
           id="path84" /><path
           class="link"
           d="m 30,505.34507 c 169.5,0 169.5,-107.06405 339,-107.06405 v 0.72434 c -169.5,0 -169.5,107.33971 -339,107.33971 z"
           style="fill:#e9b45c;fill-opacity:0.65;stroke:#c3974d;stroke-width:0.3"
           id="path85" /><path
           class="link"
           d="m 30,506.33884 c 169.5,0 169.5,-107.33348 339,-107.33348 v 0.72434 c -169.5,0 -169.5,107.60914 -339,107.60914 z"
           style="fill:#e9b45c;fill-opacity:0.65;stroke:#c3974d;stroke-width:0.3"
           id="path86" /><path
           class="link"
           d="m 30,507.33261 c 169.5,0 169.5,-107.60291 339,-107.60291 v 0.72434 c -169.5,0 -169.5,107.87857 -339,107.87857 z"
           style="fill:#e9b45c;fill-opacity:0.65;stroke:#c3974d;stroke-width:0.3"
           id="path87" /><path
           class="link"
           d="m 30,523.16563 c 169.5,0 169.5,-122.71159 339,-122.71159 v 0.72434 c -169.5,0 -169.5,122.98725 -339,122.98725 z"
           style="fill:#f65023;fill-opacity:0.65;stroke:#ce431d;stroke-width:0.3"
           id="path88" /><path
           class="link"
           d="m 30,523.8379 c 169.5,0 169.5,-122.65952 339,-122.65952 v 0.72434 c -169.5,0 -169.5,122.93518 -339,122.93518 z"
           style="fill:#f65023;fill-opacity:0.65;stroke:#ce431d;stroke-width:0.3"
           id="path89" /><path
           class="link"
           d="m 30,524.51016 c 169.5,0 169.5,-122.60744 339,-122.60744 v 0.72434 c -169.5,0 -169.5,122.8831 -339,122.8831 z"
           style="fill:#f65023;fill-opacity:0.65;stroke:#ce431d;stroke-width:0.3"
           id="path90" /><path
           class="link"
           d="m 30,525.18243 c 169.5,0 169.5,-122.55537 339,-122.55537 v 0.72434 c -169.5,0 -169.5,122.83103 -339,122.83103 z"
           style="fill:#f65023;fill-opacity:0.65;stroke:#ce431d;stroke-width:0.3"
           id="path91" /><path
           class="link"
           d="m 30,525.8547 c 169.5,0 169.5,-122.5033 339,-122.5033 v 0.72434 c -169.5,0 -169.5,122.77896 -339,122.77896 z"
           style="fill:#f65023;fill-opacity:0.65;stroke:#ce431d;stroke-width:0.3"
           id="path92" /><path
           class="link"
           d="m 30,526.52696 c 169.5,0 169.5,-122.45122 339,-122.45122 v 0.72434 c -169.5,0 -169.5,122.72688 -339,122.72688 z"
           style="fill:#f65023;fill-opacity:0.65;stroke:#ce431d;stroke-width:0.3"
           id="path93" /><path
           class="link"
           d="m 30,527.19923 c 169.5,0 169.5,-122.39915 339,-122.39915 v 0.72434 c -169.5,0 -169.5,122.67481 -339,122.67481 z"
           style="fill:#f65023;fill-opacity:0.65;stroke:#ce431d;stroke-width:0.3"
           id="path94" /><path
           class="link"
           d="m 30,527.8715 c 169.5,0 169.5,-122.34708 339,-122.34708 v 0.72434 c -169.5,0 -169.5,122.62274 -339,122.62274 z"
           style="fill:#f65023;fill-opacity:0.65;stroke:#ce431d;stroke-width:0.3"
           id="path95" /><path
           class="link"
           d="m 30,528.54376 c 169.5,0 169.5,-122.295 339,-122.295 v 0.72434 c -169.5,0 -169.5,122.57066 -339,122.57066 z"
           style="fill:#f65023;fill-opacity:0.65;stroke:#ce431d;stroke-width:0.3"
           id="path96" /><path
           class="link"
           d="m 30,529.21603 c 169.5,0 169.5,-122.24293 339,-122.24293 v 0.72434 c -169.5,0 -169.5,122.51859 -339,122.51859 z"
           style="fill:#f65023;fill-opacity:0.65;stroke:#ce431d;stroke-width:0.3"
           id="path97" /><path
           class="link"
           d="m 30,529.8883 c 169.5,0 169.5,-122.19086 339,-122.19086 v 0.72434 c -169.5,0 -169.5,122.46652 -339,122.46652 z"
           style="fill:#f65023;fill-opacity:0.65;stroke:#ce431d;stroke-width:0.3"
           id="path98" /><path
           class="link"
           d="m 30,530.56056 c 169.5,0 169.5,-122.13878 339,-122.13878 v 0.72434 c -169.5,0 -169.5,122.41444 -339,122.41444 z"
           style="fill:#f65023;fill-opacity:0.65;stroke:#ce431d;stroke-width:0.3"
           id="path99" /><path
           class="link"
           d="m 30,531.23283 c 169.5,0 169.5,-122.08671 339,-122.08671 v 0.72434 c -169.5,0 -169.5,122.36237 -339,122.36237 z"
           style="fill:#f65023;fill-opacity:0.65;stroke:#ce431d;stroke-width:0.3"
           id="path100" /><path
           class="link"
           d="m 30,531.9051 c 169.5,0 169.5,-122.03464 339,-122.03464 v 0.72434 c -169.5,0 -169.5,122.3103 -339,122.3103 z"
           style="fill:#f65023;fill-opacity:0.65;stroke:#ce431d;stroke-width:0.3"
           id="path101" /><path
           class="link"
           d="m 30,532.57736 c 169.5,0 169.5,-121.98256 339,-121.98256 v 0.72434 c -169.5,0 -169.5,122.25822 -339,122.25822 z"
           style="fill:#f65023;fill-opacity:0.65;stroke:#ce431d;stroke-width:0.3"
           id="path102" /><path
           class="link"
           d="m 30,533.24963 c 169.5,0 169.5,-121.93049 339,-121.93049 v 0.72434 c -169.5,0 -169.5,122.20615 -339,122.20615 z"
           style="fill:#f65023;fill-opacity:0.65;stroke:#ce431d;stroke-width:0.3"
           id="path103" /><path
           class="link"
           d="m 30,533.9219 c 169.5,0 169.5,-121.87842 339,-121.87842 v 0.72434 c -169.5,0 -169.5,122.15408 -339,122.15408 z"
           style="fill:#f65023;fill-opacity:0.65;stroke:#ce431d;stroke-width:0.3"
           id="path104" /><path
           class="link"
           d="m 30,534.59416 c 169.5,0 169.5,-121.82634 339,-121.82634 v 0.72434 c -169.5,0 -169.5,122.102 -339,122.102 z"
           style="fill:#f65023;fill-opacity:0.65;stroke:#ce431d;stroke-width:0.3"
           id="path105" /><path
           class="link"
           d="m 30,535.26643 c 169.5,0 169.5,-121.77427 339,-121.77427 v 0.72434 c -169.5,0 -169.5,122.04993 -339,122.04993 z"
           style="fill:#f65023;fill-opacity:0.65;stroke:#ce431d;stroke-width:0.3"
           id="path106" /><path
           class="link"
           d="m 30,535.9387 c 169.5,0 169.5,-121.7222 339,-121.7222 v 0.72434 c -169.5,0 -169.5,121.99786 -339,121.99786 z"
           style="fill:#f65023;fill-opacity:0.65;stroke:#ce431d;stroke-width:0.3"
           id="path107" /><path
           class="link"
           d="m 30,536.61096 c 169.5,0 169.5,-121.67012 339,-121.67012 v 0.72434 c -169.5,0 -169.5,121.94578 -339,121.94578 z"
           style="fill:#f65023;fill-opacity:0.65;stroke:#ce431d;stroke-width:0.3"
           id="path108" /><path
           class="link"
           d="m 30,537.28323 c 169.5,0 169.5,-121.61805 339,-121.61805 v 0.72434 c -169.5,0 -169.5,121.89371 -339,121.89371 z"
           style="fill:#f65023;fill-opacity:0.65;stroke:#ce431d;stroke-width:0.3"
           id="path109" /><path
           class="link"
           d="m 30,552.88975 c 169.5,0 169.5,-136.50023 339,-136.50023 v 0.72434 c -169.5,0 -169.5,136.77589 -339,136.77589 z"
           style="fill:#2cf08e;fill-opacity:0.65;stroke:#25c977;stroke-width:0.3"
           id="path110" /><path
           class="link"
           d="m 30,553.43052 c 169.5,0 169.5,-136.31666 339,-136.31666 v 0.72434 c -169.5,0 -169.5,136.59232 -339,136.59232 z"
           style="fill:#2cf08e;fill-opacity:0.65;stroke:#25c977;stroke-width:0.3"
           id="path111" /><path
           class="link"
           d="m 30,553.97129 c 169.5,0 169.5,-136.13309 339,-136.13309 v 0.72434 c -169.5,0 -169.5,136.40875 -339,136.40875 z"
           style="fill:#2cf08e;fill-opacity:0.65;stroke:#25c977;stroke-width:0.3"
           id="path112" /><path
           class="link"
           d="m 30,554.51206 c 169.5,0 169.5,-135.94952 339,-135.94952 v 0.72434 c -169.5,0 -169.5,136.22518 -339,136.22518 z"
           style="fill:#2cf08e;fill-opacity:0.65;stroke:#25c977;stroke-width:0.3"
           id="path113" /><path
           class="link"
           d="m 30,555.05283 c 169.5,0 169.5,-135.76595 339,-135.76595 v 0.72434 c -169.5,0 -169.5,136.04161 -339,136.04161 z"
           style="fill:#2cf08e;fill-opacity:0.65;stroke:#25c977;stroke-width:0.3"
           id="path114" /><path
           class="link"
           d="m 30,555.59361 c 169.5,0 169.5,-135.58239 339,-135.58239 v 0.72434 c -169.5,0 -169.5,135.85805 -339,135.85805 z"
           style="fill:#2cf08e;fill-opacity:0.65;stroke:#25c977;stroke-width:0.3"
           id="path115" /><path
           class="link"
           d="m 30,556.13438 c 169.5,0 169.5,-135.39882 339,-135.39882 v 0.72434 c -169.5,0 -169.5,135.67448 -339,135.67448 z"
           style="fill:#2cf08e;fill-opacity:0.65;stroke:#25c977;stroke-width:0.3"
           id="path116" /><path
           class="link"
           d="m 30,556.67515 c 169.5,0 169.5,-135.21525 339,-135.21525 v 0.72434 c -169.5,0 -169.5,135.49091 -339,135.49091 z"
           style="fill:#2cf08e;fill-opacity:0.65;stroke:#25c977;stroke-width:0.3"
           id="path117" /><path
           class="link"
           d="m 30,557.21592 c 169.5,0 169.5,-135.03168 339,-135.03168 v 0.72434 c -169.5,0 -169.5,135.30734 -339,135.30734 z"
           style="fill:#2cf08e;fill-opacity:0.65;stroke:#25c977;stroke-width:0.3"
           id="path118" /><path
           class="link"
           d="m 30,557.75669 c 169.5,0 169.5,-134.84811 339,-134.84811 v 0.72434 c -169.5,0 -169.5,135.12377 -339,135.12377 z"
           style="fill:#2cf08e;fill-opacity:0.65;stroke:#25c977;stroke-width:0.3"
           id="path119" /><path
           class="link"
           d="m 30,558.29746 c 169.5,0 169.5,-134.66454 339,-134.66454 v 0.72434 c -169.5,0 -169.5,134.9402 -339,134.9402 z"
           style="fill:#2cf08e;fill-opacity:0.65;stroke:#25c977;stroke-width:0.3"
           id="path120" /><path
           class="link"
           d="m 30,558.83823 c 169.5,0 169.5,-134.48097 339,-134.48097 v 0.72434 c -169.5,0 -169.5,134.75663 -339,134.75663 z"
           style="fill:#2cf08e;fill-opacity:0.65;stroke:#25c977;stroke-width:0.3"
           id="path121" /><path
           class="link"
           d="m 30,559.379 c 169.5,0 169.5,-134.2974 339,-134.2974 v 0.72434 c -169.5,0 -169.5,134.57306 -339,134.57306 z"
           style="fill:#2cf08e;fill-opacity:0.65;stroke:#25c977;stroke-width:0.3"
           id="path122" /><path
           class="link"
           d="m 30,559.91978 c 169.5,0 169.5,-134.11384 339,-134.11384 v 0.72434 c -169.5,0 -169.5,134.3895 -339,134.3895 z"
           style="fill:#2cf08e;fill-opacity:0.65;stroke:#25c977;stroke-width:0.3"
           id="path123" /><path
           class="link"
           d="m 30,560.46055 c 169.5,0 169.5,-133.93027 339,-133.93027 v 0.72434 c -169.5,0 -169.5,134.20593 -339,134.20593 z"
           style="fill:#2cf08e;fill-opacity:0.65;stroke:#25c977;stroke-width:0.3"
           id="path124" /><path
           class="link"
           d="m 30,561.00132 c 169.5,0 169.5,-133.7467 339,-133.7467 v 0.72434 c -169.5,0 -169.5,134.02236 -339,134.02236 z"
           style="fill:#2cf08e;fill-opacity:0.65;stroke:#25c977;stroke-width:0.3"
           id="path125" /><path
           class="link"
           d="m 30,561.54209 c 169.5,0 169.5,-133.56313 339,-133.56313 v 0.72434 c -169.5,0 -169.5,133.83879 -339,133.83879 z"
           style="fill:#2cf08e;fill-opacity:0.65;stroke:#25c977;stroke-width:0.3"
           id="path126" /><path
           class="link"
           d="m 30,562.08286 c 169.5,0 169.5,-133.37956 339,-133.37956 v 0.72434 c -169.5,0 -169.5,133.65522 -339,133.65522 z"
           style="fill:#2cf08e;fill-opacity:0.65;stroke:#25c977;stroke-width:0.3"
           id="path127" /><path
           class="link"
           d="m 30,562.62363 c 169.5,0 169.5,-133.19599 339,-133.19599 v 0.72434 c -169.5,0 -169.5,133.47165 -339,133.47165 z"
           style="fill:#2cf08e;fill-opacity:0.65;stroke:#25c977;stroke-width:0.3"
           id="path128" /><path
           class="link"
           d="m 30,563.1644 c 169.5,0 169.5,-133.01242 339,-133.01242 v 0.72434 c -169.5,0 -169.5,133.28808 -339,133.28808 z"
           style="fill:#2cf08e;fill-opacity:0.65;stroke:#25c977;stroke-width:0.3"
           id="path129" /><path
           class="link"
           d="m 30,563.70517 c 169.5,0 169.5,-132.82885 339,-132.82885 v 0.72434 c -169.5,0 -169.5,133.10451 -339,133.10451 z"
           style="fill:#2cf08e;fill-opacity:0.65;stroke:#25c977;stroke-width:0.3"
           id="path130" /><path
           class="link"
           d="m 30,564.24594 c 169.5,0 169.5,-132.64528 339,-132.64528 v 0.72434 c -169.5,0 -169.5,132.92094 -339,132.92094 z"
           style="fill:#2cf08e;fill-opacity:0.65;stroke:#25c977;stroke-width:0.3"
           id="path131" /><path
           class="link"
           d="M 399,431.33241 C 568.5,431.33241 568.5,730 738,730 v 1 C 568.5,731 568.5,432.325 399,432.325 Z"
           style="fill:#3df864;fill-opacity:0.65;stroke:#33cf54;stroke-width:0.3"
           id="path132" /></g><g
         class="nodes"
         id="g142"><g
           class="node"
           transform="translate(369,298.675)"
           id="g134"><circle
             cx="15"
             cy="66.824997"
             r="66.824997"
             fill="none"
             stroke="#333333"
             stroke-width="1.5"
             id="circle132" /><defs
             id="defs133"><clipPath
               id="clipPath1"><circle
                 cx="15"
                 cy="66.824997"
                 r="66.074997"
                 id="circle1" /></clipPath></defs><circle
             cx="15"
             cy="66.824997"
             r="66.824997"
             fill="#cccccc"
             stroke="#333333"
             stroke-width="1.5"
             clip-path="url(#clip-central-Kazakhstan_selected_role)"
             id="circle134" /><text
             class="sankey-node-label-text"
             x="15"
             y="-8"
             dy="0"
             text-anchor="middle"
             style="font-weight:bold;font-size:10px;font-family:'Times New Roman', Times, serif;fill:#333333"
             id="text134">Kazakhstan</text></g><g
           class="node"
           transform="translate(0,425.80962)"
           id="g135"><rect
             height="45.656906"
             width="30"
             fill="#2aef40"
             stroke="#333333"
             stroke-width="0.5"
             id="rect134"
             x="0"
             y="0" /><text
             class="sankey-node-label-text"
             x="-10"
             y="22.828453"
             dy="0.34999999em"
             text-anchor="end"
             style="font-weight:normal;font-size:10px;font-family:'Times New Roman', Times, serif;fill:#333333"
             id="text135">China 142,010</text></g><g
           class="node"
           transform="translate(0,486.46652)"
           id="g136"><rect
             height="21.862974"
             width="30"
             fill="#e9b45c"
             stroke="#333333"
             stroke-width="0.5"
             id="rect135"
             x="0"
             y="0" /><text
             class="sankey-node-label-text"
             x="-10"
             y="10.931487"
             dy="0.34999999em"
             text-anchor="end"
             style="font-weight:normal;font-size:10px;font-family:'Times New Roman', Times, serif;fill:#333333"
             id="text136">Mongolia 68,002</text></g><g
           class="node"
           transform="translate(0,553.11936)"
           id="g137"><rect
             height="11.896966"
             width="30"
             fill="#2cf08e"
             stroke="#333333"
             stroke-width="0.5"
             id="rect136"
             x="0"
             y="0" /><text
             class="sankey-node-label-text"
             x="-10"
             y="5.948483"
             dy="0.34999999em"
             text-anchor="end"
             style="font-weight:normal;font-size:10px;font-family:'Times New Roman', Times, serif;fill:#333333"
             id="text137">Russia 37,004</text></g><g
           class="node"
           transform="translate(0,523.3295)"
           id="g138"><rect
             height="14.789866"
             width="30"
             fill="#f65023"
             stroke="#333333"
             stroke-width="0.5"
             id="rect137"
             x="0"
             y="0" /><text
             class="sankey-node-label-text"
             x="-10"
             y="7.3949332"
             dy="0.34999999em"
             text-anchor="end"
             style="font-weight:normal;font-size:10px;font-family:'Times New Roman', Times, serif;fill:#333333"
             id="text138">Turkmenistan 46,002</text></g><g
           class="node"
           transform="translate(0,165.98367)"
           id="g139"><rect
             height="244.82594"
             width="30"
             fill="#3df864"
             stroke="#333333"
             stroke-width="0.5"
             id="rect138"
             x="0"
             y="0" /><text
             class="sankey-node-label-text"
             x="-10"
             y="122.41297"
             dy="0.34999999em"
             text-anchor="end"
             style="font-weight:normal;font-size:10px;font-family:'Times New Roman', Times, serif;fill:#333333"
             id="text139">Uzbekistan 761,500</text></g><g
           class="node"
           transform="translate(738,-0.49549893)"
           id="g140"><rect
             height="715.99103"
             width="30"
             fill="#2cf08e"
             stroke="#333333"
             stroke-width="0.5"
             id="rect139"
             x="0"
             y="0" /><text
             class="sankey-node-label-text"
             x="40"
             y="357.99551"
             dy="0.34999999em"
             text-anchor="start"
             style="font-weight:normal;font-size:10px;font-family:'Times New Roman', Times, serif;fill:#333333"
             id="text140">Russia 2,226,999</text></g><g
           class="node"
           transform="translate(738,730.4955)"
           id="g141"><rect
             height="1"
             width="30"
             fill="#3df864"
             stroke="#333333"
             stroke-width="0.5"
             id="rect140"
             x="0"
             y="0" /><text
             class="sankey-node-label-text"
             x="40"
             y="0.5"
             dy="0.34999999em"
             text-anchor="start"
             style="font-weight:normal;font-size:10px;font-family:'Times New Roman', Times, serif;fill:#333333"
             id="text141">Uzbekistan 28</text></g></g></g></g></svg>
